<ttFont>
    <TTGlyph name=".notdef" xMin="60" yMin="95" xMax="257" yMax="378">
      <contour>
        <pt x="239" y="378" on="1"/>
        <pt x="246" y="378" on="0"/>
        <pt x="257" y="368" on="0"/>
        <pt x="257" y="360" on="1"/>
        <pt x="257" y="356" on="0"/>
        <pt x="254" y="351" on="1"/>
        <pt x="180" y="236" on="1"/>
        <pt x="253" y="122" on="1"/>
        <pt x="256" y="118" on="0"/>
        <pt x="256" y="112" on="1"/>
        <pt x="256" y="105" on="0"/>
        <pt x="245" y="95" on="0"/>
        <pt x="238" y="95" on="1"/>
        <pt x="229" y="95" on="0"/>
        <pt x="224" y="103" on="1"/>
        <pt x="159" y="203" on="1"/>
        <pt x="93" y="103" on="1"/>
        <pt x="87" y="95" on="0"/>
        <pt x="78" y="95" on="1"/>
        <pt x="71" y="95" on="0"/>
        <pt x="60" y="105" on="0"/>
        <pt x="60" y="112" on="1"/>
        <pt x="60" y="118" on="0"/>
        <pt x="63" y="122" on="1"/>
        <pt x="137" y="236" on="1"/>
        <pt x="63" y="351" on="1"/>
        <pt x="60" y="356" on="0"/>
        <pt x="60" y="360" on="1"/>
        <pt x="60" y="368" on="0"/>
        <pt x="70" y="378" on="0"/>
        <pt x="78" y="378" on="1"/>
        <pt x="87" y="378" on="0"/>
        <pt x="93" y="370" on="1"/>
        <pt x="159" y="268" on="1"/>
        <pt x="225" y="370" on="1"/>
        <pt x="230" y="378" on="0"/>
      </contour>
    </TTGlyph>
    <TTGlyph name="A" xMin="27" yMin="0" xMax="458" yMax="737">
      <contour>
        <pt x="422" y="13" on="1"/>
        <pt x="377" y="177" on="1"/>
        <pt x="108" y="177" on="1"/>
        <pt x="63" y="13" on="1"/>
        <pt x="60" y="0" on="0"/>
        <pt x="44" y="0" on="1"/>
        <pt x="27" y="0" on="0"/>
        <pt x="27" y="16" on="1"/>
        <pt x="27" y="19" on="0"/>
        <pt x="28" y="22" on="1"/>
        <pt x="225" y="723" on="1"/>
        <pt x="229" y="737" on="0"/>
        <pt x="257" y="737" on="0"/>
        <pt x="262" y="723" on="1"/>
        <pt x="457" y="22" on="1"/>
        <pt x="458" y="19" on="0"/>
        <pt x="458" y="16" on="1"/>
        <pt x="458" y="0" on="0"/>
        <pt x="441" y="0" on="1"/>
        <pt x="425" y="0" on="0"/>
      </contour>
      <contour>
        <pt x="243" y="661" on="1"/>
        <pt x="118" y="213" on="1"/>
        <pt x="367" y="213" on="1"/>
      </contour>
    </TTGlyph>
    <TTGlyph name="AE" xMin="77" yMin="0" xMax="650" yMax="731">
      <contour>
        <pt x="396" y="695" on="1"/>
        <pt x="396" y="384" on="1"/>
        <pt x="556" y="384" on="1"/>
        <pt x="573" y="384" on="0"/>
        <pt x="573" y="365" on="1"/>
        <pt x="573" y="348" on="0"/>
        <pt x="556" y="348" on="1"/>
        <pt x="396" y="348" on="1"/>
        <pt x="396" y="36" on="1"/>
        <pt x="633" y="36" on="1"/>
        <pt x="650" y="36" on="0"/>
        <pt x="650" y="17" on="1"/>
        <pt x="650" y="0" on="0"/>
        <pt x="633" y="0" on="1"/>
        <pt x="378" y="0" on="1"/>
        <pt x="360" y="0" on="0"/>
        <pt x="360" y="18" on="1"/>
        <pt x="360" y="348" on="1"/>
        <pt x="113" y="348" on="1"/>
        <pt x="113" y="23" on="1"/>
        <pt x="113" y="0" on="0"/>
        <pt x="77" y="0" on="0"/>
        <pt x="77" y="23" on="1"/>
        <pt x="77" y="525" on="1"/>
        <pt x="77" y="632" on="0"/>
        <pt x="184" y="731" on="0"/>
        <pt x="273" y="731" on="1"/>
        <pt x="633" y="731" on="1"/>
        <pt x="650" y="731" on="0"/>
        <pt x="650" y="714" on="1"/>
        <pt x="650" y="695" on="0"/>
        <pt x="633" y="695" on="1"/>
      </contour>
      <contour>
        <pt x="113" y="525" on="1"/>
        <pt x="113" y="384" on="1"/>
        <pt x="360" y="384" on="1"/>
        <pt x="360" y="695" on="1"/>
        <pt x="273" y="695" on="1"/>
        <pt x="196" y="695" on="0"/>
        <pt x="113" y="610" on="0"/>
      </contour>
    </TTGlyph>
    <TTGlyph name="Aacute" xMin="27" yMin="0" xMax="458" yMax="953">
      <component glyphName="A" x="0" y="0" flags="0x204"/>
      <component glyphName="acute" x="176" y="259" flags="0x4"/>
    </TTGlyph>
    <TTGlyph name="Abreve" xMin="27" yMin="0" xMax="458" yMax="951">
      <contour>
        <pt x="422" y="13" on="1"/>
        <pt x="377" y="177" on="1"/>
        <pt x="108" y="177" on="1"/>
        <pt x="63" y="13" on="1"/>
        <pt x="60" y="0" on="0"/>
        <pt x="44" y="0" on="1"/>
        <pt x="27" y="0" on="0"/>
        <pt x="27" y="16" on="1"/>
        <pt x="27" y="19" on="0"/>
        <pt x="28" y="22" on="1"/>
        <pt x="225" y="723" on="1"/>
        <pt x="229" y="737" on="0"/>
        <pt x="257" y="737" on="0"/>
        <pt x="262" y="723" on="1"/>
        <pt x="457" y="22" on="1"/>
        <pt x="458" y="19" on="0"/>
        <pt x="458" y="16" on="1"/>
        <pt x="458" y="0" on="0"/>
        <pt x="441" y="0" on="1"/>
        <pt x="425" y="0" on="0"/>
      </contour>
      <contour>
        <pt x="243" y="661" on="1"/>
        <pt x="118" y="213" on="1"/>
        <pt x="367" y="213" on="1"/>
      </contour>
      <contour>
        <pt x="318" y="951" on="1"/>
        <pt x="351" y="951" on="1"/>
        <pt x="351" y="914" on="0"/>
        <pt x="285" y="860" on="0"/>
        <pt x="242" y="860" on="1"/>
        <pt x="198" y="860" on="0"/>
        <pt x="133" y="914" on="0"/>
        <pt x="133" y="951" on="1"/>
        <pt x="165" y="951" on="1"/>
        <pt x="165" y="924" on="0"/>
        <pt x="210" y="886" on="0"/>
        <pt x="242" y="886" on="1"/>
        <pt x="273" y="886" on="0"/>
        <pt x="318" y="924" on="0"/>
      </contour>
    </TTGlyph>
    <TTGlyph name="Acircumflex" xMin="27" yMin="0" xMax="458" yMax="953">
      <component glyphName="A" x="0" y="0" flags="0x204"/>
      <component glyphName="circumflex" x="112" y="259" flags="0x4"/>
    </TTGlyph>
    <TTGlyph name="Adieresis" xMin="27" yMin="0" xMax="458" yMax="962">
      <contour>
        <pt x="422" y="13" on="1"/>
        <pt x="377" y="177" on="1"/>
        <pt x="108" y="177" on="1"/>
        <pt x="63" y="13" on="1"/>
        <pt x="60" y="0" on="0"/>
        <pt x="44" y="0" on="1"/>
        <pt x="27" y="0" on="0"/>
        <pt x="27" y="16" on="1"/>
        <pt x="27" y="19" on="0"/>
        <pt x="28" y="22" on="1"/>
        <pt x="225" y="723" on="1"/>
        <pt x="229" y="737" on="0"/>
        <pt x="257" y="737" on="0"/>
        <pt x="262" y="723" on="1"/>
        <pt x="457" y="22" on="1"/>
        <pt x="458" y="19" on="0"/>
        <pt x="458" y="16" on="1"/>
        <pt x="458" y="0" on="0"/>
        <pt x="441" y="0" on="1"/>
        <pt x="425" y="0" on="0"/>
      </contour>
      <contour>
        <pt x="243" y="661" on="1"/>
        <pt x="118" y="213" on="1"/>
        <pt x="367" y="213" on="1"/>
      </contour>
      <contour>
        <pt x="201" y="962" on="1"/>
        <pt x="211" y="962" on="0"/>
        <pt x="227" y="936" on="0"/>
        <pt x="227" y="902" on="0"/>
        <pt x="211" y="876" on="0"/>
        <pt x="201" y="876" on="1"/>
        <pt x="190" y="876" on="0"/>
        <pt x="174" y="902" on="0"/>
        <pt x="174" y="936" on="0"/>
        <pt x="190" y="962" on="0"/>
      </contour>
      <contour>
        <pt x="284" y="962" on="1"/>
        <pt x="294" y="962" on="0"/>
        <pt x="310" y="936" on="0"/>
        <pt x="310" y="902" on="0"/>
        <pt x="294" y="876" on="0"/>
        <pt x="284" y="876" on="1"/>
        <pt x="273" y="876" on="0"/>
        <pt x="257" y="902" on="0"/>
        <pt x="257" y="936" on="0"/>
        <pt x="273" y="962" on="0"/>
      </contour>
    </TTGlyph>
    <TTGlyph name="Agrave" xMin="27" yMin="0" xMax="458" yMax="953">
      <component glyphName="A" x="0" y="0" flags="0x204"/>
      <component glyphName="grave" x="176" y="259" flags="0x4"/>
    </TTGlyph>
    <TTGlyph name="Amacron" xMin="27" yMin="0" xMax="458" yMax="932">
      <contour>
        <pt x="422" y="13" on="1"/>
        <pt x="377" y="177" on="1"/>
        <pt x="108" y="177" on="1"/>
        <pt x="63" y="13" on="1"/>
        <pt x="60" y="0" on="0"/>
        <pt x="44" y="0" on="1"/>
        <pt x="27" y="0" on="0"/>
        <pt x="27" y="16" on="1"/>
        <pt x="27" y="19" on="0"/>
        <pt x="28" y="22" on="1"/>
        <pt x="225" y="723" on="1"/>
        <pt x="229" y="737" on="0"/>
        <pt x="257" y="737" on="0"/>
        <pt x="262" y="723" on="1"/>
        <pt x="457" y="22" on="1"/>
        <pt x="458" y="19" on="0"/>
        <pt x="458" y="16" on="1"/>
        <pt x="458" y="0" on="0"/>
        <pt x="441" y="0" on="1"/>
        <pt x="425" y="0" on="0"/>
      </contour>
      <contour>
        <pt x="243" y="661" on="1"/>
        <pt x="118" y="213" on="1"/>
        <pt x="367" y="213" on="1"/>
      </contour>
      <contour>
        <pt x="115" y="914" on="1"/>
        <pt x="115" y="932" on="0"/>
        <pt x="132" y="932" on="1"/>
        <pt x="352" y="932" on="1"/>
        <pt x="359" y="932" on="0"/>
        <pt x="370" y="921" on="0"/>
        <pt x="370" y="907" on="0"/>
        <pt x="359" y="897" on="0"/>
        <pt x="352" y="897" on="1"/>
        <pt x="132" y="897" on="1"/>
        <pt x="115" y="897" on="0"/>
      </contour>
    </TTGlyph>
    <TTGlyph name="Aogonek" xMin="27" yMin="-155" xMax="458" yMax="737">
      <component glyphName="A" x="0" y="0" flags="0x204"/>
      <component glyphName="ogonek" x="348" y="0" flags="0x4"/>
    </TTGlyph>
    <TTGlyph name="Aring" xMin="27" yMin="0" xMax="458" yMax="1027">
      <contour>
        <pt x="422" y="13" on="1"/>
        <pt x="377" y="177" on="1"/>
        <pt x="108" y="177" on="1"/>
        <pt x="63" y="13" on="1"/>
        <pt x="60" y="0" on="0"/>
        <pt x="44" y="0" on="1"/>
        <pt x="27" y="0" on="0"/>
        <pt x="27" y="16" on="1"/>
        <pt x="27" y="19" on="0"/>
        <pt x="28" y="22" on="1"/>
        <pt x="225" y="723" on="1"/>
        <pt x="229" y="737" on="0"/>
        <pt x="257" y="737" on="0"/>
        <pt x="262" y="723" on="1"/>
        <pt x="457" y="22" on="1"/>
        <pt x="458" y="19" on="0"/>
        <pt x="458" y="16" on="1"/>
        <pt x="458" y="0" on="0"/>
        <pt x="441" y="0" on="1"/>
        <pt x="425" y="0" on="0"/>
      </contour>
      <contour>
        <pt x="243" y="661" on="1"/>
        <pt x="118" y="213" on="1"/>
        <pt x="367" y="213" on="1"/>
      </contour>
      <contour>
        <pt x="242" y="1027" on="1"/>
        <pt x="274" y="1027" on="0"/>
        <pt x="324" y="977" on="0"/>
        <pt x="324" y="944" on="1"/>
        <pt x="324" y="910" on="0"/>
        <pt x="274" y="859" on="0"/>
        <pt x="242" y="859" on="1"/>
        <pt x="209" y="859" on="0"/>
        <pt x="160" y="910" on="0"/>
        <pt x="160" y="944" on="1"/>
        <pt x="160" y="977" on="0"/>
        <pt x="208" y="1027" on="0"/>
      </contour>
      <contour>
        <pt x="294" y="944" on="1"/>
        <pt x="294" y="963" on="0"/>
        <pt x="263" y="996" on="0"/>
        <pt x="242" y="996" on="1"/>
        <pt x="220" y="996" on="0"/>
        <pt x="189" y="964" on="0"/>
        <pt x="189" y="944" on="1"/>
        <pt x="189" y="922" on="0"/>
        <pt x="220" y="888" on="0"/>
        <pt x="242" y="888" on="1"/>
        <pt x="263" y="888" on="0"/>
        <pt x="294" y="922" on="0"/>
      </contour>
    </TTGlyph>
    <TTGlyph name="Atilde" xMin="27" yMin="0" xMax="458" yMax="949">
      <component glyphName="A" x="0" y="0" flags="0x204"/>
      <component glyphName="tilde" x="95" y="259" flags="0x4"/>
    </TTGlyph>
    <TTGlyph name="B" xMin="82" yMin="0" xMax="473" yMax="731">
      <contour>
        <pt x="82" y="17" on="1"/>
        <pt x="82" y="713" on="1"/>
        <pt x="82" y="731" on="0"/>
        <pt x="100" y="731" on="1"/>
        <pt x="250" y="731" on="1"/>
        <pt x="349" y="731" on="0"/>
        <pt x="455" y="661" on="0"/>
        <pt x="455" y="564" on="1"/>
        <pt x="455" y="501" on="0"/>
        <pt x="409" y="413" on="0"/>
        <pt x="370" y="396" on="1"/>
        <pt x="473" y="353" on="0"/>
        <pt x="473" y="220" on="1"/>
        <pt x="473" y="203" on="1"/>
        <pt x="473" y="97" on="0"/>
        <pt x="366" y="0" on="0"/>
        <pt x="277" y="0" on="1"/>
        <pt x="100" y="0" on="1"/>
        <pt x="82" y="2" on="0"/>
      </contour>
      <contour>
        <pt x="118" y="36" on="1"/>
        <pt x="277" y="36" on="1"/>
        <pt x="437" y="36" on="0"/>
        <pt x="437" y="203" on="1"/>
        <pt x="437" y="220" on="1"/>
        <pt x="437" y="304" on="0"/>
        <pt x="355" y="378" on="0"/>
        <pt x="277" y="378" on="1"/>
        <pt x="118" y="378" on="1"/>
      </contour>
      <contour>
        <pt x="118" y="695" on="1"/>
        <pt x="118" y="414" on="1"/>
        <pt x="257" y="414" on="1"/>
        <pt x="343" y="414" on="0"/>
        <pt x="419" y="480" on="0"/>
        <pt x="419" y="564" on="1"/>
        <pt x="419" y="641" on="0"/>
        <pt x="334" y="695" on="0"/>
        <pt x="252" y="695" on="1"/>
      </contour>
    </TTGlyph>
    <TTGlyph name="C" xMin="70" yMin="-6" xMax="461" yMax="731">
      <contour>
        <pt x="106" y="525" on="1"/>
        <pt x="106" y="200" on="1"/>
        <pt x="106" y="115" on="0"/>
        <pt x="188" y="30" on="0"/>
        <pt x="265" y="30" on="1"/>
        <pt x="333" y="30" on="0"/>
        <pt x="416" y="95" on="0"/>
        <pt x="425" y="161" on="1"/>
        <pt x="426" y="179" on="0"/>
        <pt x="443" y="179" on="1"/>
        <pt x="461" y="179" on="0"/>
        <pt x="461" y="159" on="1"/>
        <pt x="455" y="86" on="0"/>
        <pt x="354" y="-6" on="0"/>
        <pt x="176" y="-6" on="0"/>
        <pt x="70" y="93" on="0"/>
        <pt x="70" y="200" on="1"/>
        <pt x="70" y="525" on="1"/>
        <pt x="70" y="632" on="0"/>
        <pt x="176" y="731" on="0"/>
        <pt x="354" y="731" on="0"/>
        <pt x="455" y="639" on="0"/>
        <pt x="461" y="566" on="1"/>
        <pt x="461" y="546" on="0"/>
        <pt x="443" y="546" on="1"/>
        <pt x="426" y="546" on="0"/>
        <pt x="425" y="564" on="1"/>
        <pt x="416" y="630" on="0"/>
        <pt x="333" y="695" on="0"/>
        <pt x="265" y="695" on="1"/>
        <pt x="188" y="695" on="0"/>
        <pt x="106" y="610" on="0"/>
      </contour>
    </TTGlyph>
    <TTGlyph name="Cacute" xMin="70" yMin="-6" xMax="461" yMax="953">
      <component glyphName="C" x="0" y="0" flags="0x204"/>
      <component glyphName="acute" x="199" y="259" flags="0x4"/>
    </TTGlyph>
    <TTGlyph name="Ccaron" xMin="70" yMin="-6" xMax="461" yMax="981">
      <contour>
        <pt x="106" y="525" on="1"/>
        <pt x="106" y="200" on="1"/>
        <pt x="106" y="115" on="0"/>
        <pt x="188" y="30" on="0"/>
        <pt x="265" y="30" on="1"/>
        <pt x="333" y="30" on="0"/>
        <pt x="416" y="95" on="0"/>
        <pt x="425" y="161" on="1"/>
        <pt x="426" y="179" on="0"/>
        <pt x="443" y="179" on="1"/>
        <pt x="461" y="179" on="0"/>
        <pt x="461" y="159" on="1"/>
        <pt x="455" y="86" on="0"/>
        <pt x="354" y="-6" on="0"/>
        <pt x="176" y="-6" on="0"/>
        <pt x="70" y="93" on="0"/>
        <pt x="70" y="200" on="1"/>
        <pt x="70" y="525" on="1"/>
        <pt x="70" y="632" on="0"/>
        <pt x="176" y="731" on="0"/>
        <pt x="354" y="731" on="0"/>
        <pt x="455" y="639" on="0"/>
        <pt x="461" y="566" on="1"/>
        <pt x="461" y="546" on="0"/>
        <pt x="443" y="546" on="1"/>
        <pt x="426" y="546" on="0"/>
        <pt x="425" y="564" on="1"/>
        <pt x="416" y="630" on="0"/>
        <pt x="333" y="695" on="0"/>
        <pt x="265" y="695" on="1"/>
        <pt x="188" y="695" on="0"/>
        <pt x="106" y="610" on="0"/>
      </contour>
      <contour>
        <pt x="243" y="849" on="1"/>
        <pt x="133" y="950" on="1"/>
        <pt x="124" y="959" on="0"/>
        <pt x="124" y="967" on="1"/>
        <pt x="124" y="981" on="0"/>
        <pt x="138" y="981" on="1"/>
        <pt x="148" y="981" on="0"/>
        <pt x="156" y="973" on="1"/>
        <pt x="264" y="873" on="1"/>
        <pt x="372" y="973" on="1"/>
        <pt x="380" y="981" on="0"/>
        <pt x="390" y="981" on="1"/>
        <pt x="404" y="981" on="0"/>
        <pt x="404" y="967" on="1"/>
        <pt x="404" y="959" on="0"/>
        <pt x="395" y="950" on="1"/>
        <pt x="285" y="849" on="1"/>
        <pt x="274" y="840" on="0"/>
        <pt x="254" y="840" on="0"/>
      </contour>
    </TTGlyph>
    <TTGlyph name="Ccedilla" xMin="70" yMin="-209" xMax="461" yMax="731">
      <component glyphName="C" x="0" y="0" flags="0x204"/>
      <component glyphName="cedilla" x="234" y="0" flags="0x4"/>
    </TTGlyph>
    <TTGlyph name="Ccircumflex" xMin="70" yMin="-6" xMax="461" yMax="953">
      <contour>
        <pt x="106" y="525" on="1"/>
        <pt x="106" y="200" on="1"/>
        <pt x="106" y="115" on="0"/>
        <pt x="188" y="30" on="0"/>
        <pt x="265" y="30" on="1"/>
        <pt x="333" y="30" on="0"/>
        <pt x="416" y="95" on="0"/>
        <pt x="425" y="161" on="1"/>
        <pt x="426" y="179" on="0"/>
        <pt x="443" y="179" on="1"/>
        <pt x="461" y="179" on="0"/>
        <pt x="461" y="159" on="1"/>
        <pt x="455" y="86" on="0"/>
        <pt x="354" y="-6" on="0"/>
        <pt x="176" y="-6" on="0"/>
        <pt x="70" y="93" on="0"/>
        <pt x="70" y="200" on="1"/>
        <pt x="70" y="525" on="1"/>
        <pt x="70" y="632" on="0"/>
        <pt x="176" y="731" on="0"/>
        <pt x="354" y="731" on="0"/>
        <pt x="455" y="639" on="0"/>
        <pt x="461" y="566" on="1"/>
        <pt x="461" y="546" on="0"/>
        <pt x="443" y="546" on="1"/>
        <pt x="426" y="546" on="0"/>
        <pt x="425" y="564" on="1"/>
        <pt x="416" y="630" on="0"/>
        <pt x="333" y="695" on="0"/>
        <pt x="265" y="695" on="1"/>
        <pt x="188" y="695" on="0"/>
        <pt x="106" y="610" on="0"/>
      </contour>
      <contour>
        <pt x="265" y="918" on="1"/>
        <pt x="161" y="862" on="1"/>
        <pt x="160" y="862" on="0"/>
        <pt x="154" y="859" on="0"/>
        <pt x="153" y="859" on="1"/>
        <pt x="146" y="859" on="0"/>
        <pt x="135" y="870" on="0"/>
        <pt x="135" y="878" on="1"/>
        <pt x="135" y="888" on="0"/>
        <pt x="144" y="892" on="1"/>
        <pt x="248" y="948" on="1"/>
        <pt x="256" y="953" on="0"/>
        <pt x="274" y="953" on="0"/>
        <pt x="282" y="948" on="1"/>
        <pt x="386" y="893" on="1"/>
        <pt x="395" y="888" on="0"/>
        <pt x="395" y="876" on="1"/>
        <pt x="395" y="869" on="0"/>
        <pt x="385" y="860" on="0"/>
        <pt x="378" y="860" on="1"/>
        <pt x="369" y="863" on="1"/>
      </contour>
    </TTGlyph>
    <TTGlyph name="Cdotaccent" xMin="70" yMin="-6" xMax="461" yMax="922">
      <component glyphName="C" x="0" y="0" flags="0x204"/>
      <component glyphName="dotaccent" x="156" y="259" flags="0x4"/>
    </TTGlyph>
    <TTGlyph name="D" xMin="83" yMin="0" xMax="474" yMax="731">
      <contour>
        <pt x="101" y="731" on="1"/>
        <pt x="278" y="731" on="1"/>
        <pt x="367" y="731" on="0"/>
        <pt x="474" y="632" on="0"/>
        <pt x="474" y="525" on="1"/>
        <pt x="474" y="206" on="1"/>
        <pt x="474" y="99" on="0"/>
        <pt x="367" y="0" on="0"/>
        <pt x="278" y="0" on="1"/>
        <pt x="101" y="0" on="1"/>
        <pt x="83" y="0" on="0"/>
        <pt x="83" y="17" on="1"/>
        <pt x="83" y="714" on="1"/>
        <pt x="83" y="731" on="0"/>
      </contour>
      <contour>
        <pt x="278" y="695" on="1"/>
        <pt x="119" y="695" on="1"/>
        <pt x="119" y="36" on="1"/>
        <pt x="278" y="36" on="1"/>
        <pt x="355" y="36" on="0"/>
        <pt x="438" y="121" on="0"/>
        <pt x="438" y="206" on="1"/>
        <pt x="438" y="525" on="1"/>
        <pt x="438" y="610" on="0"/>
        <pt x="355" y="695" on="0"/>
      </contour>
    </TTGlyph>
    <TTGlyph name="Dcaron" xMin="83" yMin="0" xMax="474" yMax="981">
      <component glyphName="D" x="0" y="0" flags="0x204"/>
      <component glyphName="caron" x="137" y="259" flags="0x4"/>
    </TTGlyph>
    <TTGlyph name="E" xMin="82" yMin="0" xMax="473" yMax="731">
      <contour>
        <pt x="118" y="695" on="1"/>
        <pt x="118" y="384" on="1"/>
        <pt x="278" y="384" on="1"/>
        <pt x="295" y="384" on="0"/>
        <pt x="295" y="365" on="1"/>
        <pt x="295" y="348" on="0"/>
        <pt x="278" y="348" on="1"/>
        <pt x="118" y="348" on="1"/>
        <pt x="118" y="36" on="1"/>
        <pt x="456" y="36" on="1"/>
        <pt x="473" y="36" on="0"/>
        <pt x="473" y="17" on="1"/>
        <pt x="473" y="0" on="0"/>
        <pt x="456" y="0" on="1"/>
        <pt x="100" y="0" on="1"/>
        <pt x="82" y="0" on="0"/>
        <pt x="82" y="18" on="1"/>
        <pt x="82" y="713" on="1"/>
        <pt x="82" y="731" on="0"/>
        <pt x="100" y="731" on="1"/>
        <pt x="456" y="731" on="1"/>
        <pt x="473" y="731" on="0"/>
        <pt x="473" y="714" on="1"/>
        <pt x="473" y="695" on="0"/>
        <pt x="456" y="695" on="1"/>
      </contour>
    </TTGlyph>
    <TTGlyph name="Eacute" xMin="82" yMin="0" xMax="473" yMax="953">
      <component glyphName="E" x="0" y="0" flags="0x204"/>
      <component glyphName="acute" x="211" y="259" flags="0x4"/>
    </TTGlyph>
    <TTGlyph name="Ebreve" xMin="82" yMin="0" xMax="473" yMax="951">
      <contour>
        <pt x="118" y="695" on="1"/>
        <pt x="118" y="384" on="1"/>
        <pt x="278" y="384" on="1"/>
        <pt x="295" y="384" on="0"/>
        <pt x="295" y="365" on="1"/>
        <pt x="295" y="348" on="0"/>
        <pt x="278" y="348" on="1"/>
        <pt x="118" y="348" on="1"/>
        <pt x="118" y="36" on="1"/>
        <pt x="456" y="36" on="1"/>
        <pt x="473" y="36" on="0"/>
        <pt x="473" y="17" on="1"/>
        <pt x="473" y="0" on="0"/>
        <pt x="456" y="0" on="1"/>
        <pt x="100" y="0" on="1"/>
        <pt x="82" y="0" on="0"/>
        <pt x="82" y="18" on="1"/>
        <pt x="82" y="713" on="1"/>
        <pt x="82" y="731" on="0"/>
        <pt x="100" y="731" on="1"/>
        <pt x="456" y="731" on="1"/>
        <pt x="473" y="731" on="0"/>
        <pt x="473" y="714" on="1"/>
        <pt x="473" y="695" on="0"/>
        <pt x="456" y="695" on="1"/>
      </contour>
      <contour>
        <pt x="353" y="951" on="1"/>
        <pt x="386" y="951" on="1"/>
        <pt x="386" y="914" on="0"/>
        <pt x="320" y="860" on="0"/>
        <pt x="277" y="860" on="1"/>
        <pt x="233" y="860" on="0"/>
        <pt x="168" y="914" on="0"/>
        <pt x="168" y="951" on="1"/>
        <pt x="200" y="951" on="1"/>
        <pt x="200" y="924" on="0"/>
        <pt x="245" y="886" on="0"/>
        <pt x="277" y="886" on="1"/>
        <pt x="308" y="886" on="0"/>
        <pt x="353" y="924" on="0"/>
      </contour>
    </TTGlyph>
    <TTGlyph name="Ecaron" xMin="82" yMin="0" xMax="473" yMax="981">
      <component glyphName="E" x="0" y="0" flags="0x204"/>
      <component glyphName="caron" x="136" y="259" flags="0x4"/>
    </TTGlyph>
    <TTGlyph name="Ecircumflex" xMin="82" yMin="0" xMax="473" yMax="953">
      <contour>
        <pt x="118" y="695" on="1"/>
        <pt x="118" y="384" on="1"/>
        <pt x="278" y="384" on="1"/>
        <pt x="295" y="384" on="0"/>
        <pt x="295" y="365" on="1"/>
        <pt x="295" y="348" on="0"/>
        <pt x="278" y="348" on="1"/>
        <pt x="118" y="348" on="1"/>
        <pt x="118" y="36" on="1"/>
        <pt x="456" y="36" on="1"/>
        <pt x="473" y="36" on="0"/>
        <pt x="473" y="17" on="1"/>
        <pt x="473" y="0" on="0"/>
        <pt x="456" y="0" on="1"/>
        <pt x="100" y="0" on="1"/>
        <pt x="82" y="0" on="0"/>
        <pt x="82" y="18" on="1"/>
        <pt x="82" y="713" on="1"/>
        <pt x="82" y="731" on="0"/>
        <pt x="100" y="731" on="1"/>
        <pt x="456" y="731" on="1"/>
        <pt x="473" y="731" on="0"/>
        <pt x="473" y="714" on="1"/>
        <pt x="473" y="695" on="0"/>
        <pt x="456" y="695" on="1"/>
      </contour>
      <contour>
        <pt x="277" y="918" on="1"/>
        <pt x="173" y="862" on="1"/>
        <pt x="172" y="862" on="0"/>
        <pt x="166" y="859" on="0"/>
        <pt x="165" y="859" on="1"/>
        <pt x="158" y="859" on="0"/>
        <pt x="147" y="870" on="0"/>
        <pt x="147" y="878" on="1"/>
        <pt x="147" y="888" on="0"/>
        <pt x="156" y="892" on="1"/>
        <pt x="260" y="948" on="1"/>
        <pt x="268" y="953" on="0"/>
        <pt x="286" y="953" on="0"/>
        <pt x="294" y="948" on="1"/>
        <pt x="398" y="893" on="1"/>
        <pt x="407" y="888" on="0"/>
        <pt x="407" y="876" on="1"/>
        <pt x="407" y="869" on="0"/>
        <pt x="397" y="860" on="0"/>
        <pt x="390" y="860" on="1"/>
        <pt x="381" y="863" on="1"/>
      </contour>
    </TTGlyph>
    <TTGlyph name="Edieresis" xMin="82" yMin="0" xMax="473" yMax="962">
      <component glyphName="E" x="0" y="0" flags="0x204"/>
      <component glyphName="dieresis" x="209" y="259" flags="0x4"/>
    </TTGlyph>
    <TTGlyph name="Edotaccent" xMin="82" yMin="0" xMax="473" yMax="922">
      <component glyphName="E" x="0" y="0" flags="0x204"/>
      <component glyphName="dotaccent" x="168" y="259" flags="0x4"/>
    </TTGlyph>
    <TTGlyph name="Egrave" xMin="82" yMin="0" xMax="473" yMax="953">
      <contour>
        <pt x="118" y="695" on="1"/>
        <pt x="118" y="384" on="1"/>
        <pt x="278" y="384" on="1"/>
        <pt x="295" y="384" on="0"/>
        <pt x="295" y="365" on="1"/>
        <pt x="295" y="348" on="0"/>
        <pt x="278" y="348" on="1"/>
        <pt x="118" y="348" on="1"/>
        <pt x="118" y="36" on="1"/>
        <pt x="456" y="36" on="1"/>
        <pt x="473" y="36" on="0"/>
        <pt x="473" y="17" on="1"/>
        <pt x="473" y="0" on="0"/>
        <pt x="456" y="0" on="1"/>
        <pt x="100" y="0" on="1"/>
        <pt x="82" y="0" on="0"/>
        <pt x="82" y="18" on="1"/>
        <pt x="82" y="713" on="1"/>
        <pt x="82" y="731" on="0"/>
        <pt x="100" y="731" on="1"/>
        <pt x="456" y="731" on="1"/>
        <pt x="473" y="731" on="0"/>
        <pt x="473" y="714" on="1"/>
        <pt x="473" y="695" on="0"/>
        <pt x="456" y="695" on="1"/>
      </contour>
      <contour>
        <pt x="316" y="863" on="1"/>
        <pt x="221" y="917" on="1"/>
        <pt x="211" y="923" on="0"/>
        <pt x="211" y="935" on="1"/>
        <pt x="211" y="953" on="0"/>
        <pt x="227" y="953" on="1"/>
        <pt x="230" y="953" on="0"/>
        <pt x="234" y="951" on="1"/>
        <pt x="336" y="891" on="1"/>
        <pt x="344" y="887" on="0"/>
        <pt x="344" y="878" on="1"/>
        <pt x="344" y="871" on="0"/>
        <pt x="333" y="860" on="0"/>
        <pt x="325" y="860" on="1"/>
        <pt x="320" y="860" on="0"/>
      </contour>
    </TTGlyph>
    <TTGlyph name="Emacron" xMin="82" yMin="0" xMax="473" yMax="932">
      <component glyphName="E" x="0" y="0" flags="0x204"/>
      <component glyphName="macron" x="150" y="259" flags="0x4"/>
    </TTGlyph>
    <TTGlyph name="Eogonek" xMin="82" yMin="-155" xMax="473" yMax="731">
      <contour>
        <pt x="118" y="695" on="1"/>
        <pt x="118" y="384" on="1"/>
        <pt x="278" y="384" on="1"/>
        <pt x="295" y="384" on="0"/>
        <pt x="295" y="365" on="1"/>
        <pt x="295" y="348" on="0"/>
        <pt x="278" y="348" on="1"/>
        <pt x="118" y="348" on="1"/>
        <pt x="118" y="36" on="1"/>
        <pt x="456" y="36" on="1"/>
        <pt x="473" y="36" on="0"/>
        <pt x="473" y="17" on="1"/>
        <pt x="473" y="0" on="0"/>
        <pt x="456" y="0" on="1"/>
        <pt x="100" y="0" on="1"/>
        <pt x="82" y="0" on="0"/>
        <pt x="82" y="18" on="1"/>
        <pt x="82" y="713" on="1"/>
        <pt x="82" y="731" on="0"/>
        <pt x="100" y="731" on="1"/>
        <pt x="456" y="731" on="1"/>
        <pt x="473" y="731" on="0"/>
        <pt x="473" y="714" on="1"/>
        <pt x="473" y="695" on="0"/>
        <pt x="456" y="695" on="1"/>
      </contour>
      <contour>
        <pt x="455" y="-129" on="1"/>
        <pt x="473" y="-129" on="0"/>
        <pt x="473" y="-155" on="0"/>
        <pt x="450" y="-155" on="1"/>
        <pt x="416" y="-155" on="0"/>
        <pt x="363" y="-124" on="0"/>
        <pt x="363" y="-88" on="1"/>
        <pt x="363" y="-33" on="0"/>
        <pt x="438" y="18" on="1"/>
        <pt x="464" y="2" on="1"/>
        <pt x="428" y="-22" on="0"/>
        <pt x="392" y="-61" on="0"/>
        <pt x="392" y="-86" on="1"/>
        <pt x="392" y="-129" on="0"/>
      </contour>
    </TTGlyph>
    <TTGlyph name="Eth" xMin="3" yMin="0" xMax="484" yMax="731">
      <contour>
        <pt x="3" y="384" on="1"/>
        <pt x="3" y="402" on="0"/>
        <pt x="20" y="402" on="1"/>
        <pt x="260" y="402" on="1"/>
        <pt x="267" y="402" on="0"/>
        <pt x="278" y="391" on="0"/>
        <pt x="278" y="377" on="0"/>
        <pt x="267" y="367" on="0"/>
        <pt x="260" y="367" on="1"/>
        <pt x="20" y="367" on="1"/>
        <pt x="3" y="367" on="0"/>
      </contour>
      <contour>
        <pt x="111" y="731" on="1"/>
        <pt x="288" y="731" on="1"/>
        <pt x="377" y="731" on="0"/>
        <pt x="484" y="632" on="0"/>
        <pt x="484" y="525" on="1"/>
        <pt x="484" y="206" on="1"/>
        <pt x="484" y="99" on="0"/>
        <pt x="377" y="0" on="0"/>
        <pt x="288" y="0" on="1"/>
        <pt x="111" y="0" on="1"/>
        <pt x="93" y="0" on="0"/>
        <pt x="93" y="17" on="1"/>
        <pt x="93" y="714" on="1"/>
        <pt x="93" y="731" on="0"/>
      </contour>
      <contour>
        <pt x="288" y="695" on="1"/>
        <pt x="129" y="695" on="1"/>
        <pt x="129" y="36" on="1"/>
        <pt x="288" y="36" on="1"/>
        <pt x="365" y="36" on="0"/>
        <pt x="448" y="121" on="0"/>
        <pt x="448" y="206" on="1"/>
        <pt x="448" y="525" on="1"/>
        <pt x="448" y="610" on="0"/>
        <pt x="365" y="695" on="0"/>
      </contour>
    </TTGlyph>
    <TTGlyph name="Euro" xMin="37" yMin="-6" xMax="515" yMax="731">
      <contour>
        <pt x="37" y="424" on="1"/>
        <pt x="37" y="442" on="0"/>
        <pt x="54" y="442" on="1"/>
        <pt x="124" y="442" on="1"/>
        <pt x="124" y="525" on="1"/>
        <pt x="124" y="632" on="0"/>
        <pt x="230" y="731" on="0"/>
        <pt x="408" y="731" on="0"/>
        <pt x="509" y="639" on="0"/>
        <pt x="515" y="566" on="1"/>
        <pt x="515" y="546" on="0"/>
        <pt x="497" y="546" on="1"/>
        <pt x="480" y="546" on="0"/>
        <pt x="479" y="564" on="1"/>
        <pt x="470" y="630" on="0"/>
        <pt x="387" y="695" on="0"/>
        <pt x="319" y="695" on="1"/>
        <pt x="242" y="695" on="0"/>
        <pt x="160" y="610" on="0"/>
        <pt x="160" y="525" on="1"/>
        <pt x="160" y="442" on="1"/>
        <pt x="364" y="442" on="1"/>
        <pt x="371" y="442" on="0"/>
        <pt x="382" y="431" on="0"/>
        <pt x="382" y="417" on="0"/>
        <pt x="371" y="407" on="0"/>
        <pt x="364" y="407" on="1"/>
        <pt x="160" y="407" on="1"/>
        <pt x="160" y="299" on="1"/>
        <pt x="364" y="299" on="1"/>
        <pt x="371" y="299" on="0"/>
        <pt x="382" y="288" on="0"/>
        <pt x="382" y="274" on="0"/>
        <pt x="371" y="264" on="0"/>
        <pt x="364" y="264" on="1"/>
        <pt x="160" y="264" on="1"/>
        <pt x="160" y="200" on="1"/>
        <pt x="160" y="115" on="0"/>
        <pt x="242" y="30" on="0"/>
        <pt x="319" y="30" on="1"/>
        <pt x="387" y="30" on="0"/>
        <pt x="470" y="95" on="0"/>
        <pt x="479" y="161" on="1"/>
        <pt x="480" y="179" on="0"/>
        <pt x="497" y="179" on="1"/>
        <pt x="515" y="179" on="0"/>
        <pt x="515" y="159" on="1"/>
        <pt x="509" y="86" on="0"/>
        <pt x="408" y="-6" on="0"/>
        <pt x="230" y="-6" on="0"/>
        <pt x="124" y="93" on="0"/>
        <pt x="124" y="200" on="1"/>
        <pt x="124" y="264" on="1"/>
        <pt x="54" y="264" on="1"/>
        <pt x="37" y="264" on="0"/>
        <pt x="37" y="281" on="1"/>
        <pt x="37" y="299" on="0"/>
        <pt x="54" y="299" on="1"/>
        <pt x="124" y="299" on="1"/>
        <pt x="124" y="407" on="1"/>
        <pt x="54" y="407" on="1"/>
        <pt x="37" y="407" on="0"/>
      </contour>
    </TTGlyph>
    <TTGlyph name="F" xMin="82" yMin="0" xMax="473" yMax="731">
      <contour>
        <pt x="100" y="731" on="1"/>
        <pt x="456" y="731" on="1"/>
        <pt x="473" y="731" on="0"/>
        <pt x="473" y="714" on="1"/>
        <pt x="473" y="695" on="0"/>
        <pt x="456" y="695" on="1"/>
        <pt x="118" y="695" on="1"/>
        <pt x="118" y="384" on="1"/>
        <pt x="278" y="384" on="1"/>
        <pt x="295" y="384" on="0"/>
        <pt x="295" y="365" on="1"/>
        <pt x="295" y="348" on="0"/>
        <pt x="278" y="348" on="1"/>
        <pt x="118" y="348" on="1"/>
        <pt x="118" y="17" on="1"/>
        <pt x="118" y="0" on="0"/>
        <pt x="82" y="0" on="0"/>
        <pt x="82" y="17" on="1"/>
        <pt x="82" y="713" on="1"/>
        <pt x="82" y="731" on="0"/>
      </contour>
    </TTGlyph>
    <TTGlyph name="G" xMin="70" yMin="-6" xMax="461" yMax="731">
      <contour>
        <pt x="425" y="348" on="1"/>
        <pt x="266" y="348" on="1"/>
        <pt x="249" y="348" on="0"/>
        <pt x="249" y="384" on="0"/>
        <pt x="266" y="384" on="1"/>
        <pt x="444" y="384" on="1"/>
        <pt x="461" y="384" on="0"/>
        <pt x="461" y="365" on="1"/>
        <pt x="461" y="200" on="1"/>
        <pt x="461" y="93" on="0"/>
        <pt x="354" y="-6" on="0"/>
        <pt x="176" y="-6" on="0"/>
        <pt x="70" y="93" on="0"/>
        <pt x="70" y="200" on="1"/>
        <pt x="70" y="525" on="1"/>
        <pt x="70" y="632" on="0"/>
        <pt x="176" y="731" on="0"/>
        <pt x="354" y="731" on="0"/>
        <pt x="455" y="639" on="0"/>
        <pt x="461" y="566" on="1"/>
        <pt x="461" y="546" on="0"/>
        <pt x="443" y="546" on="1"/>
        <pt x="426" y="546" on="0"/>
        <pt x="425" y="564" on="1"/>
        <pt x="416" y="630" on="0"/>
        <pt x="333" y="695" on="0"/>
        <pt x="265" y="695" on="1"/>
        <pt x="188" y="695" on="0"/>
        <pt x="106" y="610" on="0"/>
        <pt x="106" y="525" on="1"/>
        <pt x="106" y="200" on="1"/>
        <pt x="106" y="115" on="0"/>
        <pt x="188" y="30" on="0"/>
        <pt x="342" y="30" on="0"/>
        <pt x="425" y="115" on="0"/>
        <pt x="425" y="200" on="1"/>
      </contour>
    </TTGlyph>
    <TTGlyph name="Gbreve" xMin="70" yMin="-6" xMax="461" yMax="951">
      <component glyphName="G" x="0" y="0" flags="0x204"/>
      <component glyphName="breve" x="156" y="259" flags="0x4"/>
    </TTGlyph>
    <TTGlyph name="Gcircumflex" xMin="70" yMin="-6" xMax="461" yMax="953">
      <contour>
        <pt x="425" y="348" on="1"/>
        <pt x="266" y="348" on="1"/>
        <pt x="249" y="348" on="0"/>
        <pt x="249" y="384" on="0"/>
        <pt x="266" y="384" on="1"/>
        <pt x="444" y="384" on="1"/>
        <pt x="461" y="384" on="0"/>
        <pt x="461" y="365" on="1"/>
        <pt x="461" y="200" on="1"/>
        <pt x="461" y="93" on="0"/>
        <pt x="354" y="-6" on="0"/>
        <pt x="176" y="-6" on="0"/>
        <pt x="70" y="93" on="0"/>
        <pt x="70" y="200" on="1"/>
        <pt x="70" y="525" on="1"/>
        <pt x="70" y="632" on="0"/>
        <pt x="176" y="731" on="0"/>
        <pt x="354" y="731" on="0"/>
        <pt x="455" y="639" on="0"/>
        <pt x="461" y="566" on="1"/>
        <pt x="461" y="546" on="0"/>
        <pt x="443" y="546" on="1"/>
        <pt x="426" y="546" on="0"/>
        <pt x="425" y="564" on="1"/>
        <pt x="416" y="630" on="0"/>
        <pt x="333" y="695" on="0"/>
        <pt x="265" y="695" on="1"/>
        <pt x="188" y="695" on="0"/>
        <pt x="106" y="610" on="0"/>
        <pt x="106" y="525" on="1"/>
        <pt x="106" y="200" on="1"/>
        <pt x="106" y="115" on="0"/>
        <pt x="188" y="30" on="0"/>
        <pt x="342" y="30" on="0"/>
        <pt x="425" y="115" on="0"/>
        <pt x="425" y="200" on="1"/>
      </contour>
      <contour>
        <pt x="265" y="918" on="1"/>
        <pt x="161" y="862" on="1"/>
        <pt x="160" y="862" on="0"/>
        <pt x="154" y="859" on="0"/>
        <pt x="153" y="859" on="1"/>
        <pt x="146" y="859" on="0"/>
        <pt x="135" y="870" on="0"/>
        <pt x="135" y="878" on="1"/>
        <pt x="135" y="888" on="0"/>
        <pt x="144" y="892" on="1"/>
        <pt x="248" y="948" on="1"/>
        <pt x="256" y="953" on="0"/>
        <pt x="274" y="953" on="0"/>
        <pt x="282" y="948" on="1"/>
        <pt x="386" y="893" on="1"/>
        <pt x="395" y="888" on="0"/>
        <pt x="395" y="876" on="1"/>
        <pt x="395" y="869" on="0"/>
        <pt x="385" y="860" on="0"/>
        <pt x="378" y="860" on="1"/>
        <pt x="369" y="863" on="1"/>
      </contour>
    </TTGlyph>
    <TTGlyph name="Gdotaccent" xMin="70" yMin="-6" xMax="461" yMax="922">
      <contour>
        <pt x="425" y="348" on="1"/>
        <pt x="266" y="348" on="1"/>
        <pt x="249" y="348" on="0"/>
        <pt x="249" y="384" on="0"/>
        <pt x="266" y="384" on="1"/>
        <pt x="444" y="384" on="1"/>
        <pt x="461" y="384" on="0"/>
        <pt x="461" y="365" on="1"/>
        <pt x="461" y="200" on="1"/>
        <pt x="461" y="93" on="0"/>
        <pt x="354" y="-6" on="0"/>
        <pt x="176" y="-6" on="0"/>
        <pt x="70" y="93" on="0"/>
        <pt x="70" y="200" on="1"/>
        <pt x="70" y="525" on="1"/>
        <pt x="70" y="632" on="0"/>
        <pt x="176" y="731" on="0"/>
        <pt x="354" y="731" on="0"/>
        <pt x="455" y="639" on="0"/>
        <pt x="461" y="566" on="1"/>
        <pt x="461" y="546" on="0"/>
        <pt x="443" y="546" on="1"/>
        <pt x="426" y="546" on="0"/>
        <pt x="425" y="564" on="1"/>
        <pt x="416" y="630" on="0"/>
        <pt x="333" y="695" on="0"/>
        <pt x="265" y="695" on="1"/>
        <pt x="188" y="695" on="0"/>
        <pt x="106" y="610" on="0"/>
        <pt x="106" y="525" on="1"/>
        <pt x="106" y="200" on="1"/>
        <pt x="106" y="115" on="0"/>
        <pt x="188" y="30" on="0"/>
        <pt x="342" y="30" on="0"/>
        <pt x="425" y="115" on="0"/>
        <pt x="425" y="200" on="1"/>
      </contour>
      <contour>
        <pt x="266" y="922" on="1"/>
        <pt x="283" y="922" on="0"/>
        <pt x="309" y="896" on="0"/>
        <pt x="309" y="862" on="0"/>
        <pt x="283" y="836" on="0"/>
        <pt x="266" y="836" on="1"/>
        <pt x="248" y="836" on="0"/>
        <pt x="222" y="862" on="0"/>
        <pt x="222" y="896" on="0"/>
        <pt x="248" y="922" on="0"/>
      </contour>
    </TTGlyph>
    <TTGlyph name="H" xMin="82" yMin="0" xMax="473" yMax="731">
      <contour>
        <pt x="437" y="18" on="1"/>
        <pt x="437" y="361" on="1"/>
        <pt x="118" y="361" on="1"/>
        <pt x="118" y="18" on="1"/>
        <pt x="118" y="0" on="0"/>
        <pt x="82" y="0" on="0"/>
        <pt x="82" y="18" on="1"/>
        <pt x="82" y="714" on="1"/>
        <pt x="82" y="731" on="0"/>
        <pt x="118" y="731" on="0"/>
        <pt x="118" y="714" on="1"/>
        <pt x="118" y="397" on="1"/>
        <pt x="437" y="397" on="1"/>
        <pt x="437" y="714" on="1"/>
        <pt x="437" y="731" on="0"/>
        <pt x="473" y="731" on="0"/>
        <pt x="473" y="714" on="1"/>
        <pt x="473" y="18" on="1"/>
        <pt x="473" y="0" on="0"/>
        <pt x="437" y="0" on="0"/>
      </contour>
    </TTGlyph>
    <TTGlyph name="I" xMin="82" yMin="0" xMax="118" yMax="731">
      <contour>
        <pt x="82" y="18" on="1"/>
        <pt x="82" y="714" on="1"/>
        <pt x="82" y="731" on="0"/>
        <pt x="118" y="731" on="0"/>
        <pt x="118" y="714" on="1"/>
        <pt x="118" y="18" on="1"/>
        <pt x="118" y="0" on="0"/>
        <pt x="82" y="0" on="0"/>
      </contour>
    </TTGlyph>
    <TTGlyph name="Iacute" xMin="33" yMin="0" xMax="166" yMax="953">
      <component glyphName="I" x="0" y="0" flags="0x204"/>
      <component glyphName="acute" x="33" y="259" flags="0x4"/>
    </TTGlyph>
    <TTGlyph name="Icircumflex" xMin="-30" yMin="0" xMax="230" yMax="953">
      <contour>
        <pt x="82" y="18" on="1"/>
        <pt x="82" y="714" on="1"/>
        <pt x="82" y="731" on="0"/>
        <pt x="118" y="731" on="0"/>
        <pt x="118" y="714" on="1"/>
        <pt x="118" y="18" on="1"/>
        <pt x="118" y="0" on="0"/>
        <pt x="82" y="0" on="0"/>
      </contour>
      <contour>
        <pt x="100" y="918" on="1"/>
        <pt x="-4" y="862" on="1"/>
        <pt x="-5" y="862" on="0"/>
        <pt x="-11" y="859" on="0"/>
        <pt x="-12" y="859" on="1"/>
        <pt x="-19" y="859" on="0"/>
        <pt x="-30" y="870" on="0"/>
        <pt x="-30" y="878" on="1"/>
        <pt x="-30" y="888" on="0"/>
        <pt x="-21" y="892" on="1"/>
        <pt x="83" y="948" on="1"/>
        <pt x="91" y="953" on="0"/>
        <pt x="109" y="953" on="0"/>
        <pt x="117" y="948" on="1"/>
        <pt x="221" y="893" on="1"/>
        <pt x="230" y="888" on="0"/>
        <pt x="230" y="876" on="1"/>
        <pt x="230" y="869" on="0"/>
        <pt x="220" y="860" on="0"/>
        <pt x="213" y="860" on="1"/>
        <pt x="204" y="863" on="1"/>
      </contour>
    </TTGlyph>
    <TTGlyph name="Idieresis" xMin="32" yMin="0" xMax="168" yMax="962">
      <component glyphName="I" x="0" y="0" flags="0x204"/>
      <component glyphName="dieresis" x="32" y="259" flags="0x4"/>
    </TTGlyph>
    <TTGlyph name="Idotaccent" xMin="57" yMin="0" xMax="144" yMax="922">
      <component glyphName="I" x="0" y="0" flags="0x204"/>
      <component glyphName="dotaccent" x="-9" y="259" flags="0x4"/>
    </TTGlyph>
    <TTGlyph name="Igrave" xMin="33" yMin="0" xMax="166" yMax="953">
      <contour>
        <pt x="82" y="18" on="1"/>
        <pt x="82" y="714" on="1"/>
        <pt x="82" y="731" on="0"/>
        <pt x="118" y="731" on="0"/>
        <pt x="118" y="714" on="1"/>
        <pt x="118" y="18" on="1"/>
        <pt x="118" y="0" on="0"/>
        <pt x="82" y="0" on="0"/>
      </contour>
      <contour>
        <pt x="138" y="863" on="1"/>
        <pt x="43" y="917" on="1"/>
        <pt x="33" y="923" on="0"/>
        <pt x="33" y="935" on="1"/>
        <pt x="33" y="953" on="0"/>
        <pt x="49" y="953" on="1"/>
        <pt x="52" y="953" on="0"/>
        <pt x="56" y="951" on="1"/>
        <pt x="158" y="891" on="1"/>
        <pt x="166" y="887" on="0"/>
        <pt x="166" y="878" on="1"/>
        <pt x="166" y="871" on="0"/>
        <pt x="155" y="860" on="0"/>
        <pt x="147" y="860" on="1"/>
        <pt x="142" y="860" on="0"/>
      </contour>
    </TTGlyph>
    <TTGlyph name="Imacron" xMin="-26" yMin="0" xMax="229" yMax="932">
      <component glyphName="I" x="0" y="0" flags="0x204"/>
      <component glyphName="macron" x="-26" y="259" flags="0x4"/>
    </TTGlyph>
    <TTGlyph name="Iogonek" xMin="15" yMin="-150" xMax="125" yMax="731">
      <contour>
        <pt x="84" y="18" on="1"/>
        <pt x="84" y="714" on="1"/>
        <pt x="84" y="731" on="0"/>
        <pt x="120" y="731" on="0"/>
        <pt x="120" y="714" on="1"/>
        <pt x="120" y="18" on="1"/>
        <pt x="120" y="0" on="0"/>
        <pt x="84" y="0" on="0"/>
      </contour>
      <contour>
        <pt x="107" y="-124" on="1"/>
        <pt x="125" y="-124" on="0"/>
        <pt x="125" y="-150" on="0"/>
        <pt x="102" y="-150" on="1"/>
        <pt x="68" y="-150" on="0"/>
        <pt x="15" y="-119" on="0"/>
        <pt x="15" y="-83" on="1"/>
        <pt x="15" y="-28" on="0"/>
        <pt x="90" y="23" on="1"/>
        <pt x="116" y="7" on="1"/>
        <pt x="80" y="-17" on="0"/>
        <pt x="44" y="-56" on="0"/>
        <pt x="44" y="-81" on="1"/>
        <pt x="44" y="-124" on="0"/>
      </contour>
    </TTGlyph>
    <TTGlyph name="Itilde" xMin="-47" yMin="0" xMax="248" yMax="949">
      <contour>
        <pt x="82" y="18" on="1"/>
        <pt x="82" y="714" on="1"/>
        <pt x="82" y="731" on="0"/>
        <pt x="118" y="731" on="0"/>
        <pt x="118" y="714" on="1"/>
        <pt x="118" y="18" on="1"/>
        <pt x="118" y="0" on="0"/>
        <pt x="82" y="0" on="0"/>
      </contour>
      <contour>
        <pt x="169" y="912" on="1"/>
        <pt x="189" y="912" on="0"/>
        <pt x="214" y="928" on="0"/>
        <pt x="228" y="944" on="0"/>
        <pt x="234" y="944" on="1"/>
        <pt x="248" y="944" on="0"/>
        <pt x="248" y="929" on="1"/>
        <pt x="248" y="908" on="0"/>
        <pt x="191" y="878" on="0"/>
        <pt x="164" y="878" on="1"/>
        <pt x="141" y="878" on="0"/>
        <pt x="64" y="915" on="0"/>
        <pt x="35" y="915" on="1"/>
        <pt x="16" y="915" on="0"/>
        <pt x="-12" y="898" on="0"/>
        <pt x="-29" y="880" on="0"/>
        <pt x="-34" y="880" on="1"/>
        <pt x="-47" y="880" on="0"/>
        <pt x="-47" y="897" on="1"/>
        <pt x="-47" y="916" on="0"/>
        <pt x="14" y="949" on="0"/>
        <pt x="42" y="949" on="1"/>
        <pt x="66" y="949" on="0"/>
        <pt x="143" y="912" on="0"/>
      </contour>
    </TTGlyph>
    <TTGlyph name="J" xMin="25" yMin="-6" xMax="416" yMax="731">
      <contour>
        <pt x="221" y="731" on="1"/>
        <pt x="398" y="731" on="1"/>
        <pt x="416" y="731" on="0"/>
        <pt x="416" y="713" on="1"/>
        <pt x="416" y="200" on="1"/>
        <pt x="416" y="93" on="0"/>
        <pt x="310" y="-6" on="0"/>
        <pt x="132" y="-6" on="0"/>
        <pt x="31" y="86" on="0"/>
        <pt x="25" y="159" on="1"/>
        <pt x="25" y="179" on="0"/>
        <pt x="42" y="179" on="1"/>
        <pt x="60" y="179" on="0"/>
        <pt x="61" y="161" on="1"/>
        <pt x="70" y="95" on="0"/>
        <pt x="153" y="30" on="0"/>
        <pt x="221" y="30" on="1"/>
        <pt x="298" y="30" on="0"/>
        <pt x="380" y="115" on="0"/>
        <pt x="380" y="200" on="1"/>
        <pt x="380" y="695" on="1"/>
        <pt x="221" y="695" on="1"/>
        <pt x="204" y="695" on="0"/>
        <pt x="204" y="714" on="1"/>
        <pt x="204" y="731" on="0"/>
      </contour>
    </TTGlyph>
    <TTGlyph name="K" xMin="82" yMin="0" xMax="499" yMax="731">
      <contour>
        <pt x="465" y="9" on="1"/>
        <pt x="214" y="385" on="1"/>
        <pt x="118" y="265" on="1"/>
        <pt x="118" y="18" on="1"/>
        <pt x="118" y="0" on="0"/>
        <pt x="82" y="0" on="0"/>
        <pt x="82" y="18" on="1"/>
        <pt x="82" y="714" on="1"/>
        <pt x="82" y="731" on="0"/>
        <pt x="118" y="731" on="0"/>
        <pt x="118" y="714" on="1"/>
        <pt x="118" y="322" on="1"/>
        <pt x="441" y="725" on="1"/>
        <pt x="446" y="731" on="0"/>
        <pt x="455" y="731" on="1"/>
        <pt x="462" y="731" on="0"/>
        <pt x="473" y="719" on="0"/>
        <pt x="473" y="712" on="1"/>
        <pt x="473" y="706" on="0"/>
        <pt x="469" y="702" on="1"/>
        <pt x="238" y="415" on="1"/>
        <pt x="496" y="27" on="1"/>
        <pt x="499" y="22" on="0"/>
        <pt x="499" y="18" on="1"/>
        <pt x="499" y="11" on="0"/>
        <pt x="488" y="0" on="0"/>
        <pt x="480" y="0" on="1"/>
        <pt x="471" y="0" on="0"/>
      </contour>
    </TTGlyph>
    <TTGlyph name="L" xMin="82" yMin="0" xMax="437" yMax="731">
      <contour>
        <pt x="422" y="0" on="1"/>
        <pt x="100" y="0" on="1"/>
        <pt x="82" y="0" on="0"/>
        <pt x="82" y="18" on="1"/>
        <pt x="82" y="714" on="1"/>
        <pt x="82" y="731" on="0"/>
        <pt x="118" y="731" on="0"/>
        <pt x="118" y="714" on="1"/>
        <pt x="118" y="36" on="1"/>
        <pt x="422" y="36" on="1"/>
        <pt x="437" y="36" on="0"/>
        <pt x="437" y="0" on="0"/>
      </contour>
    </TTGlyph>
    <TTGlyph name="Lacute" xMin="82" yMin="0" xMax="437" yMax="953">
      <component glyphName="L" x="0" y="0" flags="0x204"/>
      <component glyphName="acute" x="193" y="259" flags="0x4"/>
    </TTGlyph>
    <TTGlyph name="Lcaron" xMin="82" yMin="0" xMax="437" yMax="731">
      <contour>
        <pt x="422" y="0" on="1"/>
        <pt x="100" y="0" on="1"/>
        <pt x="82" y="0" on="0"/>
        <pt x="82" y="18" on="1"/>
        <pt x="82" y="714" on="1"/>
        <pt x="82" y="731" on="0"/>
        <pt x="118" y="731" on="0"/>
        <pt x="118" y="714" on="1"/>
        <pt x="118" y="36" on="1"/>
        <pt x="422" y="36" on="1"/>
        <pt x="437" y="36" on="0"/>
        <pt x="437" y="0" on="0"/>
      </contour>
      <contour>
        <pt x="278" y="731" on="1"/>
        <pt x="318" y="731" on="0"/>
        <pt x="318" y="676" on="1"/>
        <pt x="318" y="636" on="0"/>
        <pt x="291" y="544" on="0"/>
        <pt x="275" y="544" on="1"/>
        <pt x="266" y="544" on="0"/>
        <pt x="266" y="558" on="1"/>
        <pt x="266" y="565" on="0"/>
        <pt x="282" y="618" on="0"/>
        <pt x="282" y="654" on="1"/>
        <pt x="239" y="654" on="0"/>
        <pt x="239" y="689" on="1"/>
        <pt x="239" y="731" on="0"/>
      </contour>
    </TTGlyph>
    <TTGlyph name="Lslash" xMin="6" yMin="0" xMax="444" yMax="731">
      <contour>
        <pt x="23" y="267" on="1"/>
        <pt x="17" y="267" on="0"/>
        <pt x="6" y="279" on="0"/>
        <pt x="6" y="286" on="1"/>
        <pt x="6" y="296" on="0"/>
        <pt x="15" y="300" on="1"/>
        <pt x="240" y="430" on="1"/>
        <pt x="243" y="432" on="0"/>
        <pt x="249" y="432" on="1"/>
        <pt x="256" y="432" on="0"/>
        <pt x="266" y="423" on="0"/>
        <pt x="266" y="416" on="1"/>
        <pt x="266" y="405" on="0"/>
        <pt x="257" y="400" on="1"/>
        <pt x="32" y="270" on="1"/>
        <pt x="28" y="267" on="0"/>
      </contour>
      <contour>
        <pt x="429" y="0" on="1"/>
        <pt x="107" y="0" on="1"/>
        <pt x="89" y="0" on="0"/>
        <pt x="89" y="18" on="1"/>
        <pt x="89" y="714" on="1"/>
        <pt x="89" y="731" on="0"/>
        <pt x="125" y="731" on="0"/>
        <pt x="125" y="714" on="1"/>
        <pt x="125" y="36" on="1"/>
        <pt x="429" y="36" on="1"/>
        <pt x="444" y="36" on="0"/>
        <pt x="444" y="0" on="0"/>
      </contour>
    </TTGlyph>
    <TTGlyph name="M" xMin="83" yMin="0" xMax="562" yMax="731">
      <contour>
        <pt x="526" y="643" on="1"/>
        <pt x="341" y="279" on="1"/>
        <pt x="331" y="260" on="0"/>
        <pt x="322" y="260" on="1"/>
        <pt x="312" y="260" on="0"/>
        <pt x="303" y="279" on="1"/>
        <pt x="119" y="643" on="1"/>
        <pt x="119" y="18" on="1"/>
        <pt x="119" y="0" on="0"/>
        <pt x="83" y="0" on="0"/>
        <pt x="83" y="18" on="1"/>
        <pt x="83" y="714" on="1"/>
        <pt x="83" y="731" on="0"/>
        <pt x="101" y="731" on="1"/>
        <pt x="112" y="731" on="0"/>
        <pt x="132" y="695" on="1"/>
        <pt x="322" y="313" on="1"/>
        <pt x="513" y="695" on="1"/>
        <pt x="533" y="731" on="0"/>
        <pt x="544" y="731" on="1"/>
        <pt x="562" y="731" on="0"/>
        <pt x="562" y="714" on="1"/>
        <pt x="562" y="18" on="1"/>
        <pt x="562" y="0" on="0"/>
        <pt x="526" y="0" on="0"/>
        <pt x="526" y="18" on="1"/>
      </contour>
    </TTGlyph>
    <TTGlyph name="N" xMin="83" yMin="0" xMax="474" yMax="731">
      <contour>
        <pt x="132" y="695" on="1"/>
        <pt x="438" y="89" on="1"/>
        <pt x="438" y="714" on="1"/>
        <pt x="438" y="731" on="0"/>
        <pt x="474" y="731" on="0"/>
        <pt x="474" y="714" on="1"/>
        <pt x="474" y="18" on="1"/>
        <pt x="474" y="0" on="0"/>
        <pt x="456" y="0" on="1"/>
        <pt x="445" y="0" on="0"/>
        <pt x="427" y="36" on="1"/>
        <pt x="119" y="643" on="1"/>
        <pt x="119" y="18" on="1"/>
        <pt x="119" y="0" on="0"/>
        <pt x="83" y="0" on="0"/>
        <pt x="83" y="18" on="1"/>
        <pt x="83" y="714" on="1"/>
        <pt x="83" y="731" on="0"/>
        <pt x="101" y="731" on="1"/>
        <pt x="112" y="731" on="0"/>
      </contour>
    </TTGlyph>
    <TTGlyph name="Nacute" xMin="83" yMin="0" xMax="474" yMax="953">
      <contour>
        <pt x="132" y="695" on="1"/>
        <pt x="438" y="89" on="1"/>
        <pt x="438" y="714" on="1"/>
        <pt x="438" y="731" on="0"/>
        <pt x="474" y="731" on="0"/>
        <pt x="474" y="714" on="1"/>
        <pt x="474" y="18" on="1"/>
        <pt x="474" y="0" on="0"/>
        <pt x="456" y="0" on="1"/>
        <pt x="445" y="0" on="0"/>
        <pt x="427" y="36" on="1"/>
        <pt x="119" y="643" on="1"/>
        <pt x="119" y="18" on="1"/>
        <pt x="119" y="0" on="0"/>
        <pt x="83" y="0" on="0"/>
        <pt x="83" y="18" on="1"/>
        <pt x="83" y="714" on="1"/>
        <pt x="83" y="731" on="0"/>
        <pt x="101" y="731" on="1"/>
        <pt x="112" y="731" on="0"/>
      </contour>
      <contour>
        <pt x="335" y="917" on="1"/>
        <pt x="240" y="863" on="1"/>
        <pt x="236" y="860" on="0"/>
        <pt x="231" y="860" on="1"/>
        <pt x="223" y="860" on="0"/>
        <pt x="212" y="871" on="0"/>
        <pt x="212" y="878" on="1"/>
        <pt x="212" y="887" on="0"/>
        <pt x="220" y="891" on="1"/>
        <pt x="322" y="951" on="1"/>
        <pt x="326" y="953" on="0"/>
        <pt x="329" y="953" on="1"/>
        <pt x="345" y="953" on="0"/>
        <pt x="345" y="935" on="1"/>
        <pt x="345" y="923" on="0"/>
      </contour>
    </TTGlyph>
    <TTGlyph name="Ncaron" xMin="83" yMin="0" xMax="474" yMax="981">
      <contour>
        <pt x="132" y="695" on="1"/>
        <pt x="438" y="89" on="1"/>
        <pt x="438" y="714" on="1"/>
        <pt x="438" y="731" on="0"/>
        <pt x="474" y="731" on="0"/>
        <pt x="474" y="714" on="1"/>
        <pt x="474" y="18" on="1"/>
        <pt x="474" y="0" on="0"/>
        <pt x="456" y="0" on="1"/>
        <pt x="445" y="0" on="0"/>
        <pt x="427" y="36" on="1"/>
        <pt x="119" y="643" on="1"/>
        <pt x="119" y="18" on="1"/>
        <pt x="119" y="0" on="0"/>
        <pt x="83" y="0" on="0"/>
        <pt x="83" y="18" on="1"/>
        <pt x="83" y="714" on="1"/>
        <pt x="83" y="731" on="0"/>
        <pt x="101" y="731" on="1"/>
        <pt x="112" y="731" on="0"/>
      </contour>
      <contour>
        <pt x="256" y="849" on="1"/>
        <pt x="146" y="950" on="1"/>
        <pt x="137" y="959" on="0"/>
        <pt x="137" y="967" on="1"/>
        <pt x="137" y="981" on="0"/>
        <pt x="151" y="981" on="1"/>
        <pt x="161" y="981" on="0"/>
        <pt x="169" y="973" on="1"/>
        <pt x="277" y="873" on="1"/>
        <pt x="385" y="973" on="1"/>
        <pt x="393" y="981" on="0"/>
        <pt x="403" y="981" on="1"/>
        <pt x="417" y="981" on="0"/>
        <pt x="417" y="967" on="1"/>
        <pt x="417" y="959" on="0"/>
        <pt x="408" y="950" on="1"/>
        <pt x="298" y="849" on="1"/>
        <pt x="287" y="840" on="0"/>
        <pt x="267" y="840" on="0"/>
      </contour>
    </TTGlyph>
    <TTGlyph name="Ntilde" xMin="83" yMin="0" xMax="474" yMax="949">
      <component glyphName="N" x="0" y="0" flags="0x204"/>
      <component glyphName="tilde" x="131" y="259" flags="0x4"/>
    </TTGlyph>
    <TTGlyph name="O" xMin="70" yMin="-6" xMax="461" yMax="731">
      <contour>
        <pt x="354" y="-6" on="0"/>
        <pt x="176" y="-6" on="0"/>
        <pt x="70" y="93" on="0"/>
        <pt x="70" y="200" on="1"/>
        <pt x="70" y="525" on="1"/>
        <pt x="70" y="632" on="0"/>
        <pt x="176" y="731" on="0"/>
        <pt x="354" y="731" on="0"/>
        <pt x="461" y="632" on="0"/>
        <pt x="461" y="525" on="1"/>
        <pt x="461" y="200" on="1"/>
        <pt x="461" y="93" on="0"/>
      </contour>
      <contour>
        <pt x="425" y="200" on="1"/>
        <pt x="425" y="525" on="1"/>
        <pt x="425" y="610" on="0"/>
        <pt x="342" y="695" on="0"/>
        <pt x="188" y="695" on="0"/>
        <pt x="106" y="610" on="0"/>
        <pt x="106" y="525" on="1"/>
        <pt x="106" y="200" on="1"/>
        <pt x="106" y="115" on="0"/>
        <pt x="188" y="30" on="0"/>
        <pt x="342" y="30" on="0"/>
        <pt x="425" y="115" on="0"/>
      </contour>
    </TTGlyph>
    <TTGlyph name="OE" xMin="70" yMin="-6" xMax="815" yMax="731">
      <contour>
        <pt x="460" y="695" on="1"/>
        <pt x="460" y="384" on="1"/>
        <pt x="620" y="384" on="1"/>
        <pt x="637" y="384" on="0"/>
        <pt x="637" y="365" on="1"/>
        <pt x="637" y="348" on="0"/>
        <pt x="620" y="348" on="1"/>
        <pt x="460" y="348" on="1"/>
        <pt x="460" y="36" on="1"/>
        <pt x="798" y="36" on="1"/>
        <pt x="815" y="36" on="0"/>
        <pt x="815" y="17" on="1"/>
        <pt x="815" y="0" on="0"/>
        <pt x="798" y="0" on="1"/>
        <pt x="444" y="0" on="1"/>
        <pt x="426" y="0" on="0"/>
        <pt x="426" y="18" on="1"/>
        <pt x="426" y="66" on="1"/>
        <pt x="377" y="-6" on="0"/>
        <pt x="265" y="-6" on="1"/>
        <pt x="176" y="-6" on="0"/>
        <pt x="70" y="93" on="0"/>
        <pt x="70" y="200" on="1"/>
        <pt x="70" y="525" on="1"/>
        <pt x="70" y="632" on="0"/>
        <pt x="176" y="731" on="0"/>
        <pt x="265" y="731" on="1"/>
        <pt x="377" y="731" on="0"/>
        <pt x="426" y="659" on="1"/>
        <pt x="426" y="713" on="1"/>
        <pt x="426" y="731" on="0"/>
        <pt x="444" y="731" on="1"/>
        <pt x="798" y="731" on="1"/>
        <pt x="815" y="731" on="0"/>
        <pt x="815" y="714" on="1"/>
        <pt x="815" y="695" on="0"/>
        <pt x="798" y="695" on="1"/>
      </contour>
      <contour>
        <pt x="425" y="200" on="1"/>
        <pt x="425" y="525" on="1"/>
        <pt x="425" y="610" on="0"/>
        <pt x="342" y="695" on="0"/>
        <pt x="188" y="695" on="0"/>
        <pt x="106" y="610" on="0"/>
        <pt x="106" y="525" on="1"/>
        <pt x="106" y="200" on="1"/>
        <pt x="106" y="115" on="0"/>
        <pt x="188" y="30" on="0"/>
        <pt x="342" y="30" on="0"/>
        <pt x="425" y="115" on="0"/>
      </contour>
    </TTGlyph>
    <TTGlyph name="Oacute" xMin="70" yMin="-6" xMax="461" yMax="953">
      <component glyphName="O" x="0" y="0" flags="0x204"/>
      <component glyphName="acute" x="199" y="259" flags="0x4"/>
    </TTGlyph>
    <TTGlyph name="Obreve" xMin="70" yMin="-6" xMax="461" yMax="951">
      <contour>
        <pt x="354" y="-6" on="0"/>
        <pt x="176" y="-6" on="0"/>
        <pt x="70" y="93" on="0"/>
        <pt x="70" y="200" on="1"/>
        <pt x="70" y="525" on="1"/>
        <pt x="70" y="632" on="0"/>
        <pt x="176" y="731" on="0"/>
        <pt x="354" y="731" on="0"/>
        <pt x="461" y="632" on="0"/>
        <pt x="461" y="525" on="1"/>
        <pt x="461" y="200" on="1"/>
        <pt x="461" y="93" on="0"/>
      </contour>
      <contour>
        <pt x="425" y="200" on="1"/>
        <pt x="425" y="525" on="1"/>
        <pt x="425" y="610" on="0"/>
        <pt x="342" y="695" on="0"/>
        <pt x="188" y="695" on="0"/>
        <pt x="106" y="610" on="0"/>
        <pt x="106" y="525" on="1"/>
        <pt x="106" y="200" on="1"/>
        <pt x="106" y="115" on="0"/>
        <pt x="188" y="30" on="0"/>
        <pt x="342" y="30" on="0"/>
        <pt x="425" y="115" on="0"/>
      </contour>
      <contour>
        <pt x="341" y="951" on="1"/>
        <pt x="374" y="951" on="1"/>
        <pt x="374" y="914" on="0"/>
        <pt x="308" y="860" on="0"/>
        <pt x="265" y="860" on="1"/>
        <pt x="221" y="860" on="0"/>
        <pt x="156" y="914" on="0"/>
        <pt x="156" y="951" on="1"/>
        <pt x="188" y="951" on="1"/>
        <pt x="188" y="924" on="0"/>
        <pt x="233" y="886" on="0"/>
        <pt x="265" y="886" on="1"/>
        <pt x="296" y="886" on="0"/>
        <pt x="341" y="924" on="0"/>
      </contour>
    </TTGlyph>
    <TTGlyph name="Ocircumflex" xMin="70" yMin="-6" xMax="461" yMax="953">
      <component glyphName="O" x="0" y="0" flags="0x204"/>
      <component glyphName="circumflex" x="135" y="259" flags="0x4"/>
    </TTGlyph>
    <TTGlyph name="Odieresis" xMin="70" yMin="-6" xMax="461" yMax="962">
      <contour>
        <pt x="354" y="-6" on="0"/>
        <pt x="176" y="-6" on="0"/>
        <pt x="70" y="93" on="0"/>
        <pt x="70" y="200" on="1"/>
        <pt x="70" y="525" on="1"/>
        <pt x="70" y="632" on="0"/>
        <pt x="176" y="731" on="0"/>
        <pt x="354" y="731" on="0"/>
        <pt x="461" y="632" on="0"/>
        <pt x="461" y="525" on="1"/>
        <pt x="461" y="200" on="1"/>
        <pt x="461" y="93" on="0"/>
      </contour>
      <contour>
        <pt x="425" y="200" on="1"/>
        <pt x="425" y="525" on="1"/>
        <pt x="425" y="610" on="0"/>
        <pt x="342" y="695" on="0"/>
        <pt x="188" y="695" on="0"/>
        <pt x="106" y="610" on="0"/>
        <pt x="106" y="525" on="1"/>
        <pt x="106" y="200" on="1"/>
        <pt x="106" y="115" on="0"/>
        <pt x="188" y="30" on="0"/>
        <pt x="342" y="30" on="0"/>
        <pt x="425" y="115" on="0"/>
      </contour>
      <contour>
        <pt x="224" y="962" on="1"/>
        <pt x="234" y="962" on="0"/>
        <pt x="250" y="936" on="0"/>
        <pt x="250" y="902" on="0"/>
        <pt x="234" y="876" on="0"/>
        <pt x="224" y="876" on="1"/>
        <pt x="213" y="876" on="0"/>
        <pt x="197" y="902" on="0"/>
        <pt x="197" y="936" on="0"/>
        <pt x="213" y="962" on="0"/>
      </contour>
      <contour>
        <pt x="307" y="962" on="1"/>
        <pt x="317" y="962" on="0"/>
        <pt x="333" y="936" on="0"/>
        <pt x="333" y="902" on="0"/>
        <pt x="317" y="876" on="0"/>
        <pt x="307" y="876" on="1"/>
        <pt x="296" y="876" on="0"/>
        <pt x="280" y="902" on="0"/>
        <pt x="280" y="936" on="0"/>
        <pt x="296" y="962" on="0"/>
      </contour>
    </TTGlyph>
    <TTGlyph name="Ograve" xMin="70" yMin="-6" xMax="461" yMax="953">
      <component glyphName="O" x="0" y="0" flags="0x204"/>
      <component glyphName="grave" x="199" y="259" flags="0x4"/>
    </TTGlyph>
    <TTGlyph name="Ohungarumlaut" xMin="70" yMin="-6" xMax="461" yMax="953">
      <contour>
        <pt x="354" y="-6" on="0"/>
        <pt x="176" y="-6" on="0"/>
        <pt x="70" y="93" on="0"/>
        <pt x="70" y="200" on="1"/>
        <pt x="70" y="525" on="1"/>
        <pt x="70" y="632" on="0"/>
        <pt x="176" y="731" on="0"/>
        <pt x="354" y="731" on="0"/>
        <pt x="461" y="632" on="0"/>
        <pt x="461" y="525" on="1"/>
        <pt x="461" y="200" on="1"/>
        <pt x="461" y="93" on="0"/>
      </contour>
      <contour>
        <pt x="425" y="200" on="1"/>
        <pt x="425" y="525" on="1"/>
        <pt x="425" y="610" on="0"/>
        <pt x="342" y="695" on="0"/>
        <pt x="188" y="695" on="0"/>
        <pt x="106" y="610" on="0"/>
        <pt x="106" y="525" on="1"/>
        <pt x="106" y="200" on="1"/>
        <pt x="106" y="115" on="0"/>
        <pt x="188" y="30" on="0"/>
        <pt x="342" y="30" on="0"/>
        <pt x="425" y="115" on="0"/>
      </contour>
      <contour>
        <pt x="288" y="917" on="1"/>
        <pt x="193" y="863" on="1"/>
        <pt x="188" y="860" on="0"/>
        <pt x="184" y="860" on="1"/>
        <pt x="176" y="860" on="0"/>
        <pt x="165" y="871" on="0"/>
        <pt x="165" y="878" on="1"/>
        <pt x="165" y="887" on="0"/>
        <pt x="173" y="891" on="1"/>
        <pt x="275" y="951" on="1"/>
        <pt x="279" y="953" on="0"/>
        <pt x="282" y="953" on="1"/>
        <pt x="298" y="953" on="0"/>
        <pt x="298" y="935" on="1"/>
        <pt x="298" y="923" on="0"/>
      </contour>
      <contour>
        <pt x="435" y="917" on="1"/>
        <pt x="340" y="863" on="1"/>
        <pt x="336" y="860" on="0"/>
        <pt x="331" y="860" on="1"/>
        <pt x="323" y="860" on="0"/>
        <pt x="312" y="871" on="0"/>
        <pt x="312" y="878" on="1"/>
        <pt x="312" y="887" on="0"/>
        <pt x="320" y="891" on="1"/>
        <pt x="422" y="951" on="1"/>
        <pt x="426" y="953" on="0"/>
        <pt x="429" y="953" on="1"/>
        <pt x="445" y="953" on="0"/>
        <pt x="445" y="935" on="1"/>
        <pt x="445" y="923" on="0"/>
      </contour>
    </TTGlyph>
    <TTGlyph name="Omacron" xMin="70" yMin="-6" xMax="461" yMax="932">
      <contour>
        <pt x="354" y="-6" on="0"/>
        <pt x="176" y="-6" on="0"/>
        <pt x="70" y="93" on="0"/>
        <pt x="70" y="200" on="1"/>
        <pt x="70" y="525" on="1"/>
        <pt x="70" y="632" on="0"/>
        <pt x="176" y="731" on="0"/>
        <pt x="354" y="731" on="0"/>
        <pt x="461" y="632" on="0"/>
        <pt x="461" y="525" on="1"/>
        <pt x="461" y="200" on="1"/>
        <pt x="461" y="93" on="0"/>
      </contour>
      <contour>
        <pt x="425" y="200" on="1"/>
        <pt x="425" y="525" on="1"/>
        <pt x="425" y="610" on="0"/>
        <pt x="342" y="695" on="0"/>
        <pt x="188" y="695" on="0"/>
        <pt x="106" y="610" on="0"/>
        <pt x="106" y="525" on="1"/>
        <pt x="106" y="200" on="1"/>
        <pt x="106" y="115" on="0"/>
        <pt x="188" y="30" on="0"/>
        <pt x="342" y="30" on="0"/>
        <pt x="425" y="115" on="0"/>
      </contour>
      <contour>
        <pt x="138" y="914" on="1"/>
        <pt x="138" y="932" on="0"/>
        <pt x="155" y="932" on="1"/>
        <pt x="375" y="932" on="1"/>
        <pt x="382" y="932" on="0"/>
        <pt x="393" y="921" on="0"/>
        <pt x="393" y="907" on="0"/>
        <pt x="382" y="897" on="0"/>
        <pt x="375" y="897" on="1"/>
        <pt x="155" y="897" on="1"/>
        <pt x="138" y="897" on="0"/>
      </contour>
    </TTGlyph>
    <TTGlyph name="Oslash" xMin="53" yMin="-20" xMax="477" yMax="768">
      <component glyphName="O" x="0" y="0" flags="0x204"/>
      <component glyphName="slash" x="30" y="0" flags="0x4"/>
    </TTGlyph>
    <TTGlyph name="Otilde" xMin="70" yMin="-6" xMax="461" yMax="949">
      <contour>
        <pt x="354" y="-6" on="0"/>
        <pt x="176" y="-6" on="0"/>
        <pt x="70" y="93" on="0"/>
        <pt x="70" y="200" on="1"/>
        <pt x="70" y="525" on="1"/>
        <pt x="70" y="632" on="0"/>
        <pt x="176" y="731" on="0"/>
        <pt x="354" y="731" on="0"/>
        <pt x="461" y="632" on="0"/>
        <pt x="461" y="525" on="1"/>
        <pt x="461" y="200" on="1"/>
        <pt x="461" y="93" on="0"/>
      </contour>
      <contour>
        <pt x="425" y="200" on="1"/>
        <pt x="425" y="525" on="1"/>
        <pt x="425" y="610" on="0"/>
        <pt x="342" y="695" on="0"/>
        <pt x="188" y="695" on="0"/>
        <pt x="106" y="610" on="0"/>
        <pt x="106" y="525" on="1"/>
        <pt x="106" y="200" on="1"/>
        <pt x="106" y="115" on="0"/>
        <pt x="188" y="30" on="0"/>
        <pt x="342" y="30" on="0"/>
        <pt x="425" y="115" on="0"/>
      </contour>
      <contour>
        <pt x="334" y="912" on="1"/>
        <pt x="354" y="912" on="0"/>
        <pt x="379" y="928" on="0"/>
        <pt x="393" y="944" on="0"/>
        <pt x="399" y="944" on="1"/>
        <pt x="413" y="944" on="0"/>
        <pt x="413" y="929" on="1"/>
        <pt x="413" y="908" on="0"/>
        <pt x="356" y="878" on="0"/>
        <pt x="329" y="878" on="1"/>
        <pt x="306" y="878" on="0"/>
        <pt x="229" y="915" on="0"/>
        <pt x="200" y="915" on="1"/>
        <pt x="181" y="915" on="0"/>
        <pt x="153" y="898" on="0"/>
        <pt x="136" y="880" on="0"/>
        <pt x="131" y="880" on="1"/>
        <pt x="118" y="880" on="0"/>
        <pt x="118" y="897" on="1"/>
        <pt x="118" y="916" on="0"/>
        <pt x="179" y="949" on="0"/>
        <pt x="207" y="949" on="1"/>
        <pt x="231" y="949" on="0"/>
        <pt x="308" y="912" on="0"/>
      </contour>
    </TTGlyph>
    <TTGlyph name="P" xMin="83" yMin="0" xMax="474" yMax="731">
      <contour>
        <pt x="83" y="18" on="1"/>
        <pt x="83" y="714" on="1"/>
        <pt x="83" y="729" on="0"/>
        <pt x="101" y="731" on="1"/>
        <pt x="278" y="731" on="1"/>
        <pt x="367" y="731" on="0"/>
        <pt x="474" y="632" on="0"/>
        <pt x="474" y="525" on="1"/>
        <pt x="474" y="513" on="1"/>
        <pt x="474" y="406" on="0"/>
        <pt x="367" y="306" on="0"/>
        <pt x="278" y="306" on="1"/>
        <pt x="119" y="306" on="1"/>
        <pt x="119" y="18" on="1"/>
        <pt x="119" y="0" on="0"/>
        <pt x="83" y="0" on="0"/>
      </contour>
      <contour>
        <pt x="278" y="695" on="1"/>
        <pt x="119" y="695" on="1"/>
        <pt x="119" y="342" on="1"/>
        <pt x="278" y="342" on="1"/>
        <pt x="355" y="342" on="0"/>
        <pt x="438" y="428" on="0"/>
        <pt x="438" y="513" on="1"/>
        <pt x="438" y="525" on="1"/>
        <pt x="438" y="610" on="0"/>
        <pt x="355" y="695" on="0"/>
      </contour>
    </TTGlyph>
    <TTGlyph name="Q" xMin="70" yMin="-109" xMax="461" yMax="731">
      <contour>
        <pt x="248" y="-91" on="1"/>
        <pt x="248" y="-5" on="1"/>
        <pt x="166" y="-1" on="0"/>
        <pt x="70" y="98" on="0"/>
        <pt x="70" y="200" on="1"/>
        <pt x="70" y="525" on="1"/>
        <pt x="70" y="632" on="0"/>
        <pt x="176" y="731" on="0"/>
        <pt x="354" y="731" on="0"/>
        <pt x="461" y="632" on="0"/>
        <pt x="461" y="525" on="1"/>
        <pt x="461" y="200" on="1"/>
        <pt x="461" y="99" on="0"/>
        <pt x="365" y="-1" on="0"/>
        <pt x="284" y="-5" on="1"/>
        <pt x="284" y="-91" on="1"/>
        <pt x="284" y="-109" on="0"/>
        <pt x="248" y="-109" on="0"/>
      </contour>
      <contour>
        <pt x="425" y="200" on="1"/>
        <pt x="425" y="525" on="1"/>
        <pt x="425" y="610" on="0"/>
        <pt x="342" y="695" on="0"/>
        <pt x="188" y="695" on="0"/>
        <pt x="106" y="610" on="0"/>
        <pt x="106" y="525" on="1"/>
        <pt x="106" y="200" on="1"/>
        <pt x="106" y="39" on="0"/>
        <pt x="248" y="30" on="1"/>
        <pt x="248" y="114" on="1"/>
        <pt x="248" y="131" on="0"/>
        <pt x="284" y="131" on="0"/>
        <pt x="284" y="114" on="1"/>
        <pt x="284" y="31" on="1"/>
        <pt x="425" y="41" on="0"/>
      </contour>
    </TTGlyph>
    <TTGlyph name="R" xMin="83" yMin="0" xMax="474" yMax="731">
      <contour>
        <pt x="83" y="18" on="1"/>
        <pt x="83" y="714" on="1"/>
        <pt x="83" y="729" on="0"/>
        <pt x="101" y="731" on="1"/>
        <pt x="268" y="731" on="1"/>
        <pt x="360" y="731" on="0"/>
        <pt x="474" y="641" on="0"/>
        <pt x="474" y="540" on="1"/>
        <pt x="474" y="370" on="0"/>
        <pt x="306" y="350" on="1"/>
        <pt x="471" y="29" on="1"/>
        <pt x="474" y="23" on="0"/>
        <pt x="474" y="18" on="1"/>
        <pt x="474" y="10" on="0"/>
        <pt x="464" y="0" on="0"/>
        <pt x="456" y="0" on="1"/>
        <pt x="452" y="0" on="0"/>
        <pt x="445" y="4" on="0"/>
        <pt x="438" y="14" on="0"/>
        <pt x="436" y="17" on="1"/>
        <pt x="432" y="28" on="1"/>
        <pt x="428" y="35" on="0"/>
        <pt x="427" y="36" on="1"/>
        <pt x="267" y="348" on="1"/>
        <pt x="119" y="348" on="1"/>
        <pt x="119" y="18" on="1"/>
        <pt x="119" y="0" on="0"/>
        <pt x="83" y="0" on="0"/>
      </contour>
      <contour>
        <pt x="268" y="695" on="1"/>
        <pt x="119" y="695" on="1"/>
        <pt x="119" y="384" on="1"/>
        <pt x="268" y="384" on="1"/>
        <pt x="347" y="384" on="0"/>
        <pt x="438" y="460" on="0"/>
        <pt x="438" y="620" on="0"/>
        <pt x="347" y="695" on="0"/>
      </contour>
    </TTGlyph>
    <TTGlyph name="Racute" xMin="83" yMin="0" xMax="474" yMax="953">
      <component glyphName="R" x="0" y="0" flags="0x204"/>
      <component glyphName="acute" x="212" y="259" flags="0x4"/>
    </TTGlyph>
    <TTGlyph name="Rcaron" xMin="83" yMin="0" xMax="474" yMax="981">
      <contour>
        <pt x="83" y="18" on="1"/>
        <pt x="83" y="714" on="1"/>
        <pt x="83" y="729" on="0"/>
        <pt x="101" y="731" on="1"/>
        <pt x="268" y="731" on="1"/>
        <pt x="360" y="731" on="0"/>
        <pt x="474" y="641" on="0"/>
        <pt x="474" y="540" on="1"/>
        <pt x="474" y="370" on="0"/>
        <pt x="306" y="350" on="1"/>
        <pt x="471" y="29" on="1"/>
        <pt x="474" y="23" on="0"/>
        <pt x="474" y="18" on="1"/>
        <pt x="474" y="10" on="0"/>
        <pt x="464" y="0" on="0"/>
        <pt x="456" y="0" on="1"/>
        <pt x="452" y="0" on="0"/>
        <pt x="445" y="4" on="0"/>
        <pt x="438" y="14" on="0"/>
        <pt x="436" y="17" on="1"/>
        <pt x="432" y="28" on="1"/>
        <pt x="428" y="36" on="0"/>
        <pt x="427" y="36" on="1"/>
        <pt x="267" y="348" on="1"/>
        <pt x="119" y="348" on="1"/>
        <pt x="119" y="18" on="1"/>
        <pt x="119" y="0" on="0"/>
        <pt x="83" y="0" on="0"/>
      </contour>
      <contour>
        <pt x="268" y="695" on="1"/>
        <pt x="119" y="695" on="1"/>
        <pt x="119" y="384" on="1"/>
        <pt x="268" y="384" on="1"/>
        <pt x="347" y="384" on="0"/>
        <pt x="438" y="460" on="0"/>
        <pt x="438" y="620" on="0"/>
        <pt x="347" y="695" on="0"/>
      </contour>
      <contour>
        <pt x="256" y="849" on="1"/>
        <pt x="146" y="950" on="1"/>
        <pt x="137" y="959" on="0"/>
        <pt x="137" y="967" on="1"/>
        <pt x="137" y="981" on="0"/>
        <pt x="151" y="981" on="1"/>
        <pt x="161" y="981" on="0"/>
        <pt x="169" y="973" on="1"/>
        <pt x="277" y="873" on="1"/>
        <pt x="385" y="973" on="1"/>
        <pt x="393" y="981" on="0"/>
        <pt x="403" y="981" on="1"/>
        <pt x="417" y="981" on="0"/>
        <pt x="417" y="967" on="1"/>
        <pt x="417" y="959" on="0"/>
        <pt x="408" y="950" on="1"/>
        <pt x="298" y="849" on="1"/>
        <pt x="287" y="840" on="0"/>
        <pt x="267" y="840" on="0"/>
      </contour>
    </TTGlyph>
    <TTGlyph name="S" xMin="45" yMin="-6" xMax="436" yMax="731">
      <contour>
        <pt x="400" y="192" on="1"/>
        <pt x="400" y="240" on="0"/>
        <pt x="363" y="311" on="0"/>
        <pt x="303" y="351" on="0"/>
        <pt x="268" y="366" on="1"/>
        <pt x="196" y="396" on="1"/>
        <pt x="160" y="411" on="0"/>
        <pt x="100" y="447" on="0"/>
        <pt x="63" y="510" on="0"/>
        <pt x="63" y="554" on="1"/>
        <pt x="63" y="607" on="0"/>
        <pt x="97" y="682" on="0"/>
        <pt x="153" y="717" on="0"/>
        <pt x="208" y="731" on="0"/>
        <pt x="239" y="731" on="1"/>
        <pt x="327" y="731" on="0"/>
        <pt x="418" y="637" on="0"/>
        <pt x="418" y="566" on="1"/>
        <pt x="418" y="546" on="0"/>
        <pt x="400" y="546" on="1"/>
        <pt x="380" y="546" on="0"/>
        <pt x="380" y="576" on="1"/>
        <pt x="380" y="595" on="0"/>
        <pt x="369" y="631" on="0"/>
        <pt x="343" y="671" on="0"/>
        <pt x="284" y="695" on="0"/>
        <pt x="242" y="695" on="1"/>
        <pt x="216" y="695" on="0"/>
        <pt x="171" y="683" on="0"/>
        <pt x="126" y="654" on="0"/>
        <pt x="99" y="595" on="0"/>
        <pt x="99" y="554" on="1"/>
        <pt x="99" y="518" on="0"/>
        <pt x="136" y="466" on="0"/>
        <pt x="196" y="434" on="0"/>
        <pt x="268" y="407" on="0"/>
        <pt x="339" y="373" on="0"/>
        <pt x="399" y="329" on="0"/>
        <pt x="436" y="252" on="0"/>
        <pt x="436" y="200" on="1"/>
        <pt x="436" y="93" on="0"/>
        <pt x="330" y="-6" on="0"/>
        <pt x="242" y="-6" on="1"/>
        <pt x="155" y="-6" on="0"/>
        <pt x="45" y="89" on="0"/>
        <pt x="45" y="159" on="1"/>
        <pt x="45" y="179" on="0"/>
        <pt x="64" y="179" on="1"/>
        <pt x="77" y="179" on="0"/>
        <pt x="81" y="161" on="1"/>
        <pt x="87" y="135" on="0"/>
        <pt x="99" y="102" on="0"/>
        <pt x="131" y="55" on="0"/>
        <pt x="192" y="30" on="0"/>
        <pt x="236" y="30" on="1"/>
        <pt x="315" y="30" on="0"/>
        <pt x="400" y="113" on="0"/>
      </contour>
    </TTGlyph>
    <TTGlyph name="Sacute" xMin="45" yMin="-6" xMax="436" yMax="953">
      <contour>
        <pt x="400" y="192" on="1"/>
        <pt x="400" y="240" on="0"/>
        <pt x="363" y="311" on="0"/>
        <pt x="333" y="331" on="1"/>
        <pt x="304" y="350" on="0"/>
        <pt x="268" y="366" on="1"/>
        <pt x="196" y="396" on="1"/>
        <pt x="160" y="410" on="0"/>
        <pt x="100" y="447" on="0"/>
        <pt x="63" y="510" on="0"/>
        <pt x="63" y="554" on="1"/>
        <pt x="63" y="607" on="0"/>
        <pt x="97" y="682" on="0"/>
        <pt x="153" y="717" on="0"/>
        <pt x="208" y="731" on="0"/>
        <pt x="239" y="731" on="1"/>
        <pt x="327" y="731" on="0"/>
        <pt x="418" y="637" on="0"/>
        <pt x="418" y="566" on="1"/>
        <pt x="418" y="546" on="0"/>
        <pt x="400" y="546" on="1"/>
        <pt x="380" y="546" on="0"/>
        <pt x="380" y="576" on="1"/>
        <pt x="380" y="595" on="0"/>
        <pt x="369" y="631" on="0"/>
        <pt x="343" y="671" on="0"/>
        <pt x="284" y="695" on="0"/>
        <pt x="242" y="695" on="1"/>
        <pt x="216" y="695" on="0"/>
        <pt x="171" y="683" on="0"/>
        <pt x="126" y="654" on="0"/>
        <pt x="99" y="595" on="0"/>
        <pt x="99" y="554" on="1"/>
        <pt x="99" y="518" on="0"/>
        <pt x="136" y="466" on="0"/>
        <pt x="196" y="434" on="0"/>
        <pt x="268" y="407" on="0"/>
        <pt x="339" y="373" on="0"/>
        <pt x="399" y="329" on="0"/>
        <pt x="436" y="252" on="0"/>
        <pt x="436" y="200" on="1"/>
        <pt x="436" y="93" on="0"/>
        <pt x="330" y="-6" on="0"/>
        <pt x="242" y="-6" on="1"/>
        <pt x="155" y="-6" on="0"/>
        <pt x="45" y="89" on="0"/>
        <pt x="45" y="159" on="1"/>
        <pt x="45" y="179" on="0"/>
        <pt x="64" y="179" on="1"/>
        <pt x="77" y="179" on="0"/>
        <pt x="81" y="161" on="1"/>
        <pt x="87" y="135" on="0"/>
        <pt x="99" y="102" on="0"/>
        <pt x="131" y="55" on="0"/>
        <pt x="192" y="30" on="0"/>
        <pt x="236" y="30" on="1"/>
        <pt x="315" y="30" on="0"/>
        <pt x="400" y="113" on="0"/>
      </contour>
      <contour>
        <pt x="297" y="917" on="1"/>
        <pt x="202" y="863" on="1"/>
        <pt x="198" y="860" on="0"/>
        <pt x="193" y="860" on="1"/>
        <pt x="185" y="860" on="0"/>
        <pt x="174" y="871" on="0"/>
        <pt x="174" y="878" on="1"/>
        <pt x="174" y="887" on="0"/>
        <pt x="182" y="891" on="1"/>
        <pt x="284" y="951" on="1"/>
        <pt x="288" y="953" on="0"/>
        <pt x="291" y="953" on="1"/>
        <pt x="307" y="953" on="0"/>
        <pt x="307" y="935" on="1"/>
        <pt x="307" y="923" on="0"/>
      </contour>
    </TTGlyph>
    <TTGlyph name="Scaron" xMin="45" yMin="-6" xMax="436" yMax="981">
      <contour>
        <pt x="400" y="192" on="1"/>
        <pt x="400" y="240" on="0"/>
        <pt x="363" y="311" on="0"/>
        <pt x="333" y="331" on="1"/>
        <pt x="304" y="350" on="0"/>
        <pt x="268" y="366" on="1"/>
        <pt x="196" y="396" on="1"/>
        <pt x="160" y="410" on="0"/>
        <pt x="100" y="447" on="0"/>
        <pt x="63" y="510" on="0"/>
        <pt x="63" y="554" on="1"/>
        <pt x="63" y="607" on="0"/>
        <pt x="97" y="682" on="0"/>
        <pt x="153" y="717" on="0"/>
        <pt x="208" y="731" on="0"/>
        <pt x="239" y="731" on="1"/>
        <pt x="327" y="731" on="0"/>
        <pt x="418" y="637" on="0"/>
        <pt x="418" y="566" on="1"/>
        <pt x="418" y="546" on="0"/>
        <pt x="400" y="546" on="1"/>
        <pt x="380" y="546" on="0"/>
        <pt x="380" y="576" on="1"/>
        <pt x="380" y="595" on="0"/>
        <pt x="369" y="631" on="0"/>
        <pt x="343" y="671" on="0"/>
        <pt x="284" y="695" on="0"/>
        <pt x="242" y="695" on="1"/>
        <pt x="216" y="695" on="0"/>
        <pt x="171" y="683" on="0"/>
        <pt x="126" y="654" on="0"/>
        <pt x="99" y="595" on="0"/>
        <pt x="99" y="554" on="1"/>
        <pt x="99" y="518" on="0"/>
        <pt x="136" y="466" on="0"/>
        <pt x="196" y="434" on="0"/>
        <pt x="268" y="407" on="0"/>
        <pt x="339" y="373" on="0"/>
        <pt x="399" y="329" on="0"/>
        <pt x="436" y="252" on="0"/>
        <pt x="436" y="200" on="1"/>
        <pt x="436" y="93" on="0"/>
        <pt x="330" y="-6" on="0"/>
        <pt x="242" y="-6" on="1"/>
        <pt x="155" y="-6" on="0"/>
        <pt x="45" y="89" on="0"/>
        <pt x="45" y="159" on="1"/>
        <pt x="45" y="179" on="0"/>
        <pt x="64" y="179" on="1"/>
        <pt x="77" y="179" on="0"/>
        <pt x="81" y="161" on="1"/>
        <pt x="87" y="135" on="0"/>
        <pt x="99" y="102" on="0"/>
        <pt x="131" y="55" on="0"/>
        <pt x="192" y="30" on="0"/>
        <pt x="236" y="30" on="1"/>
        <pt x="315" y="30" on="0"/>
        <pt x="400" y="113" on="0"/>
      </contour>
      <contour>
        <pt x="218" y="849" on="1"/>
        <pt x="108" y="950" on="1"/>
        <pt x="99" y="959" on="0"/>
        <pt x="99" y="967" on="1"/>
        <pt x="99" y="981" on="0"/>
        <pt x="113" y="981" on="1"/>
        <pt x="123" y="981" on="0"/>
        <pt x="131" y="973" on="1"/>
        <pt x="239" y="873" on="1"/>
        <pt x="347" y="973" on="1"/>
        <pt x="355" y="981" on="0"/>
        <pt x="365" y="981" on="1"/>
        <pt x="379" y="981" on="0"/>
        <pt x="379" y="967" on="1"/>
        <pt x="379" y="959" on="0"/>
        <pt x="370" y="950" on="1"/>
        <pt x="260" y="849" on="1"/>
        <pt x="249" y="840" on="0"/>
        <pt x="229" y="840" on="0"/>
      </contour>
    </TTGlyph>
    <TTGlyph name="Scedilla" xMin="45" yMin="-209" xMax="436" yMax="731">
      <component glyphName="S" x="0" y="0" flags="0x204"/>
      <component glyphName="cedilla" x="212" y="0" flags="0x4"/>
    </TTGlyph>
    <TTGlyph name="Scircumflex" xMin="45" yMin="-6" xMax="436" yMax="953">
      <component glyphName="S" x="0" y="0" flags="0x204"/>
      <component glyphName="circumflex" x="110" y="259" flags="0x4"/>
    </TTGlyph>
    <TTGlyph name="T" xMin="20" yMin="0" xMax="447" yMax="731">
      <contour>
        <pt x="216" y="695" on="1"/>
        <pt x="38" y="695" on="1"/>
        <pt x="30" y="695" on="0"/>
        <pt x="20" y="706" on="0"/>
        <pt x="20" y="720" on="0"/>
        <pt x="30" y="731" on="0"/>
        <pt x="38" y="731" on="1"/>
        <pt x="429" y="731" on="1"/>
        <pt x="447" y="731" on="0"/>
        <pt x="447" y="714" on="1"/>
        <pt x="447" y="695" on="0"/>
        <pt x="429" y="695" on="1"/>
        <pt x="252" y="695" on="1"/>
        <pt x="252" y="18" on="1"/>
        <pt x="252" y="0" on="0"/>
        <pt x="216" y="0" on="0"/>
        <pt x="216" y="18" on="1"/>
      </contour>
    </TTGlyph>
    <TTGlyph name="Tcaron" xMin="20" yMin="0" xMax="447" yMax="981">
      <component glyphName="T" x="0" y="0" flags="0x204"/>
      <component glyphName="caron" x="92" y="259" flags="0x4"/>
    </TTGlyph>
    <TTGlyph name="Thorn" xMin="83" yMin="0" xMax="432" yMax="731">
      <contour>
        <pt x="83" y="18" on="1"/>
        <pt x="83" y="715" on="1"/>
        <pt x="83" y="731" on="0"/>
        <pt x="100" y="731" on="1"/>
        <pt x="118" y="731" on="0"/>
        <pt x="118" y="714" on="1"/>
        <pt x="118" y="542" on="1"/>
        <pt x="161" y="618" on="0"/>
        <pt x="261" y="618" on="1"/>
        <pt x="331" y="618" on="0"/>
        <pt x="432" y="541" on="0"/>
        <pt x="432" y="473" on="1"/>
        <pt x="432" y="281" on="1"/>
        <pt x="432" y="213" on="0"/>
        <pt x="331" y="134" on="0"/>
        <pt x="266" y="134" on="1"/>
        <pt x="217" y="134" on="0"/>
        <pt x="130" y="178" on="0"/>
        <pt x="118" y="212" on="1"/>
        <pt x="118" y="18" on="1"/>
        <pt x="118" y="11" on="0"/>
        <pt x="108" y="0" on="0"/>
        <pt x="94" y="0" on="0"/>
        <pt x="83" y="11" on="0"/>
      </contour>
      <contour>
        <pt x="263" y="169" on="1"/>
        <pt x="317" y="169" on="0"/>
        <pt x="397" y="227" on="0"/>
        <pt x="397" y="281" on="1"/>
        <pt x="397" y="473" on="1"/>
        <pt x="397" y="526" on="0"/>
        <pt x="318" y="583" on="0"/>
        <pt x="263" y="583" on="1"/>
        <pt x="204" y="583" on="0"/>
        <pt x="118" y="521" on="0"/>
        <pt x="118" y="473" on="1"/>
        <pt x="118" y="281" on="1"/>
        <pt x="118" y="239" on="0"/>
        <pt x="202" y="169" on="0"/>
      </contour>
    </TTGlyph>
    <TTGlyph name="U" xMin="78" yMin="-6" xMax="469" yMax="731">
      <contour>
        <pt x="78" y="200" on="1"/>
        <pt x="78" y="714" on="1"/>
        <pt x="78" y="731" on="0"/>
        <pt x="114" y="731" on="0"/>
        <pt x="114" y="714" on="1"/>
        <pt x="114" y="200" on="1"/>
        <pt x="114" y="115" on="0"/>
        <pt x="196" y="30" on="0"/>
        <pt x="350" y="30" on="0"/>
        <pt x="433" y="115" on="0"/>
        <pt x="433" y="200" on="1"/>
        <pt x="433" y="714" on="1"/>
        <pt x="433" y="731" on="0"/>
        <pt x="469" y="731" on="0"/>
        <pt x="469" y="714" on="1"/>
        <pt x="469" y="200" on="1"/>
        <pt x="469" y="93" on="0"/>
        <pt x="362" y="-6" on="0"/>
        <pt x="184" y="-6" on="0"/>
        <pt x="78" y="93" on="0"/>
      </contour>
    </TTGlyph>
    <TTGlyph name="Uacute" xMin="78" yMin="-6" xMax="469" yMax="953">
      <component glyphName="U" x="0" y="0" flags="0x204"/>
      <component glyphName="acute" x="207" y="259" flags="0x4"/>
    </TTGlyph>
    <TTGlyph name="Ubreve" xMin="78" yMin="-6" xMax="469" yMax="951">
      <contour>
        <pt x="78" y="200" on="1"/>
        <pt x="78" y="714" on="1"/>
        <pt x="78" y="731" on="0"/>
        <pt x="114" y="731" on="0"/>
        <pt x="114" y="714" on="1"/>
        <pt x="114" y="200" on="1"/>
        <pt x="114" y="115" on="0"/>
        <pt x="196" y="30" on="0"/>
        <pt x="350" y="30" on="0"/>
        <pt x="433" y="115" on="0"/>
        <pt x="433" y="200" on="1"/>
        <pt x="433" y="714" on="1"/>
        <pt x="433" y="731" on="0"/>
        <pt x="469" y="731" on="0"/>
        <pt x="469" y="714" on="1"/>
        <pt x="469" y="200" on="1"/>
        <pt x="469" y="93" on="0"/>
        <pt x="362" y="-6" on="0"/>
        <pt x="184" y="-6" on="0"/>
        <pt x="78" y="93" on="0"/>
      </contour>
      <contour>
        <pt x="349" y="951" on="1"/>
        <pt x="382" y="951" on="1"/>
        <pt x="382" y="914" on="0"/>
        <pt x="316" y="860" on="0"/>
        <pt x="273" y="860" on="1"/>
        <pt x="229" y="860" on="0"/>
        <pt x="164" y="914" on="0"/>
        <pt x="164" y="951" on="1"/>
        <pt x="196" y="951" on="1"/>
        <pt x="196" y="924" on="0"/>
        <pt x="241" y="886" on="0"/>
        <pt x="273" y="886" on="1"/>
        <pt x="304" y="886" on="0"/>
        <pt x="349" y="924" on="0"/>
      </contour>
    </TTGlyph>
    <TTGlyph name="Ucircumflex" xMin="78" yMin="-6" xMax="469" yMax="953">
      <component glyphName="U" x="0" y="0" flags="0x204"/>
      <component glyphName="circumflex" x="143" y="259" flags="0x4"/>
    </TTGlyph>
    <TTGlyph name="Udieresis" xMin="78" yMin="-6" xMax="469" yMax="962">
      <contour>
        <pt x="78" y="200" on="1"/>
        <pt x="78" y="714" on="1"/>
        <pt x="78" y="731" on="0"/>
        <pt x="114" y="731" on="0"/>
        <pt x="114" y="714" on="1"/>
        <pt x="114" y="200" on="1"/>
        <pt x="114" y="115" on="0"/>
        <pt x="196" y="30" on="0"/>
        <pt x="350" y="30" on="0"/>
        <pt x="433" y="115" on="0"/>
        <pt x="433" y="200" on="1"/>
        <pt x="433" y="714" on="1"/>
        <pt x="433" y="731" on="0"/>
        <pt x="469" y="731" on="0"/>
        <pt x="469" y="714" on="1"/>
        <pt x="469" y="200" on="1"/>
        <pt x="469" y="93" on="0"/>
        <pt x="362" y="-6" on="0"/>
        <pt x="184" y="-6" on="0"/>
        <pt x="78" y="93" on="0"/>
      </contour>
      <contour>
        <pt x="232" y="962" on="1"/>
        <pt x="242" y="962" on="0"/>
        <pt x="258" y="936" on="0"/>
        <pt x="258" y="902" on="0"/>
        <pt x="242" y="876" on="0"/>
        <pt x="232" y="876" on="1"/>
        <pt x="221" y="876" on="0"/>
        <pt x="205" y="902" on="0"/>
        <pt x="205" y="936" on="0"/>
        <pt x="221" y="962" on="0"/>
      </contour>
      <contour>
        <pt x="315" y="962" on="1"/>
        <pt x="325" y="962" on="0"/>
        <pt x="341" y="936" on="0"/>
        <pt x="341" y="902" on="0"/>
        <pt x="325" y="876" on="0"/>
        <pt x="315" y="876" on="1"/>
        <pt x="304" y="876" on="0"/>
        <pt x="288" y="902" on="0"/>
        <pt x="288" y="936" on="0"/>
        <pt x="304" y="962" on="0"/>
      </contour>
    </TTGlyph>
    <TTGlyph name="Ugrave" xMin="78" yMin="-6" xMax="469" yMax="953">
      <component glyphName="U" x="0" y="0" flags="0x204"/>
      <component glyphName="grave" x="207" y="259" flags="0x4"/>
    </TTGlyph>
    <TTGlyph name="Uhungarumlaut" xMin="78" yMin="-6" xMax="469" yMax="953">
      <contour>
        <pt x="78" y="200" on="1"/>
        <pt x="78" y="714" on="1"/>
        <pt x="78" y="731" on="0"/>
        <pt x="114" y="731" on="0"/>
        <pt x="114" y="714" on="1"/>
        <pt x="114" y="200" on="1"/>
        <pt x="114" y="115" on="0"/>
        <pt x="196" y="30" on="0"/>
        <pt x="350" y="30" on="0"/>
        <pt x="433" y="115" on="0"/>
        <pt x="433" y="200" on="1"/>
        <pt x="433" y="714" on="1"/>
        <pt x="433" y="731" on="0"/>
        <pt x="469" y="731" on="0"/>
        <pt x="469" y="714" on="1"/>
        <pt x="469" y="200" on="1"/>
        <pt x="469" y="93" on="0"/>
        <pt x="362" y="-6" on="0"/>
        <pt x="184" y="-6" on="0"/>
        <pt x="78" y="93" on="0"/>
      </contour>
      <contour>
        <pt x="307" y="917" on="1"/>
        <pt x="212" y="863" on="1"/>
        <pt x="208" y="860" on="0"/>
        <pt x="203" y="860" on="1"/>
        <pt x="195" y="860" on="0"/>
        <pt x="184" y="871" on="0"/>
        <pt x="184" y="878" on="1"/>
        <pt x="184" y="887" on="0"/>
        <pt x="192" y="891" on="1"/>
        <pt x="294" y="951" on="1"/>
        <pt x="298" y="953" on="0"/>
        <pt x="301" y="953" on="1"/>
        <pt x="317" y="953" on="0"/>
        <pt x="317" y="935" on="1"/>
        <pt x="317" y="923" on="0"/>
      </contour>
      <contour>
        <pt x="454" y="917" on="1"/>
        <pt x="359" y="863" on="1"/>
        <pt x="354" y="860" on="0"/>
        <pt x="350" y="860" on="1"/>
        <pt x="342" y="860" on="0"/>
        <pt x="331" y="871" on="0"/>
        <pt x="331" y="878" on="1"/>
        <pt x="331" y="887" on="0"/>
        <pt x="339" y="891" on="1"/>
        <pt x="441" y="951" on="1"/>
        <pt x="445" y="953" on="0"/>
        <pt x="448" y="953" on="1"/>
        <pt x="464" y="953" on="0"/>
        <pt x="464" y="935" on="1"/>
        <pt x="464" y="923" on="0"/>
      </contour>
    </TTGlyph>
    <TTGlyph name="Umacron" xMin="78" yMin="-6" xMax="469" yMax="932">
      <contour>
        <pt x="78" y="200" on="1"/>
        <pt x="78" y="714" on="1"/>
        <pt x="78" y="731" on="0"/>
        <pt x="114" y="731" on="0"/>
        <pt x="114" y="714" on="1"/>
        <pt x="114" y="200" on="1"/>
        <pt x="114" y="115" on="0"/>
        <pt x="196" y="30" on="0"/>
        <pt x="350" y="30" on="0"/>
        <pt x="433" y="115" on="0"/>
        <pt x="433" y="200" on="1"/>
        <pt x="433" y="714" on="1"/>
        <pt x="433" y="731" on="0"/>
        <pt x="469" y="731" on="0"/>
        <pt x="469" y="714" on="1"/>
        <pt x="469" y="200" on="1"/>
        <pt x="469" y="93" on="0"/>
        <pt x="362" y="-6" on="0"/>
        <pt x="184" y="-6" on="0"/>
        <pt x="78" y="93" on="0"/>
      </contour>
      <contour>
        <pt x="146" y="914" on="1"/>
        <pt x="146" y="932" on="0"/>
        <pt x="163" y="932" on="1"/>
        <pt x="383" y="932" on="1"/>
        <pt x="390" y="932" on="0"/>
        <pt x="401" y="921" on="0"/>
        <pt x="401" y="907" on="0"/>
        <pt x="390" y="897" on="0"/>
        <pt x="383" y="897" on="1"/>
        <pt x="163" y="897" on="1"/>
        <pt x="146" y="897" on="0"/>
      </contour>
    </TTGlyph>
    <TTGlyph name="Uogonek" xMin="78" yMin="-124" xMax="469" yMax="731">
      <contour>
        <pt x="78" y="200" on="1"/>
        <pt x="78" y="714" on="1"/>
        <pt x="78" y="731" on="0"/>
        <pt x="114" y="731" on="0"/>
        <pt x="114" y="714" on="1"/>
        <pt x="114" y="200" on="1"/>
        <pt x="114" y="115" on="0"/>
        <pt x="196" y="30" on="0"/>
        <pt x="350" y="30" on="0"/>
        <pt x="433" y="115" on="0"/>
        <pt x="433" y="200" on="1"/>
        <pt x="433" y="714" on="1"/>
        <pt x="433" y="731" on="0"/>
        <pt x="469" y="731" on="0"/>
        <pt x="469" y="714" on="1"/>
        <pt x="469" y="200" on="1"/>
        <pt x="469" y="93" on="0"/>
        <pt x="362" y="-6" on="0"/>
        <pt x="184" y="-6" on="0"/>
        <pt x="78" y="93" on="0"/>
      </contour>
      <contour>
        <pt x="394" y="-98" on="1"/>
        <pt x="412" y="-98" on="0"/>
        <pt x="412" y="-124" on="0"/>
        <pt x="389" y="-124" on="1"/>
        <pt x="355" y="-124" on="0"/>
        <pt x="302" y="-93" on="0"/>
        <pt x="302" y="-57" on="1"/>
        <pt x="302" y="-2" on="0"/>
        <pt x="377" y="49" on="1"/>
        <pt x="403" y="33" on="1"/>
        <pt x="367" y="9" on="0"/>
        <pt x="331" y="-30" on="0"/>
        <pt x="331" y="-55" on="1"/>
        <pt x="331" y="-98" on="0"/>
      </contour>
    </TTGlyph>
    <TTGlyph name="Uring" xMin="78" yMin="-6" xMax="469" yMax="1027">
      <contour>
        <pt x="78" y="200" on="1"/>
        <pt x="78" y="714" on="1"/>
        <pt x="78" y="731" on="0"/>
        <pt x="114" y="731" on="0"/>
        <pt x="114" y="714" on="1"/>
        <pt x="114" y="200" on="1"/>
        <pt x="114" y="115" on="0"/>
        <pt x="196" y="30" on="0"/>
        <pt x="350" y="30" on="0"/>
        <pt x="433" y="115" on="0"/>
        <pt x="433" y="200" on="1"/>
        <pt x="433" y="714" on="1"/>
        <pt x="433" y="731" on="0"/>
        <pt x="469" y="731" on="0"/>
        <pt x="469" y="714" on="1"/>
        <pt x="469" y="200" on="1"/>
        <pt x="469" y="93" on="0"/>
        <pt x="362" y="-6" on="0"/>
        <pt x="184" y="-6" on="0"/>
        <pt x="78" y="93" on="0"/>
      </contour>
      <contour>
        <pt x="273" y="1027" on="1"/>
        <pt x="305" y="1027" on="0"/>
        <pt x="355" y="977" on="0"/>
        <pt x="355" y="944" on="1"/>
        <pt x="355" y="910" on="0"/>
        <pt x="305" y="859" on="0"/>
        <pt x="273" y="859" on="1"/>
        <pt x="240" y="859" on="0"/>
        <pt x="191" y="910" on="0"/>
        <pt x="191" y="944" on="1"/>
        <pt x="191" y="977" on="0"/>
        <pt x="239" y="1027" on="0"/>
      </contour>
      <contour>
        <pt x="325" y="944" on="1"/>
        <pt x="325" y="963" on="0"/>
        <pt x="294" y="996" on="0"/>
        <pt x="273" y="996" on="1"/>
        <pt x="251" y="996" on="0"/>
        <pt x="220" y="964" on="0"/>
        <pt x="220" y="944" on="1"/>
        <pt x="220" y="922" on="0"/>
        <pt x="251" y="888" on="0"/>
        <pt x="273" y="888" on="1"/>
        <pt x="294" y="888" on="0"/>
        <pt x="325" y="922" on="0"/>
      </contour>
    </TTGlyph>
    <TTGlyph name="Utilde" xMin="78" yMin="-6" xMax="469" yMax="949">
      <component glyphName="U" x="0" y="0" flags="0x204"/>
      <component glyphName="tilde" x="126" y="259" flags="0x4"/>
    </TTGlyph>
    <TTGlyph name="V" xMin="27" yMin="-6" xMax="458" yMax="731">
      <contour>
        <pt x="63" y="718" on="1"/>
        <pt x="243" y="70" on="1"/>
        <pt x="422" y="718" on="1"/>
        <pt x="425" y="731" on="0"/>
        <pt x="441" y="731" on="1"/>
        <pt x="458" y="731" on="0"/>
        <pt x="458" y="715" on="1"/>
        <pt x="458" y="712" on="0"/>
        <pt x="457" y="709" on="1"/>
        <pt x="262" y="8" on="1"/>
        <pt x="257" y="-6" on="0"/>
        <pt x="243" y="-6" on="1"/>
        <pt x="228" y="-6" on="0"/>
        <pt x="225" y="8" on="1"/>
        <pt x="28" y="709" on="1"/>
        <pt x="27" y="712" on="0"/>
        <pt x="27" y="715" on="1"/>
        <pt x="27" y="731" on="0"/>
        <pt x="44" y="731" on="1"/>
        <pt x="60" y="731" on="0"/>
      </contour>
    </TTGlyph>
    <TTGlyph name="W" xMin="27" yMin="-6" xMax="714" yMax="731">
      <contour>
        <pt x="243" y="70" on="1"/>
        <pt x="349" y="455" on="1"/>
        <pt x="354" y="472" on="0"/>
        <pt x="371" y="472" on="1"/>
        <pt x="386" y="472" on="0"/>
        <pt x="391" y="455" on="1"/>
        <pt x="499" y="70" on="1"/>
        <pt x="678" y="718" on="1"/>
        <pt x="681" y="731" on="0"/>
        <pt x="697" y="731" on="1"/>
        <pt x="714" y="731" on="0"/>
        <pt x="714" y="715" on="1"/>
        <pt x="714" y="712" on="0"/>
        <pt x="713" y="709" on="1"/>
        <pt x="518" y="8" on="1"/>
        <pt x="513" y="-6" on="0"/>
        <pt x="499" y="-6" on="1"/>
        <pt x="484" y="-6" on="0"/>
        <pt x="481" y="8" on="1"/>
        <pt x="371" y="400" on="1"/>
        <pt x="262" y="8" on="1"/>
        <pt x="257" y="-6" on="0"/>
        <pt x="243" y="-6" on="1"/>
        <pt x="228" y="-6" on="0"/>
        <pt x="225" y="8" on="1"/>
        <pt x="28" y="709" on="1"/>
        <pt x="27" y="712" on="0"/>
        <pt x="27" y="715" on="1"/>
        <pt x="27" y="731" on="0"/>
        <pt x="44" y="731" on="1"/>
        <pt x="60" y="731" on="0"/>
        <pt x="63" y="718" on="1"/>
      </contour>
    </TTGlyph>
    <TTGlyph name="Wacute" xMin="27" yMin="-6" xMax="714" yMax="953">
      <component glyphName="W" x="0" y="0" flags="0x204"/>
      <component glyphName="acute" x="304" y="259" flags="0x4"/>
    </TTGlyph>
    <TTGlyph name="Wcircumflex" xMin="27" yMin="-6" xMax="714" yMax="953">
      <contour>
        <pt x="243" y="70" on="1"/>
        <pt x="349" y="455" on="1"/>
        <pt x="354" y="472" on="0"/>
        <pt x="371" y="472" on="1"/>
        <pt x="386" y="472" on="0"/>
        <pt x="391" y="455" on="1"/>
        <pt x="499" y="70" on="1"/>
        <pt x="678" y="718" on="1"/>
        <pt x="681" y="731" on="0"/>
        <pt x="697" y="731" on="1"/>
        <pt x="714" y="731" on="0"/>
        <pt x="714" y="715" on="1"/>
        <pt x="714" y="712" on="0"/>
        <pt x="713" y="709" on="1"/>
        <pt x="518" y="8" on="1"/>
        <pt x="513" y="-6" on="0"/>
        <pt x="499" y="-6" on="1"/>
        <pt x="484" y="-6" on="0"/>
        <pt x="481" y="8" on="1"/>
        <pt x="371" y="400" on="1"/>
        <pt x="262" y="8" on="1"/>
        <pt x="257" y="-6" on="0"/>
        <pt x="243" y="-6" on="1"/>
        <pt x="228" y="-6" on="0"/>
        <pt x="225" y="8" on="1"/>
        <pt x="28" y="709" on="1"/>
        <pt x="27" y="712" on="0"/>
        <pt x="27" y="715" on="1"/>
        <pt x="27" y="731" on="0"/>
        <pt x="44" y="731" on="1"/>
        <pt x="60" y="731" on="0"/>
        <pt x="63" y="718" on="1"/>
      </contour>
      <contour>
        <pt x="370" y="918" on="1"/>
        <pt x="266" y="862" on="1"/>
        <pt x="265" y="862" on="0"/>
        <pt x="259" y="859" on="0"/>
        <pt x="258" y="859" on="1"/>
        <pt x="251" y="859" on="0"/>
        <pt x="240" y="870" on="0"/>
        <pt x="240" y="878" on="1"/>
        <pt x="240" y="888" on="0"/>
        <pt x="249" y="892" on="1"/>
        <pt x="353" y="948" on="1"/>
        <pt x="361" y="953" on="0"/>
        <pt x="379" y="953" on="0"/>
        <pt x="387" y="948" on="1"/>
        <pt x="491" y="893" on="1"/>
        <pt x="500" y="888" on="0"/>
        <pt x="500" y="876" on="1"/>
        <pt x="500" y="869" on="0"/>
        <pt x="490" y="860" on="0"/>
        <pt x="483" y="860" on="1"/>
        <pt x="474" y="863" on="1"/>
      </contour>
    </TTGlyph>
    <TTGlyph name="Wdieresis" xMin="27" yMin="-6" xMax="714" yMax="962">
      <component glyphName="W" x="0" y="0" flags="0x204"/>
      <component glyphName="dieresis" x="302" y="259" flags="0x4"/>
    </TTGlyph>
    <TTGlyph name="Wgrave" xMin="27" yMin="-6" xMax="714" yMax="953">
      <contour>
        <pt x="243" y="70" on="1"/>
        <pt x="349" y="455" on="1"/>
        <pt x="354" y="472" on="0"/>
        <pt x="371" y="472" on="1"/>
        <pt x="386" y="472" on="0"/>
        <pt x="391" y="455" on="1"/>
        <pt x="499" y="70" on="1"/>
        <pt x="678" y="718" on="1"/>
        <pt x="681" y="731" on="0"/>
        <pt x="697" y="731" on="1"/>
        <pt x="714" y="731" on="0"/>
        <pt x="714" y="715" on="1"/>
        <pt x="714" y="712" on="0"/>
        <pt x="713" y="709" on="1"/>
        <pt x="518" y="8" on="1"/>
        <pt x="513" y="-6" on="0"/>
        <pt x="499" y="-6" on="1"/>
        <pt x="484" y="-6" on="0"/>
        <pt x="481" y="8" on="1"/>
        <pt x="371" y="400" on="1"/>
        <pt x="262" y="8" on="1"/>
        <pt x="257" y="-6" on="0"/>
        <pt x="243" y="-6" on="1"/>
        <pt x="228" y="-6" on="0"/>
        <pt x="225" y="8" on="1"/>
        <pt x="28" y="709" on="1"/>
        <pt x="27" y="712" on="0"/>
        <pt x="27" y="715" on="1"/>
        <pt x="27" y="731" on="0"/>
        <pt x="44" y="731" on="1"/>
        <pt x="60" y="731" on="0"/>
        <pt x="63" y="718" on="1"/>
      </contour>
      <contour>
        <pt x="409" y="863" on="1"/>
        <pt x="314" y="917" on="1"/>
        <pt x="304" y="923" on="0"/>
        <pt x="304" y="935" on="1"/>
        <pt x="304" y="953" on="0"/>
        <pt x="320" y="953" on="1"/>
        <pt x="323" y="953" on="0"/>
        <pt x="327" y="951" on="1"/>
        <pt x="429" y="891" on="1"/>
        <pt x="437" y="887" on="0"/>
        <pt x="437" y="878" on="1"/>
        <pt x="437" y="871" on="0"/>
        <pt x="426" y="860" on="0"/>
        <pt x="418" y="860" on="1"/>
        <pt x="414" y="860" on="0"/>
      </contour>
    </TTGlyph>
    <TTGlyph name="X" xMin="28" yMin="0" xMax="419" yMax="731">
      <contour>
        <pt x="76" y="695" on="1"/>
        <pt x="223" y="405" on="1"/>
        <pt x="371" y="695" on="1"/>
        <pt x="389" y="731" on="0"/>
        <pt x="401" y="731" on="1"/>
        <pt x="419" y="731" on="0"/>
        <pt x="419" y="717" on="1"/>
        <pt x="419" y="710" on="0"/>
        <pt x="414" y="700" on="1"/>
        <pt x="243" y="366" on="1"/>
        <pt x="416" y="29" on="1"/>
        <pt x="419" y="23" on="0"/>
        <pt x="419" y="18" on="1"/>
        <pt x="419" y="10" on="0"/>
        <pt x="408" y="0" on="0"/>
        <pt x="401" y="0" on="1"/>
        <pt x="397" y="0" on="0"/>
        <pt x="390" y="4" on="0"/>
        <pt x="383" y="14" on="0"/>
        <pt x="382" y="17" on="1"/>
        <pt x="376" y="28" on="1"/>
        <pt x="373" y="35" on="0"/>
        <pt x="372" y="36" on="1"/>
        <pt x="223" y="327" on="1"/>
        <pt x="75" y="36" on="1"/>
        <pt x="74" y="35" on="0"/>
        <pt x="70" y="28" on="1"/>
        <pt x="66" y="17" on="1"/>
        <pt x="64" y="14" on="0"/>
        <pt x="57" y="4" on="0"/>
        <pt x="50" y="0" on="0"/>
        <pt x="46" y="0" on="1"/>
        <pt x="38" y="0" on="0"/>
        <pt x="28" y="10" on="0"/>
        <pt x="28" y="18" on="1"/>
        <pt x="28" y="23" on="0"/>
        <pt x="31" y="29" on="1"/>
        <pt x="203" y="366" on="1"/>
        <pt x="33" y="700" on="1"/>
        <pt x="28" y="710" on="0"/>
        <pt x="28" y="717" on="1"/>
        <pt x="28" y="731" on="0"/>
        <pt x="46" y="731" on="1"/>
        <pt x="58" y="731" on="0"/>
      </contour>
    </TTGlyph>
    <TTGlyph name="Y" xMin="23" yMin="0" xMax="487" yMax="731">
      <contour>
        <pt x="482" y="695" on="1"/>
        <pt x="274" y="279" on="1"/>
        <pt x="273" y="277" on="0"/>
        <pt x="273" y="273" on="1"/>
        <pt x="273" y="18" on="1"/>
        <pt x="273" y="0" on="0"/>
        <pt x="237" y="0" on="0"/>
        <pt x="237" y="18" on="1"/>
        <pt x="237" y="273" on="1"/>
        <pt x="237" y="277" on="0"/>
        <pt x="236" y="279" on="1"/>
        <pt x="29" y="695" on="1"/>
        <pt x="23" y="707" on="0"/>
        <pt x="23" y="715" on="1"/>
        <pt x="23" y="731" on="0"/>
        <pt x="36" y="731" on="1"/>
        <pt x="48" y="731" on="0"/>
        <pt x="56" y="714" on="1"/>
        <pt x="255" y="313" on="1"/>
        <pt x="455" y="714" on="1"/>
        <pt x="464" y="731" on="0"/>
        <pt x="475" y="731" on="1"/>
        <pt x="487" y="731" on="0"/>
        <pt x="487" y="715" on="1"/>
        <pt x="487" y="705" on="0"/>
      </contour>
    </TTGlyph>
    <TTGlyph name="Yacute" xMin="23" yMin="0" xMax="487" yMax="953">
      <component glyphName="Y" x="0" y="0" flags="0x204"/>
      <component glyphName="acute" x="188" y="259" flags="0x4"/>
    </TTGlyph>
    <TTGlyph name="Ycircumflex" xMin="23" yMin="0" xMax="487" yMax="953">
      <contour>
        <pt x="482" y="695" on="1"/>
        <pt x="274" y="279" on="1"/>
        <pt x="273" y="277" on="0"/>
        <pt x="273" y="273" on="1"/>
        <pt x="273" y="18" on="1"/>
        <pt x="273" y="0" on="0"/>
        <pt x="237" y="0" on="0"/>
        <pt x="237" y="18" on="1"/>
        <pt x="237" y="273" on="1"/>
        <pt x="237" y="277" on="0"/>
        <pt x="236" y="279" on="1"/>
        <pt x="29" y="695" on="1"/>
        <pt x="23" y="707" on="0"/>
        <pt x="23" y="715" on="1"/>
        <pt x="23" y="731" on="0"/>
        <pt x="36" y="731" on="1"/>
        <pt x="48" y="731" on="0"/>
        <pt x="56" y="714" on="1"/>
        <pt x="255" y="313" on="1"/>
        <pt x="455" y="714" on="1"/>
        <pt x="464" y="731" on="0"/>
        <pt x="475" y="731" on="1"/>
        <pt x="487" y="731" on="0"/>
        <pt x="487" y="715" on="1"/>
        <pt x="487" y="705" on="0"/>
      </contour>
      <contour>
        <pt x="255" y="918" on="1"/>
        <pt x="151" y="862" on="1"/>
        <pt x="150" y="862" on="0"/>
        <pt x="144" y="859" on="0"/>
        <pt x="143" y="859" on="1"/>
        <pt x="136" y="859" on="0"/>
        <pt x="125" y="870" on="0"/>
        <pt x="125" y="878" on="1"/>
        <pt x="125" y="888" on="0"/>
        <pt x="134" y="892" on="1"/>
        <pt x="238" y="948" on="1"/>
        <pt x="246" y="953" on="0"/>
        <pt x="264" y="953" on="0"/>
        <pt x="272" y="948" on="1"/>
        <pt x="376" y="893" on="1"/>
        <pt x="385" y="888" on="0"/>
        <pt x="385" y="876" on="1"/>
        <pt x="385" y="869" on="0"/>
        <pt x="375" y="860" on="0"/>
        <pt x="368" y="860" on="1"/>
        <pt x="359" y="863" on="1"/>
      </contour>
    </TTGlyph>
    <TTGlyph name="Ydieresis" xMin="23" yMin="0" xMax="487" yMax="962">
      <component glyphName="Y" x="0" y="0" flags="0x204"/>
      <component glyphName="dieresis" x="187" y="259" flags="0x4"/>
    </TTGlyph>
    <TTGlyph name="Z" xMin="32" yMin="0" xMax="423" yMax="731">
      <contour>
        <pt x="405" y="0" on="1"/>
        <pt x="50" y="0" on="1"/>
        <pt x="42" y="0" on="0"/>
        <pt x="32" y="10" on="0"/>
        <pt x="32" y="18" on="1"/>
        <pt x="32" y="23" on="0"/>
        <pt x="35" y="29" on="1"/>
        <pt x="375" y="695" on="1"/>
        <pt x="50" y="695" on="1"/>
        <pt x="32" y="695" on="0"/>
        <pt x="32" y="731" on="0"/>
        <pt x="50" y="731" on="1"/>
        <pt x="405" y="731" on="1"/>
        <pt x="423" y="731" on="0"/>
        <pt x="423" y="717" on="1"/>
        <pt x="423" y="710" on="0"/>
        <pt x="418" y="700" on="1"/>
        <pt x="79" y="36" on="1"/>
        <pt x="405" y="36" on="1"/>
        <pt x="423" y="36" on="0"/>
        <pt x="423" y="0" on="0"/>
      </contour>
    </TTGlyph>
    <TTGlyph name="Zacute" xMin="32" yMin="0" xMax="423" yMax="953">
      <component glyphName="Z" x="0" y="0" flags="0x204"/>
      <component glyphName="acute" x="161" y="259" flags="0x4"/>
    </TTGlyph>
    <TTGlyph name="Zcaron" xMin="32" yMin="0" xMax="423" yMax="981">
      <contour>
        <pt x="405" y="0" on="1"/>
        <pt x="50" y="0" on="1"/>
        <pt x="42" y="0" on="0"/>
        <pt x="32" y="10" on="0"/>
        <pt x="32" y="18" on="1"/>
        <pt x="32" y="23" on="0"/>
        <pt x="35" y="29" on="1"/>
        <pt x="375" y="695" on="1"/>
        <pt x="50" y="695" on="1"/>
        <pt x="32" y="695" on="0"/>
        <pt x="32" y="731" on="0"/>
        <pt x="50" y="731" on="1"/>
        <pt x="405" y="731" on="1"/>
        <pt x="423" y="731" on="0"/>
        <pt x="423" y="717" on="1"/>
        <pt x="423" y="710" on="0"/>
        <pt x="418" y="700" on="1"/>
        <pt x="79" y="36" on="1"/>
        <pt x="405" y="36" on="1"/>
        <pt x="423" y="36" on="0"/>
        <pt x="423" y="0" on="0"/>
      </contour>
      <contour>
        <pt x="205" y="849" on="1"/>
        <pt x="95" y="950" on="1"/>
        <pt x="86" y="959" on="0"/>
        <pt x="86" y="967" on="1"/>
        <pt x="86" y="981" on="0"/>
        <pt x="100" y="981" on="1"/>
        <pt x="110" y="981" on="0"/>
        <pt x="118" y="973" on="1"/>
        <pt x="226" y="873" on="1"/>
        <pt x="334" y="973" on="1"/>
        <pt x="342" y="981" on="0"/>
        <pt x="352" y="981" on="1"/>
        <pt x="366" y="981" on="0"/>
        <pt x="366" y="967" on="1"/>
        <pt x="366" y="959" on="0"/>
        <pt x="357" y="950" on="1"/>
        <pt x="247" y="849" on="1"/>
        <pt x="236" y="840" on="0"/>
        <pt x="216" y="840" on="0"/>
      </contour>
    </TTGlyph>
    <TTGlyph name="Zdotaccent" xMin="32" yMin="0" xMax="423" yMax="922">
      <contour>
        <pt x="405" y="0" on="1"/>
        <pt x="50" y="0" on="1"/>
        <pt x="42" y="0" on="0"/>
        <pt x="32" y="10" on="0"/>
        <pt x="32" y="18" on="1"/>
        <pt x="32" y="23" on="0"/>
        <pt x="35" y="29" on="1"/>
        <pt x="375" y="695" on="1"/>
        <pt x="50" y="695" on="1"/>
        <pt x="32" y="695" on="0"/>
        <pt x="32" y="731" on="0"/>
        <pt x="50" y="731" on="1"/>
        <pt x="405" y="731" on="1"/>
        <pt x="423" y="731" on="0"/>
        <pt x="423" y="717" on="1"/>
        <pt x="423" y="710" on="0"/>
        <pt x="418" y="700" on="1"/>
        <pt x="79" y="36" on="1"/>
        <pt x="405" y="36" on="1"/>
        <pt x="423" y="36" on="0"/>
        <pt x="423" y="0" on="0"/>
      </contour>
      <contour>
        <pt x="228" y="922" on="1"/>
        <pt x="245" y="922" on="0"/>
        <pt x="271" y="896" on="0"/>
        <pt x="271" y="862" on="0"/>
        <pt x="245" y="836" on="0"/>
        <pt x="228" y="836" on="1"/>
        <pt x="210" y="836" on="0"/>
        <pt x="184" y="862" on="0"/>
        <pt x="184" y="896" on="0"/>
        <pt x="210" y="922" on="0"/>
      </contour>
    </TTGlyph>
    <TTGlyph name="a" xMin="34" yMin="-6" xMax="358" yMax="472">
      <contour>
        <pt x="87" y="472" on="1"/>
        <pt x="180" y="472" on="1"/>
        <pt x="272" y="472" on="0"/>
        <pt x="358" y="375" on="0"/>
        <pt x="358" y="295" on="1"/>
        <pt x="358" y="18" on="1"/>
        <pt x="358" y="0" on="0"/>
        <pt x="341" y="0" on="1"/>
        <pt x="334" y="0" on="0"/>
        <pt x="323" y="10" on="0"/>
        <pt x="323" y="18" on="1"/>
        <pt x="323" y="70" on="1"/>
        <pt x="257" y="-6" on="0"/>
        <pt x="173" y="-6" on="1"/>
        <pt x="111" y="-6" on="0"/>
        <pt x="34" y="61" on="0"/>
        <pt x="34" y="126" on="1"/>
        <pt x="34" y="201" on="0"/>
        <pt x="153" y="258" on="0"/>
        <pt x="267" y="258" on="1"/>
        <pt x="323" y="258" on="1"/>
        <pt x="323" y="295" on="1"/>
        <pt x="323" y="356" on="0"/>
        <pt x="250" y="437" on="0"/>
        <pt x="180" y="437" on="1"/>
        <pt x="87" y="437" on="1"/>
        <pt x="80" y="437" on="0"/>
        <pt x="69" y="448" on="0"/>
        <pt x="69" y="455" on="1"/>
        <pt x="69" y="472" on="0"/>
      </contour>
      <contour>
        <pt x="323" y="139" on="1"/>
        <pt x="323" y="223" on="1"/>
        <pt x="268" y="223" on="1"/>
        <pt x="223" y="223" on="0"/>
        <pt x="162" y="217" on="0"/>
        <pt x="100" y="198" on="0"/>
        <pt x="69" y="157" on="0"/>
        <pt x="69" y="126" on="1"/>
        <pt x="69" y="78" on="0"/>
        <pt x="126" y="29" on="0"/>
        <pt x="172" y="29" on="1"/>
        <pt x="226" y="29" on="0"/>
        <pt x="323" y="105" on="0"/>
      </contour>
    </TTGlyph>
    <TTGlyph name="a.ss01" xMin="34" yMin="-6" xMax="418" yMax="478">
      <contour>
        <pt x="193" y="478" on="1"/>
        <pt x="279" y="478" on="0"/>
        <pt x="358" y="369" on="0"/>
        <pt x="358" y="286" on="1"/>
        <pt x="358" y="90" on="1"/>
        <pt x="361" y="29" on="0"/>
        <pt x="400" y="29" on="1"/>
        <pt x="418" y="29" on="0"/>
        <pt x="418" y="12" on="1"/>
        <pt x="418" y="5" on="0"/>
        <pt x="407" y="-6" on="0"/>
        <pt x="400" y="-6" on="1"/>
        <pt x="363" y="-6" on="0"/>
        <pt x="331" y="32" on="0"/>
        <pt x="327" y="70" on="1"/>
        <pt x="257" y="-6" on="0"/>
        <pt x="171" y="-6" on="1"/>
        <pt x="112" y="-6" on="0"/>
        <pt x="34" y="61" on="0"/>
        <pt x="34" y="124" on="1"/>
        <pt x="34" y="200" on="0"/>
        <pt x="152" y="257" on="0"/>
        <pt x="267" y="257" on="1"/>
        <pt x="323" y="257" on="1"/>
        <pt x="323" y="286" on="1"/>
        <pt x="323" y="350" on="0"/>
        <pt x="257" y="443" on="0"/>
        <pt x="191" y="443" on="1"/>
        <pt x="157" y="443" on="0"/>
        <pt x="89" y="416" on="0"/>
        <pt x="87" y="416" on="1"/>
        <pt x="79" y="416" on="0"/>
        <pt x="69" y="430" on="0"/>
        <pt x="69" y="436" on="1"/>
        <pt x="69" y="451" on="0"/>
        <pt x="148" y="478" on="0"/>
      </contour>
      <contour>
        <pt x="323" y="139" on="1"/>
        <pt x="323" y="223" on="1"/>
        <pt x="268" y="223" on="1"/>
        <pt x="222" y="223" on="0"/>
        <pt x="160" y="217" on="0"/>
        <pt x="99" y="198" on="0"/>
        <pt x="69" y="156" on="0"/>
        <pt x="69" y="124" on="1"/>
        <pt x="69" y="79" on="0"/>
        <pt x="126" y="29" on="0"/>
        <pt x="169" y="29" on="1"/>
        <pt x="226" y="29" on="0"/>
        <pt x="323" y="104" on="0"/>
      </contour>
    </TTGlyph>
    <TTGlyph name="aacute" xMin="34" yMin="-6" xMax="358" yMax="694">
      <contour>
        <pt x="87" y="472" on="1"/>
        <pt x="180" y="472" on="1"/>
        <pt x="272" y="472" on="0"/>
        <pt x="358" y="375" on="0"/>
        <pt x="358" y="295" on="1"/>
        <pt x="358" y="18" on="1"/>
        <pt x="358" y="0" on="0"/>
        <pt x="341" y="0" on="1"/>
        <pt x="334" y="0" on="0"/>
        <pt x="323" y="10" on="0"/>
        <pt x="323" y="18" on="1"/>
        <pt x="323" y="70" on="1"/>
        <pt x="257" y="-6" on="0"/>
        <pt x="173" y="-6" on="1"/>
        <pt x="111" y="-6" on="0"/>
        <pt x="34" y="61" on="0"/>
        <pt x="34" y="126" on="1"/>
        <pt x="34" y="201" on="0"/>
        <pt x="153" y="258" on="0"/>
        <pt x="267" y="258" on="1"/>
        <pt x="323" y="258" on="1"/>
        <pt x="323" y="295" on="1"/>
        <pt x="323" y="356" on="0"/>
        <pt x="250" y="437" on="0"/>
        <pt x="180" y="437" on="1"/>
        <pt x="87" y="437" on="1"/>
        <pt x="80" y="437" on="0"/>
        <pt x="69" y="448" on="0"/>
        <pt x="69" y="455" on="1"/>
        <pt x="69" y="472" on="0"/>
      </contour>
      <contour>
        <pt x="323" y="139" on="1"/>
        <pt x="323" y="223" on="1"/>
        <pt x="268" y="223" on="1"/>
        <pt x="223" y="223" on="0"/>
        <pt x="162" y="217" on="0"/>
        <pt x="100" y="198" on="0"/>
        <pt x="69" y="157" on="0"/>
        <pt x="69" y="126" on="1"/>
        <pt x="69" y="78" on="0"/>
        <pt x="126" y="29" on="0"/>
        <pt x="172" y="29" on="1"/>
        <pt x="226" y="29" on="0"/>
        <pt x="323" y="105" on="0"/>
      </contour>
      <contour>
        <pt x="252" y="658" on="1"/>
        <pt x="157" y="604" on="1"/>
        <pt x="152" y="601" on="0"/>
        <pt x="148" y="601" on="1"/>
        <pt x="140" y="601" on="0"/>
        <pt x="129" y="612" on="0"/>
        <pt x="129" y="619" on="1"/>
        <pt x="129" y="628" on="0"/>
        <pt x="137" y="632" on="1"/>
        <pt x="239" y="692" on="1"/>
        <pt x="243" y="694" on="0"/>
        <pt x="246" y="694" on="1"/>
        <pt x="262" y="694" on="0"/>
        <pt x="262" y="676" on="1"/>
        <pt x="262" y="664" on="0"/>
      </contour>
    </TTGlyph>
    <TTGlyph name="abreve" xMin="34" yMin="-6" xMax="358" yMax="692">
      <contour>
        <pt x="87" y="472" on="1"/>
        <pt x="180" y="472" on="1"/>
        <pt x="272" y="472" on="0"/>
        <pt x="358" y="375" on="0"/>
        <pt x="358" y="295" on="1"/>
        <pt x="358" y="18" on="1"/>
        <pt x="358" y="0" on="0"/>
        <pt x="341" y="0" on="1"/>
        <pt x="334" y="0" on="0"/>
        <pt x="323" y="10" on="0"/>
        <pt x="323" y="18" on="1"/>
        <pt x="323" y="70" on="1"/>
        <pt x="257" y="-6" on="0"/>
        <pt x="173" y="-6" on="1"/>
        <pt x="111" y="-6" on="0"/>
        <pt x="34" y="61" on="0"/>
        <pt x="34" y="126" on="1"/>
        <pt x="34" y="201" on="0"/>
        <pt x="153" y="258" on="0"/>
        <pt x="267" y="258" on="1"/>
        <pt x="323" y="258" on="1"/>
        <pt x="323" y="295" on="1"/>
        <pt x="323" y="356" on="0"/>
        <pt x="250" y="437" on="0"/>
        <pt x="180" y="437" on="1"/>
        <pt x="87" y="437" on="1"/>
        <pt x="80" y="437" on="0"/>
        <pt x="69" y="448" on="0"/>
        <pt x="69" y="455" on="1"/>
        <pt x="69" y="472" on="0"/>
      </contour>
      <contour>
        <pt x="323" y="139" on="1"/>
        <pt x="323" y="223" on="1"/>
        <pt x="268" y="223" on="1"/>
        <pt x="223" y="223" on="0"/>
        <pt x="162" y="217" on="0"/>
        <pt x="100" y="198" on="0"/>
        <pt x="69" y="157" on="0"/>
        <pt x="69" y="126" on="1"/>
        <pt x="69" y="78" on="0"/>
        <pt x="126" y="29" on="0"/>
        <pt x="172" y="29" on="1"/>
        <pt x="226" y="29" on="0"/>
        <pt x="323" y="105" on="0"/>
      </contour>
      <contour>
        <pt x="282" y="692" on="1"/>
        <pt x="315" y="692" on="1"/>
        <pt x="315" y="655" on="0"/>
        <pt x="249" y="601" on="0"/>
        <pt x="206" y="601" on="1"/>
        <pt x="162" y="601" on="0"/>
        <pt x="97" y="655" on="0"/>
        <pt x="97" y="692" on="1"/>
        <pt x="129" y="692" on="1"/>
        <pt x="129" y="665" on="0"/>
        <pt x="174" y="627" on="0"/>
        <pt x="206" y="627" on="1"/>
        <pt x="237" y="627" on="0"/>
        <pt x="282" y="665" on="0"/>
      </contour>
    </TTGlyph>
    <TTGlyph name="acircumflex" xMin="34" yMin="-6" xMax="358" yMax="694">
      <component glyphName="a" x="0" y="0" flags="0x204"/>
      <component glyphName="circumflex" x="76" y="0" flags="0x4"/>
    </TTGlyph>
    <TTGlyph name="acute" xMin="0" yMin="601" xMax="133" yMax="694">
      <contour>
        <pt x="123" y="658" on="1"/>
        <pt x="28" y="604" on="1"/>
        <pt x="24" y="601" on="0"/>
        <pt x="19" y="601" on="1"/>
        <pt x="11" y="601" on="0"/>
        <pt x="0" y="612" on="0"/>
        <pt x="0" y="619" on="1"/>
        <pt x="0" y="628" on="0"/>
        <pt x="8" y="632" on="1"/>
        <pt x="110" y="692" on="1"/>
        <pt x="114" y="694" on="0"/>
        <pt x="117" y="694" on="1"/>
        <pt x="133" y="694" on="0"/>
        <pt x="133" y="676" on="1"/>
        <pt x="133" y="664" on="0"/>
      </contour>
    </TTGlyph>
    <TTGlyph name="adieresis" xMin="34" yMin="-6" xMax="358" yMax="703">
      <contour>
        <pt x="87" y="472" on="1"/>
        <pt x="180" y="472" on="1"/>
        <pt x="272" y="472" on="0"/>
        <pt x="358" y="375" on="0"/>
        <pt x="358" y="295" on="1"/>
        <pt x="358" y="18" on="1"/>
        <pt x="358" y="0" on="0"/>
        <pt x="341" y="0" on="1"/>
        <pt x="334" y="0" on="0"/>
        <pt x="323" y="10" on="0"/>
        <pt x="323" y="18" on="1"/>
        <pt x="323" y="70" on="1"/>
        <pt x="257" y="-6" on="0"/>
        <pt x="173" y="-6" on="1"/>
        <pt x="111" y="-6" on="0"/>
        <pt x="34" y="61" on="0"/>
        <pt x="34" y="126" on="1"/>
        <pt x="34" y="201" on="0"/>
        <pt x="153" y="258" on="0"/>
        <pt x="267" y="258" on="1"/>
        <pt x="323" y="258" on="1"/>
        <pt x="323" y="295" on="1"/>
        <pt x="323" y="356" on="0"/>
        <pt x="250" y="437" on="0"/>
        <pt x="180" y="437" on="1"/>
        <pt x="87" y="437" on="1"/>
        <pt x="80" y="437" on="0"/>
        <pt x="69" y="448" on="0"/>
        <pt x="69" y="455" on="1"/>
        <pt x="69" y="472" on="0"/>
      </contour>
      <contour>
        <pt x="323" y="139" on="1"/>
        <pt x="323" y="223" on="1"/>
        <pt x="268" y="223" on="1"/>
        <pt x="223" y="223" on="0"/>
        <pt x="162" y="217" on="0"/>
        <pt x="100" y="198" on="0"/>
        <pt x="69" y="157" on="0"/>
        <pt x="69" y="126" on="1"/>
        <pt x="69" y="78" on="0"/>
        <pt x="126" y="29" on="0"/>
        <pt x="172" y="29" on="1"/>
        <pt x="226" y="29" on="0"/>
        <pt x="323" y="105" on="0"/>
      </contour>
      <contour>
        <pt x="155" y="703" on="1"/>
        <pt x="165" y="703" on="0"/>
        <pt x="181" y="677" on="0"/>
        <pt x="181" y="643" on="0"/>
        <pt x="165" y="617" on="0"/>
        <pt x="155" y="617" on="1"/>
        <pt x="144" y="617" on="0"/>
        <pt x="128" y="643" on="0"/>
        <pt x="128" y="677" on="0"/>
        <pt x="144" y="703" on="0"/>
      </contour>
      <contour>
        <pt x="238" y="703" on="1"/>
        <pt x="248" y="703" on="0"/>
        <pt x="264" y="677" on="0"/>
        <pt x="264" y="643" on="0"/>
        <pt x="248" y="617" on="0"/>
        <pt x="238" y="617" on="1"/>
        <pt x="227" y="617" on="0"/>
        <pt x="211" y="643" on="0"/>
        <pt x="211" y="677" on="0"/>
        <pt x="227" y="703" on="0"/>
      </contour>
    </TTGlyph>
    <TTGlyph name="ae" xMin="34" yMin="-6" xMax="678" yMax="478">
      <contour>
        <pt x="501" y="478" on="1"/>
        <pt x="573" y="478" on="0"/>
        <pt x="678" y="375" on="0"/>
        <pt x="678" y="300" on="1"/>
        <pt x="678" y="249" on="0"/>
        <pt x="652" y="223" on="0"/>
        <pt x="595" y="223" on="1"/>
        <pt x="360" y="223" on="1"/>
        <pt x="360" y="176" on="1"/>
        <pt x="360" y="108" on="0"/>
        <pt x="453" y="29" on="0"/>
        <pt x="530" y="29" on="1"/>
        <pt x="565" y="29" on="0"/>
        <pt x="605" y="45" on="0"/>
        <pt x="632" y="65" on="1"/>
        <pt x="639" y="70" on="0"/>
        <pt x="644" y="70" on="1"/>
        <pt x="651" y="70" on="0"/>
        <pt x="663" y="60" on="0"/>
        <pt x="663" y="52" on="1"/>
        <pt x="663" y="45" on="0"/>
        <pt x="658" y="39" on="1"/>
        <pt x="644" y="21" on="0"/>
        <pt x="555" y="-6" on="0"/>
        <pt x="514" y="-6" on="1"/>
        <pt x="457" y="-6" on="0"/>
        <pt x="361" y="52" on="0"/>
        <pt x="339" y="101" on="1"/>
        <pt x="319" y="46" on="0"/>
        <pt x="228" y="-6" on="0"/>
        <pt x="173" y="-6" on="1"/>
        <pt x="111" y="-6" on="0"/>
        <pt x="34" y="61" on="0"/>
        <pt x="34" y="126" on="1"/>
        <pt x="34" y="201" on="0"/>
        <pt x="152" y="258" on="0"/>
        <pt x="265" y="258" on="1"/>
        <pt x="321" y="258" on="1"/>
        <pt x="321" y="300" on="1"/>
        <pt x="321" y="359" on="0"/>
        <pt x="248" y="437" on="0"/>
        <pt x="180" y="437" on="1"/>
        <pt x="87" y="437" on="1"/>
        <pt x="80" y="437" on="0"/>
        <pt x="69" y="448" on="0"/>
        <pt x="69" y="455" on="1"/>
        <pt x="69" y="472" on="0"/>
        <pt x="87" y="472" on="1"/>
        <pt x="180" y="472" on="1"/>
        <pt x="304" y="472" on="0"/>
        <pt x="342" y="380" on="1"/>
        <pt x="365" y="424" on="0"/>
        <pt x="450" y="478" on="0"/>
      </contour>
      <contour>
        <pt x="360" y="258" on="1"/>
        <pt x="583" y="258" on="1"/>
        <pt x="623" y="258" on="0"/>
        <pt x="643" y="272" on="0"/>
        <pt x="643" y="295" on="1"/>
        <pt x="643" y="352" on="0"/>
        <pt x="563" y="443" on="0"/>
        <pt x="501" y="443" on="1"/>
        <pt x="441" y="443" on="0"/>
        <pt x="360" y="359" on="0"/>
        <pt x="360" y="302" on="1"/>
      </contour>
      <contour>
        <pt x="321" y="139" on="1"/>
        <pt x="321" y="223" on="1"/>
        <pt x="266" y="223" on="1"/>
        <pt x="221" y="223" on="0"/>
        <pt x="160" y="217" on="0"/>
        <pt x="100" y="198" on="0"/>
        <pt x="69" y="157" on="0"/>
        <pt x="69" y="126" on="1"/>
        <pt x="69" y="78" on="0"/>
        <pt x="126" y="29" on="0"/>
        <pt x="172" y="29" on="1"/>
        <pt x="226" y="29" on="0"/>
        <pt x="321" y="105" on="0"/>
      </contour>
    </TTGlyph>
    <TTGlyph name="agrave" xMin="34" yMin="-6" xMax="358" yMax="694">
      <component glyphName="a" x="0" y="0" flags="0x204"/>
      <component glyphName="grave" x="129" y="0" flags="0x4"/>
    </TTGlyph>
    <TTGlyph name="amacron" xMin="34" yMin="-6" xMax="358" yMax="673">
      <contour>
        <pt x="87" y="472" on="1"/>
        <pt x="180" y="472" on="1"/>
        <pt x="272" y="472" on="0"/>
        <pt x="358" y="375" on="0"/>
        <pt x="358" y="295" on="1"/>
        <pt x="358" y="18" on="1"/>
        <pt x="358" y="0" on="0"/>
        <pt x="341" y="0" on="1"/>
        <pt x="334" y="0" on="0"/>
        <pt x="323" y="10" on="0"/>
        <pt x="323" y="18" on="1"/>
        <pt x="323" y="70" on="1"/>
        <pt x="257" y="-6" on="0"/>
        <pt x="173" y="-6" on="1"/>
        <pt x="111" y="-6" on="0"/>
        <pt x="34" y="61" on="0"/>
        <pt x="34" y="126" on="1"/>
        <pt x="34" y="201" on="0"/>
        <pt x="153" y="258" on="0"/>
        <pt x="267" y="258" on="1"/>
        <pt x="323" y="258" on="1"/>
        <pt x="323" y="295" on="1"/>
        <pt x="323" y="356" on="0"/>
        <pt x="250" y="437" on="0"/>
        <pt x="180" y="437" on="1"/>
        <pt x="87" y="437" on="1"/>
        <pt x="80" y="437" on="0"/>
        <pt x="69" y="448" on="0"/>
        <pt x="69" y="455" on="1"/>
        <pt x="69" y="472" on="0"/>
      </contour>
      <contour>
        <pt x="323" y="139" on="1"/>
        <pt x="323" y="223" on="1"/>
        <pt x="268" y="223" on="1"/>
        <pt x="223" y="223" on="0"/>
        <pt x="162" y="217" on="0"/>
        <pt x="100" y="198" on="0"/>
        <pt x="69" y="157" on="0"/>
        <pt x="69" y="126" on="1"/>
        <pt x="69" y="78" on="0"/>
        <pt x="126" y="29" on="0"/>
        <pt x="172" y="29" on="1"/>
        <pt x="226" y="29" on="0"/>
        <pt x="323" y="105" on="0"/>
      </contour>
      <contour>
        <pt x="78" y="655" on="1"/>
        <pt x="78" y="673" on="0"/>
        <pt x="95" y="673" on="1"/>
        <pt x="315" y="673" on="1"/>
        <pt x="322" y="673" on="0"/>
        <pt x="333" y="662" on="0"/>
        <pt x="333" y="648" on="0"/>
        <pt x="322" y="638" on="0"/>
        <pt x="315" y="638" on="1"/>
        <pt x="95" y="638" on="1"/>
        <pt x="78" y="638" on="0"/>
      </contour>
    </TTGlyph>
    <TTGlyph name="ampersand" xMin="40" yMin="-10" xMax="589" yMax="748">
      <contour>
        <pt x="262" y="748" on="1"/>
        <pt x="325" y="748" on="0"/>
        <pt x="410" y="684" on="0"/>
        <pt x="410" y="661" on="1"/>
        <pt x="410" y="653" on="0"/>
        <pt x="399" y="643" on="0"/>
        <pt x="391" y="643" on="1"/>
        <pt x="384" y="643" on="0"/>
        <pt x="366" y="666" on="0"/>
        <pt x="347" y="693" on="0"/>
        <pt x="299" y="716" on="0"/>
        <pt x="266" y="716" on="1"/>
        <pt x="206" y="716" on="0"/>
        <pt x="137" y="642" on="0"/>
        <pt x="137" y="580" on="1"/>
        <pt x="137" y="530" on="0"/>
        <pt x="182" y="450" on="0"/>
        <pt x="226" y="401" on="1"/>
        <pt x="449" y="154" on="1"/>
        <pt x="480" y="228" on="0"/>
        <pt x="488" y="359" on="1"/>
        <pt x="490" y="384" on="0"/>
        <pt x="520" y="384" on="0"/>
        <pt x="520" y="357" on="1"/>
        <pt x="520" y="223" on="0"/>
        <pt x="473" y="127" on="1"/>
        <pt x="589" y="0" on="1"/>
        <pt x="547" y="0" on="1"/>
        <pt x="457" y="97" on="1"/>
        <pt x="389" y="-10" on="0"/>
        <pt x="259" y="-10" on="1"/>
        <pt x="157" y="-10" on="0"/>
        <pt x="40" y="111" on="0"/>
        <pt x="40" y="199" on="1"/>
        <pt x="40" y="273" on="0"/>
        <pt x="121" y="372" on="0"/>
        <pt x="181" y="397" on="1"/>
        <pt x="154" y="429" on="0"/>
        <pt x="124" y="471" on="0"/>
        <pt x="95" y="545" on="0"/>
        <pt x="95" y="583" on="1"/>
        <pt x="95" y="660" on="0"/>
        <pt x="191" y="748" on="0"/>
      </contour>
      <contour>
        <pt x="265" y="25" on="1"/>
        <pt x="378" y="25" on="0"/>
        <pt x="433" y="122" on="1"/>
        <pt x="202" y="371" on="1"/>
        <pt x="176" y="357" on="0"/>
        <pt x="144" y="336" on="0"/>
        <pt x="100" y="294" on="0"/>
        <pt x="77" y="238" on="0"/>
        <pt x="77" y="203" on="1"/>
        <pt x="77" y="129" on="0"/>
        <pt x="178" y="25" on="0"/>
      </contour>
    </TTGlyph>
    <TTGlyph name="aogonek" xMin="34" yMin="-155" xMax="358" yMax="472">
      <component glyphName="a" x="0" y="0" flags="0x204"/>
      <component glyphName="ogonek" x="248" y="0" flags="0x4"/>
    </TTGlyph>
    <TTGlyph name="aring" xMin="34" yMin="-6" xMax="358" yMax="768">
      <contour>
        <pt x="87" y="472" on="1"/>
        <pt x="180" y="472" on="1"/>
        <pt x="272" y="472" on="0"/>
        <pt x="358" y="375" on="0"/>
        <pt x="358" y="295" on="1"/>
        <pt x="358" y="18" on="1"/>
        <pt x="358" y="0" on="0"/>
        <pt x="341" y="0" on="1"/>
        <pt x="334" y="0" on="0"/>
        <pt x="323" y="10" on="0"/>
        <pt x="323" y="18" on="1"/>
        <pt x="323" y="70" on="1"/>
        <pt x="257" y="-6" on="0"/>
        <pt x="173" y="-6" on="1"/>
        <pt x="111" y="-6" on="0"/>
        <pt x="34" y="61" on="0"/>
        <pt x="34" y="126" on="1"/>
        <pt x="34" y="201" on="0"/>
        <pt x="153" y="258" on="0"/>
        <pt x="267" y="258" on="1"/>
        <pt x="323" y="258" on="1"/>
        <pt x="323" y="295" on="1"/>
        <pt x="323" y="356" on="0"/>
        <pt x="250" y="437" on="0"/>
        <pt x="180" y="437" on="1"/>
        <pt x="87" y="437" on="1"/>
        <pt x="80" y="437" on="0"/>
        <pt x="69" y="448" on="0"/>
        <pt x="69" y="455" on="1"/>
        <pt x="69" y="472" on="0"/>
      </contour>
      <contour>
        <pt x="323" y="139" on="1"/>
        <pt x="323" y="223" on="1"/>
        <pt x="268" y="223" on="1"/>
        <pt x="223" y="223" on="0"/>
        <pt x="162" y="217" on="0"/>
        <pt x="100" y="198" on="0"/>
        <pt x="69" y="157" on="0"/>
        <pt x="69" y="126" on="1"/>
        <pt x="69" y="78" on="0"/>
        <pt x="126" y="29" on="0"/>
        <pt x="172" y="29" on="1"/>
        <pt x="226" y="29" on="0"/>
        <pt x="323" y="105" on="0"/>
      </contour>
      <contour>
        <pt x="206" y="768" on="1"/>
        <pt x="238" y="768" on="0"/>
        <pt x="288" y="718" on="0"/>
        <pt x="288" y="685" on="1"/>
        <pt x="288" y="651" on="0"/>
        <pt x="238" y="600" on="0"/>
        <pt x="206" y="600" on="1"/>
        <pt x="173" y="600" on="0"/>
        <pt x="124" y="651" on="0"/>
        <pt x="124" y="685" on="1"/>
        <pt x="124" y="718" on="0"/>
        <pt x="172" y="768" on="0"/>
      </contour>
      <contour>
        <pt x="258" y="685" on="1"/>
        <pt x="258" y="704" on="0"/>
        <pt x="227" y="737" on="0"/>
        <pt x="206" y="737" on="1"/>
        <pt x="184" y="737" on="0"/>
        <pt x="153" y="705" on="0"/>
        <pt x="153" y="685" on="1"/>
        <pt x="153" y="663" on="0"/>
        <pt x="184" y="629" on="0"/>
        <pt x="206" y="629" on="1"/>
        <pt x="227" y="629" on="0"/>
        <pt x="258" y="663" on="0"/>
      </contour>
    </TTGlyph>
    <TTGlyph name="asciicircum" xMin="0" yMin="600" xMax="260" yMax="694">
      <contour>
        <pt x="130" y="659" on="1"/>
        <pt x="26" y="603" on="1"/>
        <pt x="25" y="603" on="0"/>
        <pt x="19" y="600" on="0"/>
        <pt x="18" y="600" on="1"/>
        <pt x="11" y="600" on="0"/>
        <pt x="0" y="611" on="0"/>
        <pt x="0" y="619" on="1"/>
        <pt x="0" y="628" on="0"/>
        <pt x="9" y="633" on="1"/>
        <pt x="113" y="689" on="1"/>
        <pt x="121" y="694" on="0"/>
        <pt x="139" y="694" on="0"/>
        <pt x="147" y="689" on="1"/>
        <pt x="251" y="634" on="1"/>
        <pt x="260" y="630" on="0"/>
        <pt x="260" y="617" on="1"/>
        <pt x="260" y="610" on="0"/>
        <pt x="250" y="601" on="0"/>
        <pt x="243" y="601" on="1"/>
        <pt x="234" y="604" on="1"/>
      </contour>
    </TTGlyph>
    <TTGlyph name="asciitilde" xMin="53" yMin="223" xMax="348" yMax="294">
      <contour>
        <pt x="269" y="257" on="1"/>
        <pt x="289" y="257" on="0"/>
        <pt x="314" y="273" on="0"/>
        <pt x="328" y="289" on="0"/>
        <pt x="334" y="289" on="1"/>
        <pt x="348" y="289" on="0"/>
        <pt x="348" y="274" on="1"/>
        <pt x="348" y="253" on="0"/>
        <pt x="291" y="223" on="0"/>
        <pt x="264" y="223" on="1"/>
        <pt x="241" y="223" on="0"/>
        <pt x="164" y="260" on="0"/>
        <pt x="135" y="260" on="1"/>
        <pt x="116" y="260" on="0"/>
        <pt x="88" y="242" on="0"/>
        <pt x="71" y="225" on="0"/>
        <pt x="66" y="225" on="1"/>
        <pt x="53" y="225" on="0"/>
        <pt x="53" y="242" on="1"/>
        <pt x="53" y="261" on="0"/>
        <pt x="114" y="294" on="0"/>
        <pt x="142" y="294" on="1"/>
        <pt x="166" y="294" on="0"/>
        <pt x="243" y="257" on="0"/>
      </contour>
    </TTGlyph>
    <TTGlyph name="asterisk" xMin="38" yMin="407" xMax="376" yMax="731">
      <contour>
        <pt x="231" y="547" on="1"/>
        <pt x="316" y="435" on="1"/>
        <pt x="319" y="430" on="0"/>
        <pt x="319" y="426" on="1"/>
        <pt x="319" y="418" on="0"/>
        <pt x="307" y="407" on="0"/>
        <pt x="299" y="407" on="1"/>
        <pt x="292" y="407" on="0"/>
        <pt x="286" y="414" on="1"/>
        <pt x="207" y="529" on="1"/>
        <pt x="127" y="413" on="1"/>
        <pt x="122" y="407" on="0"/>
        <pt x="116" y="407" on="1"/>
        <pt x="109" y="407" on="0"/>
        <pt x="95" y="417" on="0"/>
        <pt x="95" y="425" on="1"/>
        <pt x="95" y="431" on="0"/>
        <pt x="99" y="436" on="1"/>
        <pt x="183" y="546" on="1"/>
        <pt x="49" y="586" on="1"/>
        <pt x="38" y="589" on="0"/>
        <pt x="38" y="602" on="1"/>
        <pt x="38" y="610" on="0"/>
        <pt x="48" y="622" on="0"/>
        <pt x="56" y="622" on="1"/>
        <pt x="59" y="622" on="0"/>
        <pt x="61" y="621" on="1"/>
        <pt x="194" y="574" on="1"/>
        <pt x="189" y="714" on="1"/>
        <pt x="189" y="731" on="0"/>
        <pt x="225" y="731" on="0"/>
        <pt x="225" y="714" on="1"/>
        <pt x="220" y="573" on="1"/>
        <pt x="354" y="621" on="1"/>
        <pt x="356" y="622" on="1"/>
        <pt x="359" y="622" on="1"/>
        <pt x="366" y="622" on="0"/>
        <pt x="376" y="609" on="0"/>
        <pt x="376" y="602" on="1"/>
        <pt x="376" y="589" on="0"/>
        <pt x="364" y="586" on="1"/>
      </contour>
    </TTGlyph>
    <TTGlyph name="at" xMin="49" yMin="-110" xMax="663" yMax="565">
      <contour>
        <pt x="236" y="381" on="1"/>
        <pt x="236" y="399" on="0"/>
        <pt x="319" y="422" on="0"/>
        <pt x="370" y="422" on="1"/>
        <pt x="490" y="422" on="0"/>
        <pt x="490" y="292" on="1"/>
        <pt x="490" y="122" on="1"/>
        <pt x="492" y="101" on="0"/>
        <pt x="533" y="69" on="0"/>
        <pt x="556" y="69" on="1"/>
        <pt x="595" y="69" on="0"/>
        <pt x="628" y="166" on="0"/>
        <pt x="628" y="233" on="1"/>
        <pt x="628" y="372" on="0"/>
        <pt x="489" y="527" on="0"/>
        <pt x="362" y="527" on="1"/>
        <pt x="221" y="527" on="0"/>
        <pt x="84" y="353" on="0"/>
        <pt x="84" y="217" on="1"/>
        <pt x="84" y="159" on="0"/>
        <pt x="110" y="59" on="0"/>
        <pt x="164" y="-25" on="0"/>
        <pt x="263" y="-74" on="0"/>
        <pt x="329" y="-74" on="1"/>
        <pt x="367" y="-74" on="0"/>
        <pt x="433" y="-52" on="0"/>
        <pt x="472" y="-31" on="0"/>
        <pt x="477" y="-31" on="1"/>
        <pt x="483" y="-31" on="0"/>
        <pt x="492" y="-40" on="0"/>
        <pt x="492" y="-46" on="1"/>
        <pt x="492" y="-71" on="0"/>
        <pt x="386" y="-110" on="0"/>
        <pt x="325" y="-110" on="1"/>
        <pt x="207" y="-110" on="0"/>
        <pt x="49" y="57" on="0"/>
        <pt x="49" y="219" on="1"/>
        <pt x="49" y="373" on="0"/>
        <pt x="204" y="565" on="0"/>
        <pt x="361" y="565" on="1"/>
        <pt x="663" y="565" on="0"/>
        <pt x="663" y="232" on="1"/>
        <pt x="663" y="34" on="0"/>
        <pt x="552" y="34" on="1"/>
        <pt x="517" y="34" on="0"/>
        <pt x="463" y="71" on="0"/>
        <pt x="459" y="98" on="1"/>
        <pt x="428" y="69" on="0"/>
        <pt x="382" y="46" on="0"/>
        <pt x="340" y="46" on="1"/>
        <pt x="210" y="46" on="0"/>
        <pt x="210" y="156" on="1"/>
        <pt x="210" y="222" on="0"/>
        <pt x="305" y="270" on="0"/>
        <pt x="405" y="270" on="1"/>
        <pt x="455" y="270" on="1"/>
        <pt x="455" y="292" on="1"/>
        <pt x="455" y="386" on="0"/>
        <pt x="348" y="386" on="1"/>
        <pt x="310" y="386" on="0"/>
        <pt x="257" y="362" on="0"/>
        <pt x="254" y="362" on="1"/>
        <pt x="246" y="362" on="0"/>
        <pt x="236" y="375" on="0"/>
      </contour>
      <contour>
        <pt x="455" y="164" on="1"/>
        <pt x="455" y="234" on="1"/>
        <pt x="406" y="234" on="1"/>
        <pt x="366" y="234" on="0"/>
        <pt x="318" y="230" on="0"/>
        <pt x="268" y="215" on="0"/>
        <pt x="245" y="182" on="0"/>
        <pt x="245" y="155" on="1"/>
        <pt x="245" y="81" on="0"/>
        <pt x="334" y="81" on="1"/>
        <pt x="388" y="81" on="0"/>
        <pt x="455" y="134" on="0"/>
      </contour>
    </TTGlyph>
    <TTGlyph name="atilde" xMin="34" yMin="-6" xMax="358" yMax="690">
      <component glyphName="a" x="0" y="0" flags="0x204"/>
      <component glyphName="tilde" x="48" y="0" flags="0x4"/>
    </TTGlyph>
    <TTGlyph name="b" xMin="69" yMin="-6" xMax="418" yMax="768">
      <contour>
        <pt x="86" y="768" on="1"/>
        <pt x="104" y="768" on="0"/>
        <pt x="104" y="751" on="1"/>
        <pt x="104" y="402" on="1"/>
        <pt x="147" y="478" on="0"/>
        <pt x="238" y="478" on="1"/>
        <pt x="312" y="478" on="0"/>
        <pt x="418" y="372" on="0"/>
        <pt x="418" y="298" on="1"/>
        <pt x="418" y="176" on="1"/>
        <pt x="418" y="104" on="0"/>
        <pt x="311" y="-6" on="0"/>
        <pt x="240" y="-6" on="1"/>
        <pt x="196" y="-6" on="0"/>
        <pt x="121" y="38" on="0"/>
        <pt x="104" y="70" on="1"/>
        <pt x="104" y="18" on="1"/>
        <pt x="104" y="11" on="0"/>
        <pt x="93" y="0" on="0"/>
        <pt x="79" y="0" on="0"/>
        <pt x="69" y="11" on="0"/>
        <pt x="69" y="18" on="1"/>
        <pt x="69" y="751" on="1"/>
        <pt x="69" y="768" on="0"/>
      </contour>
      <contour>
        <pt x="383" y="176" on="1"/>
        <pt x="383" y="298" on="1"/>
        <pt x="383" y="354" on="0"/>
        <pt x="298" y="443" on="0"/>
        <pt x="241" y="443" on="1"/>
        <pt x="187" y="443" on="0"/>
        <pt x="104" y="363" on="0"/>
        <pt x="104" y="298" on="1"/>
        <pt x="104" y="139" on="1"/>
        <pt x="104" y="108" on="0"/>
        <pt x="188" y="29" on="0"/>
        <pt x="242" y="29" on="1"/>
        <pt x="298" y="29" on="0"/>
        <pt x="383" y="119" on="0"/>
      </contour>
    </TTGlyph>
    <TTGlyph name="b.ss02" xMin="65" yMin="-6" xMax="414" yMax="768">
      <contour>
        <pt x="82" y="768" on="1"/>
        <pt x="100" y="768" on="0"/>
        <pt x="100" y="751" on="1"/>
        <pt x="100" y="402" on="1"/>
        <pt x="143" y="478" on="0"/>
        <pt x="234" y="478" on="1"/>
        <pt x="308" y="478" on="0"/>
        <pt x="414" y="372" on="0"/>
        <pt x="414" y="298" on="1"/>
        <pt x="414" y="176" on="1"/>
        <pt x="414" y="133" on="0"/>
        <pt x="381" y="54" on="0"/>
        <pt x="295" y="-6" on="0"/>
        <pt x="233" y="-6" on="1"/>
        <pt x="164" y="-6" on="0"/>
        <pt x="65" y="68" on="0"/>
        <pt x="65" y="146" on="1"/>
        <pt x="65" y="752" on="1"/>
        <pt x="65" y="768" on="0"/>
      </contour>
      <contour>
        <pt x="379" y="176" on="1"/>
        <pt x="379" y="298" on="1"/>
        <pt x="379" y="354" on="0"/>
        <pt x="294" y="443" on="0"/>
        <pt x="237" y="443" on="1"/>
        <pt x="183" y="443" on="0"/>
        <pt x="100" y="363" on="0"/>
        <pt x="100" y="298" on="1"/>
        <pt x="100" y="155" on="1"/>
        <pt x="100" y="93" on="0"/>
        <pt x="176" y="29" on="0"/>
        <pt x="236" y="29" on="1"/>
        <pt x="277" y="29" on="0"/>
        <pt x="336" y="59" on="0"/>
        <pt x="366" y="107" on="0"/>
        <pt x="379" y="153" on="0"/>
      </contour>
    </TTGlyph>
    <TTGlyph name="backslash" xMin="27" yMin="0" xMax="312" yMax="754">
      <contour>
        <pt x="278" y="12" on="1"/>
        <pt x="28" y="727" on="1"/>
        <pt x="27" y="730" on="0"/>
        <pt x="27" y="735" on="1"/>
        <pt x="27" y="744" on="0"/>
        <pt x="38" y="754" on="0"/>
        <pt x="45" y="754" on="1"/>
        <pt x="56" y="754" on="0"/>
        <pt x="59" y="745" on="1"/>
        <pt x="311" y="21" on="1"/>
        <pt x="312" y="19" on="0"/>
        <pt x="312" y="15" on="1"/>
        <pt x="312" y="0" on="0"/>
        <pt x="295" y="0" on="1"/>
        <pt x="282" y="0" on="0"/>
      </contour>
    </TTGlyph>
    <TTGlyph name="bar" xMin="74" yMin="-21" xMax="110" yMax="768">
      <contour>
        <pt x="99" y="-21" on="0"/>
        <pt x="85" y="-21" on="0"/>
        <pt x="74" y="-11" on="0"/>
        <pt x="74" y="-4" on="1"/>
        <pt x="74" y="751" on="1"/>
        <pt x="74" y="758" on="0"/>
        <pt x="85" y="768" on="0"/>
        <pt x="99" y="768" on="0"/>
        <pt x="110" y="758" on="0"/>
        <pt x="110" y="751" on="1"/>
        <pt x="110" y="-4" on="1"/>
        <pt x="110" y="-11" on="0"/>
      </contour>
    </TTGlyph>
    <TTGlyph name="braceleft" xMin="31" yMin="-20" xMax="262" yMax="768">
      <contour>
        <pt x="31" y="373" on="0"/>
        <pt x="31" y="395" on="0"/>
        <pt x="50" y="402" on="0"/>
        <pt x="72" y="403" on="0"/>
        <pt x="91" y="412" on="0"/>
        <pt x="91" y="422" on="1"/>
        <pt x="91" y="430" on="0"/>
        <pt x="70" y="590" on="0"/>
        <pt x="70" y="607" on="1"/>
        <pt x="70" y="672" on="0"/>
        <pt x="173" y="768" on="0"/>
        <pt x="245" y="768" on="1"/>
        <pt x="252" y="768" on="0"/>
        <pt x="262" y="758" on="0"/>
        <pt x="262" y="744" on="0"/>
        <pt x="252" y="733" on="0"/>
        <pt x="245" y="733" on="1"/>
        <pt x="185" y="733" on="0"/>
        <pt x="106" y="655" on="0"/>
        <pt x="106" y="604" on="1"/>
        <pt x="106" y="587" on="0"/>
        <pt x="127" y="430" on="0"/>
        <pt x="127" y="422" on="1"/>
        <pt x="127" y="407" on="0"/>
        <pt x="103" y="387" on="0"/>
        <pt x="91" y="384" on="1"/>
        <pt x="103" y="382" on="0"/>
        <pt x="127" y="362" on="0"/>
        <pt x="127" y="347" on="1"/>
        <pt x="127" y="337" on="0"/>
        <pt x="106" y="148" on="0"/>
        <pt x="106" y="127" on="1"/>
        <pt x="106" y="96" on="0"/>
        <pt x="136" y="49" on="0"/>
        <pt x="182" y="26" on="0"/>
        <pt x="226" y="15" on="0"/>
        <pt x="245" y="15" on="1"/>
        <pt x="262" y="15" on="0"/>
        <pt x="262" y="-2" on="1"/>
        <pt x="262" y="-10" on="0"/>
        <pt x="251" y="-20" on="0"/>
        <pt x="245" y="-20" on="1"/>
        <pt x="170" y="-20" on="0"/>
        <pt x="70" y="63" on="0"/>
        <pt x="70" y="129" on="1"/>
        <pt x="70" y="147" on="0"/>
        <pt x="91" y="339" on="0"/>
        <pt x="91" y="347" on="1"/>
        <pt x="91" y="357" on="0"/>
        <pt x="72" y="365" on="0"/>
        <pt x="50" y="364" on="0"/>
      </contour>
    </TTGlyph>
    <TTGlyph name="braceright" xMin="12" yMin="-20" xMax="243" yMax="768">
      <contour>
        <pt x="243" y="395" on="0"/>
        <pt x="243" y="373" on="0"/>
        <pt x="224" y="364" on="0"/>
        <pt x="202" y="365" on="0"/>
        <pt x="183" y="357" on="0"/>
        <pt x="183" y="347" on="1"/>
        <pt x="183" y="339" on="0"/>
        <pt x="204" y="147" on="0"/>
        <pt x="204" y="129" on="1"/>
        <pt x="204" y="63" on="0"/>
        <pt x="104" y="-20" on="0"/>
        <pt x="29" y="-20" on="1"/>
        <pt x="23" y="-20" on="0"/>
        <pt x="12" y="-10" on="0"/>
        <pt x="12" y="-2" on="1"/>
        <pt x="12" y="15" on="0"/>
        <pt x="29" y="15" on="1"/>
        <pt x="48" y="15" on="0"/>
        <pt x="92" y="26" on="0"/>
        <pt x="138" y="49" on="0"/>
        <pt x="168" y="96" on="0"/>
        <pt x="168" y="127" on="1"/>
        <pt x="168" y="148" on="0"/>
        <pt x="147" y="337" on="0"/>
        <pt x="147" y="347" on="1"/>
        <pt x="147" y="362" on="0"/>
        <pt x="171" y="382" on="0"/>
        <pt x="183" y="384" on="1"/>
        <pt x="171" y="387" on="0"/>
        <pt x="147" y="407" on="0"/>
        <pt x="147" y="422" on="1"/>
        <pt x="147" y="430" on="0"/>
        <pt x="168" y="587" on="0"/>
        <pt x="168" y="604" on="1"/>
        <pt x="168" y="655" on="0"/>
        <pt x="89" y="733" on="0"/>
        <pt x="29" y="733" on="1"/>
        <pt x="22" y="733" on="0"/>
        <pt x="12" y="744" on="0"/>
        <pt x="12" y="758" on="0"/>
        <pt x="22" y="768" on="0"/>
        <pt x="29" y="768" on="1"/>
        <pt x="101" y="768" on="0"/>
        <pt x="204" y="672" on="0"/>
        <pt x="204" y="607" on="1"/>
        <pt x="204" y="590" on="0"/>
        <pt x="183" y="430" on="0"/>
        <pt x="183" y="422" on="1"/>
        <pt x="183" y="412" on="0"/>
        <pt x="202" y="403" on="0"/>
        <pt x="224" y="402" on="0"/>
      </contour>
    </TTGlyph>
    <TTGlyph name="bracketleft" xMin="74" yMin="-21" xMax="265" yMax="768">
      <contour>
        <pt x="248" y="-21" on="1"/>
        <pt x="92" y="-21" on="1"/>
        <pt x="85" y="-21" on="0"/>
        <pt x="74" y="-11" on="0"/>
        <pt x="74" y="-4" on="1"/>
        <pt x="74" y="751" on="1"/>
        <pt x="74" y="758" on="0"/>
        <pt x="85" y="768" on="0"/>
        <pt x="92" y="768" on="1"/>
        <pt x="248" y="768" on="1"/>
        <pt x="255" y="768" on="0"/>
        <pt x="265" y="758" on="0"/>
        <pt x="265" y="744" on="0"/>
        <pt x="255" y="733" on="0"/>
        <pt x="248" y="733" on="1"/>
        <pt x="110" y="733" on="1"/>
        <pt x="110" y="14" on="1"/>
        <pt x="248" y="14" on="1"/>
        <pt x="255" y="14" on="0"/>
        <pt x="265" y="3" on="0"/>
        <pt x="265" y="-11" on="0"/>
        <pt x="255" y="-21" on="0"/>
      </contour>
    </TTGlyph>
    <TTGlyph name="bracketright" xMin="12" yMin="-21" xMax="203" yMax="768">
      <contour>
        <pt x="185" y="-21" on="1"/>
        <pt x="29" y="-21" on="1"/>
        <pt x="22" y="-21" on="0"/>
        <pt x="12" y="-11" on="0"/>
        <pt x="12" y="3" on="0"/>
        <pt x="22" y="14" on="0"/>
        <pt x="29" y="14" on="1"/>
        <pt x="167" y="14" on="1"/>
        <pt x="167" y="733" on="1"/>
        <pt x="29" y="733" on="1"/>
        <pt x="22" y="733" on="0"/>
        <pt x="12" y="744" on="0"/>
        <pt x="12" y="758" on="0"/>
        <pt x="22" y="768" on="0"/>
        <pt x="29" y="768" on="1"/>
        <pt x="185" y="768" on="1"/>
        <pt x="192" y="768" on="0"/>
        <pt x="203" y="758" on="0"/>
        <pt x="203" y="751" on="1"/>
        <pt x="203" y="-4" on="1"/>
        <pt x="203" y="-11" on="0"/>
        <pt x="192" y="-21" on="0"/>
      </contour>
    </TTGlyph>
    <TTGlyph name="breve" xMin="0" yMin="601" xMax="218" yMax="692">
      <contour>
        <pt x="185" y="692" on="1"/>
        <pt x="218" y="692" on="1"/>
        <pt x="218" y="655" on="0"/>
        <pt x="152" y="601" on="0"/>
        <pt x="109" y="601" on="1"/>
        <pt x="65" y="601" on="0"/>
        <pt x="0" y="655" on="0"/>
        <pt x="0" y="692" on="1"/>
        <pt x="32" y="692" on="1"/>
        <pt x="32" y="665" on="0"/>
        <pt x="77" y="627" on="0"/>
        <pt x="109" y="627" on="1"/>
        <pt x="140" y="627" on="0"/>
        <pt x="185" y="665" on="0"/>
      </contour>
    </TTGlyph>
    <TTGlyph name="brokenbar" xMin="75" yMin="-21" xMax="111" yMax="768">
      <contour>
        <pt x="100" y="-21" on="0"/>
        <pt x="86" y="-21" on="0"/>
        <pt x="75" y="-11" on="0"/>
        <pt x="75" y="-4" on="1"/>
        <pt x="75" y="278" on="1"/>
        <pt x="75" y="285" on="0"/>
        <pt x="86" y="295" on="0"/>
        <pt x="100" y="295" on="0"/>
        <pt x="111" y="285" on="0"/>
        <pt x="111" y="278" on="1"/>
        <pt x="111" y="-4" on="1"/>
        <pt x="111" y="-11" on="0"/>
      </contour>
      <contour>
        <pt x="100" y="452" on="0"/>
        <pt x="86" y="452" on="0"/>
        <pt x="75" y="462" on="0"/>
        <pt x="75" y="469" on="1"/>
        <pt x="75" y="751" on="1"/>
        <pt x="75" y="758" on="0"/>
        <pt x="86" y="768" on="0"/>
        <pt x="100" y="768" on="0"/>
        <pt x="111" y="758" on="0"/>
        <pt x="111" y="751" on="1"/>
        <pt x="111" y="469" on="1"/>
        <pt x="111" y="462" on="0"/>
      </contour>
    </TTGlyph>
    <TTGlyph name="bullet" xMin="45" yMin="223" xMax="202" yMax="377">
      <contour>
        <pt x="124" y="377" on="1"/>
        <pt x="155" y="377" on="0"/>
        <pt x="202" y="331" on="0"/>
        <pt x="202" y="269" on="0"/>
        <pt x="155" y="223" on="0"/>
        <pt x="124" y="223" on="1"/>
        <pt x="92" y="223" on="0"/>
        <pt x="45" y="269" on="0"/>
        <pt x="45" y="331" on="0"/>
        <pt x="92" y="377" on="0"/>
      </contour>
    </TTGlyph>
    <TTGlyph name="c" xMin="51" yMin="-6" xMax="371" yMax="478">
      <contour>
        <pt x="234" y="-6" on="1"/>
        <pt x="144" y="-6" on="0"/>
        <pt x="51" y="94" on="0"/>
        <pt x="51" y="176" on="1"/>
        <pt x="51" y="296" on="1"/>
        <pt x="51" y="377" on="0"/>
        <pt x="144" y="478" on="0"/>
        <pt x="234" y="478" on="1"/>
        <pt x="293" y="478" on="0"/>
        <pt x="371" y="438" on="0"/>
        <pt x="371" y="419" on="1"/>
        <pt x="371" y="412" on="0"/>
        <pt x="359" y="402" on="0"/>
        <pt x="347" y="402" on="0"/>
        <pt x="321" y="422" on="0"/>
        <pt x="270" y="443" on="0"/>
        <pt x="234" y="443" on="1"/>
        <pt x="163" y="443" on="0"/>
        <pt x="86" y="365" on="0"/>
        <pt x="86" y="296" on="1"/>
        <pt x="86" y="176" on="1"/>
        <pt x="86" y="107" on="0"/>
        <pt x="163" y="29" on="0"/>
        <pt x="235" y="29" on="1"/>
        <pt x="272" y="29" on="0"/>
        <pt x="321" y="50" on="0"/>
        <pt x="346" y="70" on="0"/>
        <pt x="360" y="70" on="0"/>
        <pt x="371" y="60" on="0"/>
        <pt x="371" y="53" on="1"/>
        <pt x="371" y="33" on="0"/>
        <pt x="293" y="-6" on="0"/>
      </contour>
    </TTGlyph>
    <TTGlyph name="c.ss03" xMin="50" yMin="0" xMax="319" yMax="472">
      <contour>
        <pt x="301" y="437" on="1"/>
        <pt x="229" y="437" on="1"/>
        <pt x="171" y="437" on="0"/>
        <pt x="86" y="353" on="0"/>
        <pt x="86" y="294" on="1"/>
        <pt x="86" y="172" on="1"/>
        <pt x="86" y="116" on="0"/>
        <pt x="169" y="35" on="0"/>
        <pt x="229" y="35" on="1"/>
        <pt x="301" y="35" on="1"/>
        <pt x="308" y="35" on="0"/>
        <pt x="319" y="24" on="0"/>
        <pt x="319" y="17" on="1"/>
        <pt x="319" y="0" on="0"/>
        <pt x="301" y="0" on="1"/>
        <pt x="229" y="0" on="1"/>
        <pt x="156" y="0" on="0"/>
        <pt x="50" y="101" on="0"/>
        <pt x="50" y="172" on="1"/>
        <pt x="50" y="294" on="1"/>
        <pt x="50" y="367" on="0"/>
        <pt x="156" y="472" on="0"/>
        <pt x="229" y="472" on="1"/>
        <pt x="301" y="472" on="1"/>
        <pt x="319" y="472" on="0"/>
        <pt x="319" y="455" on="1"/>
        <pt x="319" y="448" on="0"/>
        <pt x="308" y="437" on="0"/>
      </contour>
    </TTGlyph>
    <TTGlyph name="cacute" xMin="51" yMin="-6" xMax="371" yMax="694">
      <component glyphName="c" x="0" y="0" flags="0x204"/>
      <component glyphName="acute" x="144" y="0" flags="0x4"/>
    </TTGlyph>
    <TTGlyph name="caron" xMin="0" yMin="581" xMax="280" yMax="722">
      <contour>
        <pt x="119" y="590" on="1"/>
        <pt x="9" y="691" on="1"/>
        <pt x="0" y="700" on="0"/>
        <pt x="0" y="708" on="1"/>
        <pt x="0" y="722" on="0"/>
        <pt x="14" y="722" on="1"/>
        <pt x="24" y="722" on="0"/>
        <pt x="32" y="714" on="1"/>
        <pt x="140" y="614" on="1"/>
        <pt x="248" y="714" on="1"/>
        <pt x="256" y="722" on="0"/>
        <pt x="266" y="722" on="1"/>
        <pt x="280" y="722" on="0"/>
        <pt x="280" y="708" on="1"/>
        <pt x="280" y="700" on="0"/>
        <pt x="271" y="691" on="1"/>
        <pt x="161" y="590" on="1"/>
        <pt x="150" y="581" on="0"/>
        <pt x="130" y="581" on="0"/>
      </contour>
    </TTGlyph>
    <TTGlyph name="ccaron" xMin="51" yMin="-6" xMax="371" yMax="722">
      <contour>
        <pt x="234" y="-6" on="1"/>
        <pt x="144" y="-6" on="0"/>
        <pt x="51" y="94" on="0"/>
        <pt x="51" y="176" on="1"/>
        <pt x="51" y="296" on="1"/>
        <pt x="51" y="377" on="0"/>
        <pt x="144" y="478" on="0"/>
        <pt x="234" y="478" on="1"/>
        <pt x="293" y="478" on="0"/>
        <pt x="371" y="438" on="0"/>
        <pt x="371" y="419" on="1"/>
        <pt x="371" y="412" on="0"/>
        <pt x="359" y="402" on="0"/>
        <pt x="347" y="402" on="0"/>
        <pt x="321" y="422" on="0"/>
        <pt x="270" y="443" on="0"/>
        <pt x="234" y="443" on="1"/>
        <pt x="163" y="443" on="0"/>
        <pt x="86" y="365" on="0"/>
        <pt x="86" y="296" on="1"/>
        <pt x="86" y="176" on="1"/>
        <pt x="86" y="107" on="0"/>
        <pt x="163" y="29" on="0"/>
        <pt x="235" y="29" on="1"/>
        <pt x="272" y="29" on="0"/>
        <pt x="321" y="50" on="0"/>
        <pt x="346" y="70" on="0"/>
        <pt x="360" y="70" on="0"/>
        <pt x="371" y="60" on="0"/>
        <pt x="371" y="53" on="1"/>
        <pt x="371" y="33" on="0"/>
        <pt x="293" y="-6" on="0"/>
      </contour>
      <contour>
        <pt x="189" y="590" on="1"/>
        <pt x="79" y="691" on="1"/>
        <pt x="70" y="700" on="0"/>
        <pt x="70" y="708" on="1"/>
        <pt x="70" y="722" on="0"/>
        <pt x="84" y="722" on="1"/>
        <pt x="94" y="722" on="0"/>
        <pt x="102" y="714" on="1"/>
        <pt x="210" y="614" on="1"/>
        <pt x="318" y="714" on="1"/>
        <pt x="326" y="722" on="0"/>
        <pt x="336" y="722" on="1"/>
        <pt x="350" y="722" on="0"/>
        <pt x="350" y="708" on="1"/>
        <pt x="350" y="700" on="0"/>
        <pt x="341" y="691" on="1"/>
        <pt x="231" y="590" on="1"/>
        <pt x="220" y="581" on="0"/>
        <pt x="200" y="581" on="0"/>
      </contour>
    </TTGlyph>
    <TTGlyph name="ccedilla" xMin="51" yMin="-209" xMax="371" yMax="478">
      <component glyphName="c" x="0" y="0" flags="0x204"/>
      <component glyphName="cedilla" x="184" y="0" flags="0x4"/>
    </TTGlyph>
    <TTGlyph name="ccircumflex" xMin="51" yMin="-6" xMax="371" yMax="694">
      <contour>
        <pt x="234" y="-6" on="1"/>
        <pt x="144" y="-6" on="0"/>
        <pt x="51" y="94" on="0"/>
        <pt x="51" y="176" on="1"/>
        <pt x="51" y="296" on="1"/>
        <pt x="51" y="377" on="0"/>
        <pt x="144" y="478" on="0"/>
        <pt x="234" y="478" on="1"/>
        <pt x="293" y="478" on="0"/>
        <pt x="371" y="438" on="0"/>
        <pt x="371" y="419" on="1"/>
        <pt x="371" y="412" on="0"/>
        <pt x="359" y="402" on="0"/>
        <pt x="347" y="402" on="0"/>
        <pt x="321" y="422" on="0"/>
        <pt x="270" y="443" on="0"/>
        <pt x="234" y="443" on="1"/>
        <pt x="163" y="443" on="0"/>
        <pt x="86" y="365" on="0"/>
        <pt x="86" y="296" on="1"/>
        <pt x="86" y="176" on="1"/>
        <pt x="86" y="107" on="0"/>
        <pt x="163" y="29" on="0"/>
        <pt x="235" y="29" on="1"/>
        <pt x="272" y="29" on="0"/>
        <pt x="321" y="50" on="0"/>
        <pt x="346" y="70" on="0"/>
        <pt x="360" y="70" on="0"/>
        <pt x="371" y="60" on="0"/>
        <pt x="371" y="53" on="1"/>
        <pt x="371" y="33" on="0"/>
        <pt x="293" y="-6" on="0"/>
      </contour>
      <contour>
        <pt x="211" y="659" on="1"/>
        <pt x="107" y="603" on="1"/>
        <pt x="106" y="603" on="0"/>
        <pt x="100" y="600" on="0"/>
        <pt x="99" y="600" on="1"/>
        <pt x="92" y="600" on="0"/>
        <pt x="81" y="611" on="0"/>
        <pt x="81" y="619" on="1"/>
        <pt x="81" y="628" on="0"/>
        <pt x="90" y="633" on="1"/>
        <pt x="194" y="689" on="1"/>
        <pt x="202" y="694" on="0"/>
        <pt x="220" y="694" on="0"/>
        <pt x="228" y="689" on="1"/>
        <pt x="332" y="634" on="1"/>
        <pt x="341" y="630" on="0"/>
        <pt x="341" y="617" on="1"/>
        <pt x="341" y="610" on="0"/>
        <pt x="331" y="601" on="0"/>
        <pt x="324" y="601" on="1"/>
        <pt x="315" y="604" on="1"/>
      </contour>
    </TTGlyph>
    <TTGlyph name="cdotaccent" xMin="51" yMin="-6" xMax="371" yMax="663">
      <contour>
        <pt x="234" y="-6" on="1"/>
        <pt x="144" y="-6" on="0"/>
        <pt x="51" y="94" on="0"/>
        <pt x="51" y="176" on="1"/>
        <pt x="51" y="296" on="1"/>
        <pt x="51" y="377" on="0"/>
        <pt x="144" y="478" on="0"/>
        <pt x="234" y="478" on="1"/>
        <pt x="293" y="478" on="0"/>
        <pt x="371" y="438" on="0"/>
        <pt x="371" y="419" on="1"/>
        <pt x="371" y="412" on="0"/>
        <pt x="359" y="402" on="0"/>
        <pt x="347" y="402" on="0"/>
        <pt x="321" y="422" on="0"/>
        <pt x="270" y="443" on="0"/>
        <pt x="234" y="443" on="1"/>
        <pt x="163" y="443" on="0"/>
        <pt x="86" y="365" on="0"/>
        <pt x="86" y="296" on="1"/>
        <pt x="86" y="176" on="1"/>
        <pt x="86" y="107" on="0"/>
        <pt x="163" y="29" on="0"/>
        <pt x="235" y="29" on="1"/>
        <pt x="272" y="29" on="0"/>
        <pt x="321" y="50" on="0"/>
        <pt x="346" y="70" on="0"/>
        <pt x="360" y="70" on="0"/>
        <pt x="371" y="60" on="0"/>
        <pt x="371" y="53" on="1"/>
        <pt x="371" y="33" on="0"/>
        <pt x="293" y="-6" on="0"/>
      </contour>
      <contour>
        <pt x="211" y="663" on="1"/>
        <pt x="228" y="663" on="0"/>
        <pt x="254" y="637" on="0"/>
        <pt x="254" y="603" on="0"/>
        <pt x="228" y="577" on="0"/>
        <pt x="211" y="577" on="1"/>
        <pt x="193" y="577" on="0"/>
        <pt x="167" y="603" on="0"/>
        <pt x="167" y="637" on="0"/>
        <pt x="193" y="663" on="0"/>
      </contour>
    </TTGlyph>
    <TTGlyph name="cedilla" xMin="0" yMin="-209" xMax="156" yMax="8">
      <contour>
        <pt x="156" y="-134" on="1"/>
        <pt x="156" y="-209" on="0"/>
        <pt x="75" y="-209" on="1"/>
        <pt x="40" y="-209" on="0"/>
        <pt x="0" y="-195" on="1"/>
        <pt x="0" y="-160" on="1"/>
        <pt x="36" y="-174" on="0"/>
        <pt x="74" y="-174" on="1"/>
        <pt x="123" y="-174" on="0"/>
        <pt x="123" y="-133" on="1"/>
        <pt x="123" y="-112" on="0"/>
        <pt x="89" y="-99" on="0"/>
        <pt x="56" y="-99" on="1"/>
        <pt x="26" y="-99" on="1"/>
        <pt x="26" y="8" on="1"/>
        <pt x="60" y="8" on="1"/>
        <pt x="60" y="-64" on="1"/>
        <pt x="81" y="-64" on="0"/>
        <pt x="106" y="-67" on="0"/>
        <pt x="140" y="-79" on="0"/>
        <pt x="156" y="-110" on="0"/>
      </contour>
    </TTGlyph>
    <TTGlyph name="cent" xMin="41" yMin="40" xMax="361" yMax="694">
      <contour>
        <pt x="208" y="40" on="0"/>
        <pt x="194" y="40" on="0"/>
        <pt x="183" y="50" on="0"/>
        <pt x="183" y="57" on="1"/>
        <pt x="183" y="177" on="1"/>
        <pt x="114" y="188" on="0"/>
        <pt x="41" y="285" on="0"/>
        <pt x="41" y="356" on="1"/>
        <pt x="41" y="376" on="1"/>
        <pt x="41" y="447" on="0"/>
        <pt x="112" y="543" on="0"/>
        <pt x="183" y="555" on="1"/>
        <pt x="183" y="677" on="1"/>
        <pt x="183" y="684" on="0"/>
        <pt x="194" y="694" on="0"/>
        <pt x="208" y="694" on="0"/>
        <pt x="219" y="684" on="0"/>
        <pt x="219" y="677" on="1"/>
        <pt x="219" y="558" on="1"/>
        <pt x="275" y="558" on="0"/>
        <pt x="361" y="522" on="0"/>
        <pt x="361" y="500" on="1"/>
        <pt x="361" y="492" on="0"/>
        <pt x="349" y="482" on="0"/>
        <pt x="342" y="482" on="1"/>
        <pt x="336" y="482" on="0"/>
        <pt x="311" y="502" on="0"/>
        <pt x="261" y="523" on="0"/>
        <pt x="225" y="523" on="1"/>
        <pt x="219" y="523" on="1"/>
        <pt x="219" y="209" on="1"/>
        <pt x="225" y="209" on="1"/>
        <pt x="261" y="209" on="0"/>
        <pt x="311" y="230" on="0"/>
        <pt x="336" y="250" on="0"/>
        <pt x="342" y="250" on="1"/>
        <pt x="349" y="250" on="0"/>
        <pt x="361" y="240" on="0"/>
        <pt x="361" y="232" on="1"/>
        <pt x="361" y="209" on="0"/>
        <pt x="272" y="174" on="0"/>
        <pt x="219" y="174" on="1"/>
        <pt x="219" y="57" on="1"/>
        <pt x="219" y="50" on="0"/>
      </contour>
      <contour>
        <pt x="76" y="376" on="1"/>
        <pt x="76" y="356" on="1"/>
        <pt x="76" y="234" on="0"/>
        <pt x="183" y="213" on="1"/>
        <pt x="183" y="519" on="1"/>
        <pt x="76" y="497" on="0"/>
      </contour>
    </TTGlyph>
    <TTGlyph name="circumflex" xMin="0" yMin="600" xMax="260" yMax="694">
      <contour>
        <pt x="130" y="659" on="1"/>
        <pt x="26" y="603" on="1"/>
        <pt x="25" y="603" on="0"/>
        <pt x="19" y="600" on="0"/>
        <pt x="18" y="600" on="1"/>
        <pt x="11" y="600" on="0"/>
        <pt x="0" y="611" on="0"/>
        <pt x="0" y="619" on="1"/>
        <pt x="0" y="628" on="0"/>
        <pt x="9" y="633" on="1"/>
        <pt x="113" y="689" on="1"/>
        <pt x="121" y="694" on="0"/>
        <pt x="139" y="694" on="0"/>
        <pt x="147" y="689" on="1"/>
        <pt x="251" y="634" on="1"/>
        <pt x="260" y="630" on="0"/>
        <pt x="260" y="617" on="1"/>
        <pt x="260" y="610" on="0"/>
        <pt x="250" y="601" on="0"/>
        <pt x="243" y="601" on="1"/>
        <pt x="234" y="604" on="1"/>
      </contour>
    </TTGlyph>
    <TTGlyph name="colon" xMin="61" yMin="-6" xMax="148" yMax="422">
      <contour>
        <pt x="105" y="80" on="1"/>
        <pt x="122" y="80" on="0"/>
        <pt x="148" y="54" on="0"/>
        <pt x="148" y="20" on="0"/>
        <pt x="122" y="-6" on="0"/>
        <pt x="105" y="-6" on="1"/>
        <pt x="87" y="-6" on="0"/>
        <pt x="61" y="20" on="0"/>
        <pt x="61" y="54" on="0"/>
        <pt x="87" y="80" on="0"/>
      </contour>
      <contour>
        <pt x="105" y="422" on="1"/>
        <pt x="122" y="422" on="0"/>
        <pt x="148" y="396" on="0"/>
        <pt x="148" y="362" on="0"/>
        <pt x="122" y="336" on="0"/>
        <pt x="105" y="336" on="1"/>
        <pt x="87" y="336" on="0"/>
        <pt x="61" y="362" on="0"/>
        <pt x="61" y="396" on="0"/>
        <pt x="87" y="422" on="0"/>
      </contour>
    </TTGlyph>
    <TTGlyph name="comma" xMin="44" yMin="-72" xMax="131" yMax="80">
      <contour>
        <pt x="88" y="80" on="1"/>
        <pt x="105" y="80" on="0"/>
        <pt x="131" y="56" on="0"/>
        <pt x="131" y="29" on="1"/>
        <pt x="131" y="-2" on="0"/>
        <pt x="97" y="-72" on="0"/>
        <pt x="83" y="-72" on="1"/>
        <pt x="71" y="-72" on="0"/>
        <pt x="71" y="-56" on="1"/>
        <pt x="71" y="-53" on="0"/>
        <pt x="72" y="-51" on="1"/>
        <pt x="87" y="-6" on="1"/>
        <pt x="69" y="-5" on="0"/>
        <pt x="44" y="20" on="0"/>
        <pt x="44" y="54" on="0"/>
        <pt x="70" y="80" on="0"/>
      </contour>
    </TTGlyph>
    <TTGlyph name="copyright" xMin="46" yMin="35" xMax="660" yMax="685">
      <contour>
        <pt x="46" y="358" on="1"/>
        <pt x="46" y="438" on="0"/>
        <pt x="103" y="567" on="0"/>
        <pt x="195" y="644" on="0"/>
        <pt x="302" y="685" on="0"/>
        <pt x="410" y="685" on="0"/>
        <pt x="516" y="644" on="0"/>
        <pt x="605" y="567" on="0"/>
        <pt x="660" y="440" on="0"/>
        <pt x="660" y="362" on="1"/>
        <pt x="660" y="282" on="0"/>
        <pt x="603" y="153" on="0"/>
        <pt x="511" y="76" on="0"/>
        <pt x="404" y="35" on="0"/>
        <pt x="296" y="35" on="0"/>
        <pt x="190" y="76" on="0"/>
        <pt x="101" y="153" on="0"/>
        <pt x="46" y="280" on="0"/>
      </contour>
      <contour>
        <pt x="625" y="362" on="1"/>
        <pt x="625" y="488" on="0"/>
        <pt x="476" y="650" on="0"/>
        <pt x="236" y="650" on="0"/>
        <pt x="81" y="487" on="0"/>
        <pt x="81" y="358" on="1"/>
        <pt x="81" y="232" on="0"/>
        <pt x="230" y="70" on="0"/>
        <pt x="470" y="70" on="0"/>
        <pt x="625" y="233" on="0"/>
      </contour>
      <contour>
        <pt x="291" y="449" on="1"/>
        <pt x="291" y="284" on="1"/>
        <pt x="291" y="204" on="0"/>
        <pt x="358" y="204" on="1"/>
        <pt x="389" y="204" on="0"/>
        <pt x="419" y="247" on="0"/>
        <pt x="419" y="265" on="1"/>
        <pt x="419" y="272" on="0"/>
        <pt x="431" y="280" on="0"/>
        <pt x="436" y="280" on="1"/>
        <pt x="457" y="280" on="0"/>
        <pt x="457" y="262" on="1"/>
        <pt x="455" y="223" on="0"/>
        <pt x="401" y="171" on="0"/>
        <pt x="354" y="171" on="1"/>
        <pt x="308" y="171" on="0"/>
        <pt x="253" y="226" on="0"/>
        <pt x="253" y="284" on="1"/>
        <pt x="253" y="449" on="1"/>
        <pt x="253" y="507" on="0"/>
        <pt x="309" y="562" on="0"/>
        <pt x="354" y="562" on="1"/>
        <pt x="406" y="562" on="0"/>
        <pt x="457" y="503" on="0"/>
        <pt x="457" y="474" on="1"/>
        <pt x="457" y="453" on="0"/>
        <pt x="438" y="453" on="1"/>
        <pt x="421" y="453" on="0"/>
        <pt x="419" y="468" on="1"/>
        <pt x="408" y="529" on="0"/>
        <pt x="356" y="529" on="1"/>
        <pt x="291" y="529" on="0"/>
      </contour>
    </TTGlyph>
    <TTGlyph name="currency" xMin="63" yMin="290" xMax="419" yMax="652">
      <contour>
        <pt x="241" y="652" on="1"/>
        <pt x="301" y="652" on="0"/>
        <pt x="351" y="612" on="1"/>
        <pt x="379" y="640" on="1"/>
        <pt x="384" y="645" on="0"/>
        <pt x="392" y="645" on="1"/>
        <pt x="399" y="645" on="0"/>
        <pt x="409" y="635" on="0"/>
        <pt x="409" y="628" on="1"/>
        <pt x="409" y="620" on="0"/>
        <pt x="404" y="615" on="1"/>
        <pt x="376" y="587" on="1"/>
        <pt x="419" y="538" on="0"/>
        <pt x="419" y="472" on="1"/>
        <pt x="419" y="409" on="0"/>
        <pt x="375" y="357" on="1"/>
        <pt x="404" y="328" on="1"/>
        <pt x="409" y="321" on="0"/>
        <pt x="409" y="316" on="1"/>
        <pt x="409" y="310" on="0"/>
        <pt x="399" y="299" on="0"/>
        <pt x="392" y="299" on="1"/>
        <pt x="384" y="299" on="0"/>
        <pt x="380" y="304" on="1"/>
        <pt x="351" y="332" on="1"/>
        <pt x="301" y="290" on="0"/>
        <pt x="241" y="290" on="1"/>
        <pt x="177" y="290" on="0"/>
        <pt x="125" y="337" on="1"/>
        <pt x="92" y="304" on="1"/>
        <pt x="87" y="299" on="0"/>
        <pt x="73" y="299" on="0"/>
        <pt x="63" y="309" on="0"/>
        <pt x="63" y="323" on="0"/>
        <pt x="68" y="328" on="1"/>
        <pt x="102" y="362" on="1"/>
        <pt x="64" y="411" on="0"/>
        <pt x="64" y="533" on="0"/>
        <pt x="101" y="581" on="1"/>
        <pt x="75" y="608" on="1"/>
        <pt x="70" y="613" on="0"/>
        <pt x="70" y="621" on="1"/>
        <pt x="70" y="628" on="0"/>
        <pt x="81" y="638" on="0"/>
        <pt x="95" y="638" on="0"/>
        <pt x="100" y="633" on="1"/>
        <pt x="125" y="607" on="1"/>
        <pt x="175" y="652" on="0"/>
      </contour>
      <contour>
        <pt x="381" y="472" on="1"/>
        <pt x="381" y="527" on="0"/>
        <pt x="298" y="614" on="0"/>
        <pt x="184" y="614" on="0"/>
        <pt x="102" y="527" on="0"/>
        <pt x="102" y="472" on="1"/>
        <pt x="102" y="416" on="0"/>
        <pt x="184" y="328" on="0"/>
        <pt x="298" y="328" on="0"/>
        <pt x="381" y="416" on="0"/>
      </contour>
    </TTGlyph>
    <TTGlyph name="d" xMin="50" yMin="-6" xMax="399" yMax="768">
      <contour>
        <pt x="382" y="768" on="1"/>
        <pt x="399" y="768" on="0"/>
        <pt x="399" y="751" on="1"/>
        <pt x="399" y="18" on="1"/>
        <pt x="399" y="11" on="0"/>
        <pt x="389" y="0" on="0"/>
        <pt x="375" y="0" on="0"/>
        <pt x="364" y="11" on="0"/>
        <pt x="364" y="18" on="1"/>
        <pt x="364" y="70" on="1"/>
        <pt x="347" y="38" on="0"/>
        <pt x="272" y="-6" on="0"/>
        <pt x="228" y="-6" on="1"/>
        <pt x="157" y="-6" on="0"/>
        <pt x="50" y="104" on="0"/>
        <pt x="50" y="176" on="1"/>
        <pt x="50" y="298" on="1"/>
        <pt x="50" y="372" on="0"/>
        <pt x="156" y="478" on="0"/>
        <pt x="230" y="478" on="1"/>
        <pt x="321" y="478" on="0"/>
        <pt x="364" y="402" on="1"/>
        <pt x="364" y="751" on="1"/>
        <pt x="364" y="768" on="0"/>
      </contour>
      <contour>
        <pt x="85" y="298" on="1"/>
        <pt x="85" y="176" on="1"/>
        <pt x="85" y="119" on="0"/>
        <pt x="170" y="29" on="0"/>
        <pt x="226" y="29" on="1"/>
        <pt x="280" y="29" on="0"/>
        <pt x="364" y="108" on="0"/>
        <pt x="364" y="139" on="1"/>
        <pt x="364" y="298" on="1"/>
        <pt x="364" y="363" on="0"/>
        <pt x="281" y="443" on="0"/>
        <pt x="227" y="443" on="1"/>
        <pt x="170" y="443" on="0"/>
        <pt x="85" y="354" on="0"/>
      </contour>
    </TTGlyph>
    <TTGlyph name="dagger" xMin="24" yMin="-21" xMax="379" yMax="731">
      <contour>
        <pt x="24" y="454" on="1"/>
        <pt x="24" y="472" on="0"/>
        <pt x="41" y="472" on="1"/>
        <pt x="183" y="466" on="1"/>
        <pt x="183" y="714" on="1"/>
        <pt x="183" y="721" on="0"/>
        <pt x="194" y="731" on="0"/>
        <pt x="208" y="731" on="0"/>
        <pt x="219" y="721" on="0"/>
        <pt x="219" y="714" on="1"/>
        <pt x="219" y="466" on="1"/>
        <pt x="361" y="472" on="1"/>
        <pt x="368" y="472" on="0"/>
        <pt x="379" y="461" on="0"/>
        <pt x="379" y="447" on="0"/>
        <pt x="368" y="437" on="0"/>
        <pt x="361" y="437" on="1"/>
        <pt x="219" y="443" on="1"/>
        <pt x="219" y="-4" on="1"/>
        <pt x="219" y="-11" on="0"/>
        <pt x="208" y="-21" on="0"/>
        <pt x="194" y="-21" on="0"/>
        <pt x="183" y="-11" on="0"/>
        <pt x="183" y="-4" on="1"/>
        <pt x="183" y="443" on="1"/>
        <pt x="41" y="437" on="1"/>
        <pt x="24" y="437" on="0"/>
      </contour>
    </TTGlyph>
    <TTGlyph name="daggerdbl" xMin="42" yMin="-21" xMax="397" yMax="731">
      <contour>
        <pt x="42" y="454" on="1"/>
        <pt x="42" y="472" on="0"/>
        <pt x="59" y="472" on="1"/>
        <pt x="201" y="466" on="1"/>
        <pt x="201" y="714" on="1"/>
        <pt x="201" y="721" on="0"/>
        <pt x="212" y="731" on="0"/>
        <pt x="226" y="731" on="0"/>
        <pt x="237" y="721" on="0"/>
        <pt x="237" y="714" on="1"/>
        <pt x="237" y="466" on="1"/>
        <pt x="379" y="472" on="1"/>
        <pt x="386" y="472" on="0"/>
        <pt x="397" y="461" on="0"/>
        <pt x="397" y="447" on="0"/>
        <pt x="386" y="437" on="0"/>
        <pt x="379" y="437" on="1"/>
        <pt x="237" y="443" on="1"/>
        <pt x="237" y="252" on="1"/>
        <pt x="379" y="258" on="1"/>
        <pt x="386" y="258" on="0"/>
        <pt x="397" y="248" on="0"/>
        <pt x="397" y="234" on="0"/>
        <pt x="386" y="223" on="0"/>
        <pt x="379" y="223" on="1"/>
        <pt x="237" y="229" on="1"/>
        <pt x="237" y="-4" on="1"/>
        <pt x="237" y="-11" on="0"/>
        <pt x="226" y="-21" on="0"/>
        <pt x="212" y="-21" on="0"/>
        <pt x="201" y="-11" on="0"/>
        <pt x="201" y="-4" on="1"/>
        <pt x="201" y="229" on="1"/>
        <pt x="59" y="223" on="1"/>
        <pt x="42" y="223" on="0"/>
        <pt x="42" y="241" on="1"/>
        <pt x="42" y="258" on="0"/>
        <pt x="59" y="258" on="1"/>
        <pt x="201" y="252" on="1"/>
        <pt x="201" y="443" on="1"/>
        <pt x="59" y="437" on="1"/>
        <pt x="42" y="437" on="0"/>
      </contour>
    </TTGlyph>
    <TTGlyph name="dcaron" xMin="50" yMin="-6" xMax="538" yMax="768">
      <component glyphName="d" x="0" y="0" flags="0x204"/>
      <component glyphName="quoteright" x="427" y="0" flags="0x4"/>
    </TTGlyph>
    <TTGlyph name="degree" xMin="34" yMin="406" xMax="389" yMax="768">
      <contour>
        <pt x="139" y="768" on="0"/>
        <pt x="283" y="768" on="0"/>
        <pt x="389" y="662" on="0"/>
        <pt x="389" y="588" on="1"/>
        <pt x="389" y="516" on="0"/>
        <pt x="282" y="406" on="0"/>
        <pt x="140" y="406" on="0"/>
        <pt x="34" y="516" on="0"/>
        <pt x="34" y="660" on="0"/>
      </contour>
      <contour>
        <pt x="351" y="588" on="1"/>
        <pt x="351" y="643" on="0"/>
        <pt x="268" y="730" on="0"/>
        <pt x="154" y="730" on="0"/>
        <pt x="72" y="643" on="0"/>
        <pt x="72" y="588" on="1"/>
        <pt x="72" y="532" on="0"/>
        <pt x="154" y="444" on="0"/>
        <pt x="268" y="444" on="0"/>
        <pt x="351" y="532" on="0"/>
      </contour>
    </TTGlyph>
    <TTGlyph name="dieresis" xMin="0" yMin="617" xMax="136" yMax="703">
      <contour>
        <pt x="27" y="703" on="1"/>
        <pt x="37" y="703" on="0"/>
        <pt x="53" y="677" on="0"/>
        <pt x="53" y="643" on="0"/>
        <pt x="37" y="617" on="0"/>
        <pt x="27" y="617" on="1"/>
        <pt x="16" y="617" on="0"/>
        <pt x="0" y="643" on="0"/>
        <pt x="0" y="677" on="0"/>
        <pt x="16" y="703" on="0"/>
      </contour>
      <contour>
        <pt x="110" y="703" on="1"/>
        <pt x="120" y="703" on="0"/>
        <pt x="136" y="677" on="0"/>
        <pt x="136" y="643" on="0"/>
        <pt x="120" y="617" on="0"/>
        <pt x="110" y="617" on="1"/>
        <pt x="99" y="617" on="0"/>
        <pt x="83" y="643" on="0"/>
        <pt x="83" y="677" on="0"/>
        <pt x="99" y="703" on="0"/>
      </contour>
    </TTGlyph>
    <TTGlyph name="divide" xMin="49" yMin="202" xMax="404" yMax="609">
      <contour>
        <pt x="223" y="288" on="1"/>
        <pt x="240" y="288" on="0"/>
        <pt x="266" y="262" on="0"/>
        <pt x="266" y="228" on="0"/>
        <pt x="240" y="202" on="0"/>
        <pt x="223" y="202" on="1"/>
        <pt x="205" y="202" on="0"/>
        <pt x="179" y="228" on="0"/>
        <pt x="179" y="262" on="0"/>
        <pt x="205" y="288" on="0"/>
      </contour>
      <contour>
        <pt x="223" y="609" on="1"/>
        <pt x="240" y="609" on="0"/>
        <pt x="266" y="583" on="0"/>
        <pt x="266" y="549" on="0"/>
        <pt x="240" y="523" on="0"/>
        <pt x="223" y="523" on="1"/>
        <pt x="205" y="523" on="0"/>
        <pt x="179" y="549" on="0"/>
        <pt x="179" y="583" on="0"/>
        <pt x="205" y="609" on="0"/>
      </contour>
      <contour>
        <pt x="49" y="405" on="1"/>
        <pt x="49" y="423" on="0"/>
        <pt x="66" y="423" on="1"/>
        <pt x="386" y="423" on="1"/>
        <pt x="393" y="423" on="0"/>
        <pt x="404" y="412" on="0"/>
        <pt x="404" y="398" on="0"/>
        <pt x="393" y="388" on="0"/>
        <pt x="386" y="388" on="1"/>
        <pt x="66" y="388" on="1"/>
        <pt x="49" y="388" on="0"/>
      </contour>
    </TTGlyph>
    <TTGlyph name="dollar" xMin="42" yMin="-52" xMax="433" yMax="768">
      <contour>
        <pt x="253" y="-52" on="0"/>
        <pt x="239" y="-52" on="0"/>
        <pt x="228" y="-42" on="0"/>
        <pt x="228" y="-35" on="1"/>
        <pt x="228" y="7" on="1"/>
        <pt x="149" y="7" on="0"/>
        <pt x="42" y="104" on="0"/>
        <pt x="42" y="174" on="1"/>
        <pt x="42" y="210" on="0"/>
        <pt x="82" y="210" on="0"/>
        <pt x="82" y="185" on="1"/>
        <pt x="82" y="121" on="0"/>
        <pt x="160" y="43" on="0"/>
        <pt x="228" y="43" on="1"/>
        <pt x="228" y="353" on="1"/>
        <pt x="151" y="388" on="0"/>
        <pt x="62" y="480" on="0"/>
        <pt x="62" y="558" on="1"/>
        <pt x="62" y="623" on="0"/>
        <pt x="153" y="716" on="0"/>
        <pt x="228" y="716" on="1"/>
        <pt x="228" y="751" on="1"/>
        <pt x="228" y="758" on="0"/>
        <pt x="239" y="768" on="0"/>
        <pt x="253" y="768" on="0"/>
        <pt x="264" y="758" on="0"/>
        <pt x="264" y="751" on="1"/>
        <pt x="264" y="716" on="1"/>
        <pt x="346" y="716" on="0"/>
        <pt x="413" y="623" on="0"/>
        <pt x="412" y="561" on="1"/>
        <pt x="412" y="522" on="0"/>
        <pt x="397" y="522" on="1"/>
        <pt x="385" y="522" on="0"/>
        <pt x="376" y="573" on="0"/>
        <pt x="369" y="634" on="0"/>
        <pt x="315" y="685" on="0"/>
        <pt x="264" y="685" on="1"/>
        <pt x="264" y="375" on="1"/>
        <pt x="304" y="356" on="0"/>
        <pt x="350" y="329" on="0"/>
        <pt x="407" y="282" on="0"/>
        <pt x="433" y="217" on="0"/>
        <pt x="433" y="175" on="1"/>
        <pt x="433" y="96" on="0"/>
        <pt x="336" y="7" on="0"/>
        <pt x="264" y="7" on="1"/>
        <pt x="264" y="-35" on="1"/>
        <pt x="264" y="-42" on="0"/>
      </contour>
      <contour>
        <pt x="400" y="179" on="1"/>
        <pt x="400" y="233" on="0"/>
        <pt x="330" y="301" on="0"/>
        <pt x="264" y="334" on="1"/>
        <pt x="264" y="43" on="1"/>
        <pt x="324" y="43" on="0"/>
        <pt x="400" y="120" on="0"/>
      </contour>
      <contour>
        <pt x="97" y="554" on="1"/>
        <pt x="97" y="494" on="0"/>
        <pt x="165" y="423" on="0"/>
        <pt x="228" y="392" on="1"/>
        <pt x="228" y="685" on="1"/>
        <pt x="168" y="685" on="0"/>
        <pt x="97" y="611" on="0"/>
      </contour>
    </TTGlyph>
    <TTGlyph name="dotaccent" xMin="66" yMin="577" xMax="153" yMax="663">
      <contour>
        <pt x="110" y="663" on="1"/>
        <pt x="127" y="663" on="0"/>
        <pt x="153" y="637" on="0"/>
        <pt x="153" y="603" on="0"/>
        <pt x="127" y="577" on="0"/>
        <pt x="110" y="577" on="1"/>
        <pt x="92" y="577" on="0"/>
        <pt x="66" y="603" on="0"/>
        <pt x="66" y="637" on="0"/>
        <pt x="92" y="663" on="0"/>
      </contour>
    </TTGlyph>
    <TTGlyph name="dotlessi" xMin="69" yMin="0" xMax="104" yMax="472">
      <contour>
        <pt x="86" y="472" on="1"/>
        <pt x="104" y="472" on="0"/>
        <pt x="104" y="455" on="1"/>
        <pt x="104" y="18" on="1"/>
        <pt x="104" y="11" on="0"/>
        <pt x="93" y="0" on="0"/>
        <pt x="79" y="0" on="0"/>
        <pt x="69" y="11" on="0"/>
        <pt x="69" y="18" on="1"/>
        <pt x="69" y="455" on="1"/>
        <pt x="69" y="462" on="0"/>
        <pt x="79" y="472" on="0"/>
      </contour>
    </TTGlyph>
    <TTGlyph name="e" xMin="50" yMin="-6" xMax="405" yMax="478">
      <contour>
        <pt x="228" y="478" on="1"/>
        <pt x="300" y="478" on="0"/>
        <pt x="405" y="375" on="0"/>
        <pt x="405" y="298" on="1"/>
        <pt x="405" y="272" on="0"/>
        <pt x="393" y="240" on="0"/>
        <pt x="365" y="226" on="0"/>
        <pt x="342" y="223" on="0"/>
        <pt x="322" y="223" on="1"/>
        <pt x="85" y="223" on="1"/>
        <pt x="85" y="176" on="1"/>
        <pt x="85" y="109" on="0"/>
        <pt x="179" y="29" on="0"/>
        <pt x="254" y="29" on="1"/>
        <pt x="291" y="29" on="0"/>
        <pt x="341" y="50" on="0"/>
        <pt x="366" y="70" on="0"/>
        <pt x="372" y="70" on="1"/>
        <pt x="379" y="70" on="0"/>
        <pt x="390" y="58" on="0"/>
        <pt x="390" y="52" on="1"/>
        <pt x="390" y="42" on="0"/>
        <pt x="358" y="15" on="0"/>
        <pt x="292" y="-6" on="0"/>
        <pt x="252" y="-6" on="1"/>
        <pt x="163" y="-6" on="0"/>
        <pt x="50" y="95" on="0"/>
        <pt x="50" y="176" on="1"/>
        <pt x="50" y="301" on="1"/>
        <pt x="50" y="373" on="0"/>
        <pt x="155" y="478" on="0"/>
      </contour>
      <contour>
        <pt x="85" y="258" on="1"/>
        <pt x="310" y="258" on="1"/>
        <pt x="347" y="258" on="0"/>
        <pt x="370" y="272" on="0"/>
        <pt x="370" y="295" on="1"/>
        <pt x="370" y="352" on="0"/>
        <pt x="290" y="443" on="0"/>
        <pt x="228" y="443" on="1"/>
        <pt x="168" y="443" on="0"/>
        <pt x="85" y="358" on="0"/>
        <pt x="85" y="301" on="1"/>
      </contour>
    </TTGlyph>
    <TTGlyph name="eacute" xMin="50" yMin="-6" xMax="405" yMax="694">
      <component glyphName="e" x="0" y="0" flags="0x204"/>
      <component glyphName="acute" x="161" y="0" flags="0x4"/>
    </TTGlyph>
    <TTGlyph name="ebreve" xMin="50" yMin="-6" xMax="405" yMax="692">
      <contour>
        <pt x="228" y="478" on="1"/>
        <pt x="300" y="478" on="0"/>
        <pt x="405" y="375" on="0"/>
        <pt x="405" y="298" on="1"/>
        <pt x="405" y="272" on="0"/>
        <pt x="393" y="240" on="0"/>
        <pt x="365" y="226" on="0"/>
        <pt x="342" y="223" on="0"/>
        <pt x="322" y="223" on="1"/>
        <pt x="85" y="223" on="1"/>
        <pt x="85" y="176" on="1"/>
        <pt x="85" y="109" on="0"/>
        <pt x="179" y="29" on="0"/>
        <pt x="254" y="29" on="1"/>
        <pt x="291" y="29" on="0"/>
        <pt x="341" y="50" on="0"/>
        <pt x="366" y="70" on="0"/>
        <pt x="372" y="70" on="1"/>
        <pt x="379" y="70" on="0"/>
        <pt x="390" y="58" on="0"/>
        <pt x="390" y="52" on="1"/>
        <pt x="390" y="42" on="0"/>
        <pt x="358" y="15" on="0"/>
        <pt x="292" y="-6" on="0"/>
        <pt x="252" y="-6" on="1"/>
        <pt x="163" y="-6" on="0"/>
        <pt x="50" y="95" on="0"/>
        <pt x="50" y="176" on="1"/>
        <pt x="50" y="301" on="1"/>
        <pt x="50" y="373" on="0"/>
        <pt x="155" y="478" on="0"/>
      </contour>
      <contour>
        <pt x="85" y="258" on="1"/>
        <pt x="310" y="258" on="1"/>
        <pt x="347" y="258" on="0"/>
        <pt x="370" y="272" on="0"/>
        <pt x="370" y="295" on="1"/>
        <pt x="370" y="352" on="0"/>
        <pt x="290" y="443" on="0"/>
        <pt x="228" y="443" on="1"/>
        <pt x="168" y="443" on="0"/>
        <pt x="85" y="358" on="0"/>
        <pt x="85" y="301" on="1"/>
      </contour>
      <contour>
        <pt x="303" y="692" on="1"/>
        <pt x="336" y="692" on="1"/>
        <pt x="336" y="655" on="0"/>
        <pt x="270" y="601" on="0"/>
        <pt x="227" y="601" on="1"/>
        <pt x="183" y="601" on="0"/>
        <pt x="118" y="655" on="0"/>
        <pt x="118" y="692" on="1"/>
        <pt x="150" y="692" on="1"/>
        <pt x="150" y="665" on="0"/>
        <pt x="195" y="627" on="0"/>
        <pt x="227" y="627" on="1"/>
        <pt x="258" y="627" on="0"/>
        <pt x="303" y="665" on="0"/>
      </contour>
    </TTGlyph>
    <TTGlyph name="ecaron" xMin="50" yMin="-6" xMax="405" yMax="722">
      <component glyphName="e" x="0" y="0" flags="0x204"/>
      <component glyphName="caron" x="86" y="0" flags="0x4"/>
    </TTGlyph>
    <TTGlyph name="ecircumflex" xMin="50" yMin="-6" xMax="405" yMax="694">
      <contour>
        <pt x="228" y="478" on="1"/>
        <pt x="300" y="478" on="0"/>
        <pt x="405" y="375" on="0"/>
        <pt x="405" y="298" on="1"/>
        <pt x="405" y="272" on="0"/>
        <pt x="393" y="240" on="0"/>
        <pt x="365" y="226" on="0"/>
        <pt x="342" y="223" on="0"/>
        <pt x="322" y="223" on="1"/>
        <pt x="85" y="223" on="1"/>
        <pt x="85" y="176" on="1"/>
        <pt x="85" y="109" on="0"/>
        <pt x="179" y="29" on="0"/>
        <pt x="254" y="29" on="1"/>
        <pt x="291" y="29" on="0"/>
        <pt x="341" y="50" on="0"/>
        <pt x="366" y="70" on="0"/>
        <pt x="372" y="70" on="1"/>
        <pt x="379" y="70" on="0"/>
        <pt x="390" y="58" on="0"/>
        <pt x="390" y="52" on="1"/>
        <pt x="390" y="42" on="0"/>
        <pt x="358" y="15" on="0"/>
        <pt x="292" y="-6" on="0"/>
        <pt x="252" y="-6" on="1"/>
        <pt x="163" y="-6" on="0"/>
        <pt x="50" y="95" on="0"/>
        <pt x="50" y="176" on="1"/>
        <pt x="50" y="301" on="1"/>
        <pt x="50" y="373" on="0"/>
        <pt x="155" y="478" on="0"/>
      </contour>
      <contour>
        <pt x="85" y="258" on="1"/>
        <pt x="310" y="258" on="1"/>
        <pt x="347" y="258" on="0"/>
        <pt x="370" y="272" on="0"/>
        <pt x="370" y="295" on="1"/>
        <pt x="370" y="352" on="0"/>
        <pt x="290" y="443" on="0"/>
        <pt x="228" y="443" on="1"/>
        <pt x="168" y="443" on="0"/>
        <pt x="85" y="358" on="0"/>
        <pt x="85" y="301" on="1"/>
      </contour>
      <contour>
        <pt x="227" y="659" on="1"/>
        <pt x="123" y="603" on="1"/>
        <pt x="122" y="603" on="0"/>
        <pt x="116" y="600" on="0"/>
        <pt x="115" y="600" on="1"/>
        <pt x="108" y="600" on="0"/>
        <pt x="97" y="611" on="0"/>
        <pt x="97" y="619" on="1"/>
        <pt x="97" y="628" on="0"/>
        <pt x="106" y="633" on="1"/>
        <pt x="210" y="689" on="1"/>
        <pt x="218" y="694" on="0"/>
        <pt x="236" y="694" on="0"/>
        <pt x="244" y="689" on="1"/>
        <pt x="348" y="634" on="1"/>
        <pt x="357" y="630" on="0"/>
        <pt x="357" y="617" on="1"/>
        <pt x="357" y="610" on="0"/>
        <pt x="347" y="601" on="0"/>
        <pt x="340" y="601" on="1"/>
        <pt x="331" y="604" on="1"/>
      </contour>
    </TTGlyph>
    <TTGlyph name="edieresis" xMin="50" yMin="-6" xMax="405" yMax="703">
      <component glyphName="e" x="0" y="0" flags="0x204"/>
      <component glyphName="dieresis" x="159" y="0" flags="0x4"/>
    </TTGlyph>
    <TTGlyph name="edotaccent" xMin="50" yMin="-6" xMax="405" yMax="663">
      <contour>
        <pt x="228" y="478" on="1"/>
        <pt x="300" y="478" on="0"/>
        <pt x="405" y="375" on="0"/>
        <pt x="405" y="298" on="1"/>
        <pt x="405" y="272" on="0"/>
        <pt x="393" y="240" on="0"/>
        <pt x="365" y="226" on="0"/>
        <pt x="342" y="223" on="0"/>
        <pt x="322" y="223" on="1"/>
        <pt x="85" y="223" on="1"/>
        <pt x="85" y="176" on="1"/>
        <pt x="85" y="109" on="0"/>
        <pt x="179" y="29" on="0"/>
        <pt x="254" y="29" on="1"/>
        <pt x="291" y="29" on="0"/>
        <pt x="341" y="50" on="0"/>
        <pt x="366" y="70" on="0"/>
        <pt x="372" y="70" on="1"/>
        <pt x="379" y="70" on="0"/>
        <pt x="390" y="58" on="0"/>
        <pt x="390" y="52" on="1"/>
        <pt x="390" y="42" on="0"/>
        <pt x="358" y="15" on="0"/>
        <pt x="292" y="-6" on="0"/>
        <pt x="252" y="-6" on="1"/>
        <pt x="163" y="-6" on="0"/>
        <pt x="50" y="95" on="0"/>
        <pt x="50" y="176" on="1"/>
        <pt x="50" y="301" on="1"/>
        <pt x="50" y="373" on="0"/>
        <pt x="155" y="478" on="0"/>
      </contour>
      <contour>
        <pt x="85" y="258" on="1"/>
        <pt x="310" y="258" on="1"/>
        <pt x="347" y="258" on="0"/>
        <pt x="370" y="272" on="0"/>
        <pt x="370" y="295" on="1"/>
        <pt x="370" y="352" on="0"/>
        <pt x="290" y="443" on="0"/>
        <pt x="228" y="443" on="1"/>
        <pt x="168" y="443" on="0"/>
        <pt x="85" y="358" on="0"/>
        <pt x="85" y="301" on="1"/>
      </contour>
      <contour>
        <pt x="228" y="663" on="1"/>
        <pt x="245" y="663" on="0"/>
        <pt x="271" y="637" on="0"/>
        <pt x="271" y="603" on="0"/>
        <pt x="245" y="577" on="0"/>
        <pt x="228" y="577" on="1"/>
        <pt x="210" y="577" on="0"/>
        <pt x="184" y="603" on="0"/>
        <pt x="184" y="637" on="0"/>
        <pt x="210" y="663" on="0"/>
      </contour>
    </TTGlyph>
    <TTGlyph name="egrave" xMin="50" yMin="-6" xMax="405" yMax="694">
      <contour>
        <pt x="228" y="478" on="1"/>
        <pt x="300" y="478" on="0"/>
        <pt x="405" y="375" on="0"/>
        <pt x="405" y="298" on="1"/>
        <pt x="405" y="272" on="0"/>
        <pt x="393" y="240" on="0"/>
        <pt x="365" y="226" on="0"/>
        <pt x="342" y="223" on="0"/>
        <pt x="322" y="223" on="1"/>
        <pt x="85" y="223" on="1"/>
        <pt x="85" y="176" on="1"/>
        <pt x="85" y="109" on="0"/>
        <pt x="179" y="29" on="0"/>
        <pt x="254" y="29" on="1"/>
        <pt x="291" y="29" on="0"/>
        <pt x="341" y="50" on="0"/>
        <pt x="366" y="70" on="0"/>
        <pt x="372" y="70" on="1"/>
        <pt x="379" y="70" on="0"/>
        <pt x="390" y="58" on="0"/>
        <pt x="390" y="52" on="1"/>
        <pt x="390" y="42" on="0"/>
        <pt x="358" y="15" on="0"/>
        <pt x="292" y="-6" on="0"/>
        <pt x="252" y="-6" on="1"/>
        <pt x="163" y="-6" on="0"/>
        <pt x="50" y="95" on="0"/>
        <pt x="50" y="176" on="1"/>
        <pt x="50" y="301" on="1"/>
        <pt x="50" y="373" on="0"/>
        <pt x="155" y="478" on="0"/>
      </contour>
      <contour>
        <pt x="85" y="258" on="1"/>
        <pt x="310" y="258" on="1"/>
        <pt x="347" y="258" on="0"/>
        <pt x="370" y="272" on="0"/>
        <pt x="370" y="295" on="1"/>
        <pt x="370" y="352" on="0"/>
        <pt x="290" y="443" on="0"/>
        <pt x="228" y="443" on="1"/>
        <pt x="168" y="443" on="0"/>
        <pt x="85" y="358" on="0"/>
        <pt x="85" y="301" on="1"/>
      </contour>
      <contour>
        <pt x="266" y="604" on="1"/>
        <pt x="171" y="658" on="1"/>
        <pt x="161" y="664" on="0"/>
        <pt x="161" y="676" on="1"/>
        <pt x="161" y="694" on="0"/>
        <pt x="177" y="694" on="1"/>
        <pt x="180" y="694" on="0"/>
        <pt x="184" y="692" on="1"/>
        <pt x="286" y="632" on="1"/>
        <pt x="294" y="628" on="0"/>
        <pt x="294" y="619" on="1"/>
        <pt x="294" y="612" on="0"/>
        <pt x="283" y="601" on="0"/>
        <pt x="275" y="601" on="1"/>
        <pt x="270" y="601" on="0"/>
      </contour>
    </TTGlyph>
    <TTGlyph name="eight" xMin="49" yMin="-6" xMax="440" yMax="731">
      <contour>
        <pt x="245" y="731" on="1"/>
        <pt x="329" y="728" on="0"/>
        <pt x="422" y="652" on="0"/>
        <pt x="422" y="560" on="1"/>
        <pt x="422" y="441" on="0"/>
        <pt x="337" y="404" on="1"/>
        <pt x="440" y="361" on="0"/>
        <pt x="440" y="218" on="1"/>
        <pt x="440" y="200" on="1"/>
        <pt x="440" y="94" on="0"/>
        <pt x="334" y="-6" on="0"/>
        <pt x="156" y="-6" on="0"/>
        <pt x="49" y="94" on="0"/>
        <pt x="49" y="200" on="1"/>
        <pt x="49" y="218" on="1"/>
        <pt x="49" y="360" on="0"/>
        <pt x="153" y="404" on="1"/>
        <pt x="68" y="441" on="0"/>
        <pt x="68" y="560" on="1"/>
        <pt x="68" y="652" on="0"/>
        <pt x="161" y="728" on="0"/>
      </contour>
      <contour>
        <pt x="404" y="200" on="1"/>
        <pt x="404" y="218" on="1"/>
        <pt x="404" y="302" on="0"/>
        <pt x="321" y="385" on="0"/>
        <pt x="169" y="385" on="0"/>
        <pt x="85" y="302" on="0"/>
        <pt x="85" y="218" on="1"/>
        <pt x="85" y="200" on="1"/>
        <pt x="85" y="115" on="0"/>
        <pt x="169" y="30" on="0"/>
        <pt x="246" y="30" on="1"/>
        <pt x="322" y="30" on="0"/>
        <pt x="404" y="115" on="0"/>
      </contour>
      <contour>
        <pt x="245" y="695" on="1"/>
        <pt x="175" y="692" on="0"/>
        <pt x="104" y="630" on="0"/>
        <pt x="104" y="560" on="1"/>
        <pt x="104" y="422" on="0"/>
        <pt x="386" y="422" on="0"/>
        <pt x="386" y="560" on="1"/>
        <pt x="386" y="630" on="0"/>
        <pt x="315" y="692" on="0"/>
      </contour>
    </TTGlyph>
    <TTGlyph name="ellipsis" xMin="44" yMin="-6" xMax="485" yMax="80">
      <contour>
        <pt x="88" y="80" on="1"/>
        <pt x="105" y="80" on="0"/>
        <pt x="131" y="54" on="0"/>
        <pt x="131" y="20" on="0"/>
        <pt x="105" y="-6" on="0"/>
        <pt x="88" y="-6" on="1"/>
        <pt x="70" y="-6" on="0"/>
        <pt x="44" y="20" on="0"/>
        <pt x="44" y="54" on="0"/>
        <pt x="70" y="80" on="0"/>
      </contour>
      <contour>
        <pt x="265" y="80" on="1"/>
        <pt x="282" y="80" on="0"/>
        <pt x="308" y="54" on="0"/>
        <pt x="308" y="20" on="0"/>
        <pt x="282" y="-6" on="0"/>
        <pt x="265" y="-6" on="1"/>
        <pt x="247" y="-6" on="0"/>
        <pt x="221" y="20" on="0"/>
        <pt x="221" y="54" on="0"/>
        <pt x="247" y="80" on="0"/>
      </contour>
      <contour>
        <pt x="442" y="80" on="1"/>
        <pt x="459" y="80" on="0"/>
        <pt x="485" y="54" on="0"/>
        <pt x="485" y="20" on="0"/>
        <pt x="459" y="-6" on="0"/>
        <pt x="442" y="-6" on="1"/>
        <pt x="424" y="-6" on="0"/>
        <pt x="398" y="20" on="0"/>
        <pt x="398" y="54" on="0"/>
        <pt x="424" y="80" on="0"/>
      </contour>
    </TTGlyph>
    <TTGlyph name="emacron" xMin="50" yMin="-6" xMax="405" yMax="673">
      <component glyphName="e" x="0" y="0" flags="0x204"/>
      <component glyphName="macron" x="100" y="0" flags="0x4"/>
    </TTGlyph>
    <TTGlyph name="emdash" xMin="62" yMin="223" xMax="697" yMax="258">
      <contour>
        <pt x="62" y="240" on="1"/>
        <pt x="62" y="258" on="0"/>
        <pt x="79" y="258" on="1"/>
        <pt x="679" y="258" on="1"/>
        <pt x="686" y="258" on="0"/>
        <pt x="697" y="247" on="0"/>
        <pt x="697" y="233" on="0"/>
        <pt x="686" y="223" on="0"/>
        <pt x="679" y="223" on="1"/>
        <pt x="79" y="223" on="1"/>
        <pt x="62" y="223" on="0"/>
      </contour>
    </TTGlyph>
</ttFont>
